<?xml version="1.0" standalone="no"?>
<!DOCTYPE svg PUBLIC "-//W3C//DTD SVG 1.1//EN" "http://www.w3.org/Graphics/SVG/1.1/DTD/svg11.dtd" >
<svg xmlns="http://www.w3.org/2000/svg" xmlns:xlink="http://www.w3.org/1999/xlink" version="1.1">
<metadata>
Created by FontForge 20161003 at Mon May 27 11:04:42 2019
 By www-data
Copyright 1997 International Typeface Corporation. All rights reserved.
</metadata>
<defs>
<font id="Westwood" horiz-adv-x="703" >
  <font-face 
    font-family="Westwood"
    font-weight="400"
    font-stretch="normal"
    units-per-em="1000"
    panose-1="2 0 5 6 2 0 0 2 0 4"
    ascent="800"
    descent="-200"
    x-height="504"
    cap-height="688"
    bbox="-38 -242 983 838"
    underline-thickness="0"
    underline-position="0"
    unicode-range="U+0020-FB02"
  />
<missing-glyph horiz-adv-x="500" 
d="M12 0v665h475v-665h-475zM88 618l162 -243l161 243h-323zM60 575v-484l40 61l80 120l41 61zM440 575l-162 -242l162 -243v485zM411 48l-161 242l-162 -242h323z" />
    <glyph glyph-name="f_i" unicode="fi" horiz-adv-x="648" 
d="M479 647h94l15 -38l-194 35zM149 642l-48 -66q-1 -2 -3.5 -5.5t-7 -11t-8.5 -13.5q-10 -15 -25 -35l42 102l11 26zM376 625l73 -14q71 -16 103 -30q-36 -56 -93 -86q-37 32 -103 54q-27 -14 -34 -20l-13 -10q-10 -9 -12 -20l-2 -19q-1 -1 -1 -10l72 -2l35 1q49 0 99 10
q43 7 84 21q4 -40 4 -59l-2 -89l1 -109l2 -78l3 -61q0 -16 9 -55l-106 1l-108 -2l4 59l3 93l-1 134l-1 36q-46 29 -106 30l-3 -128l1 -115q0 -23 2 -52q2 -32 6 -57l-74 2h-78l-75 -3l2 93l1 167l-1 81q0 10 -12 20q-13 11 -24 17l13 24l31 50l35 47l36 45q7 10 79 32
q57 15 70 13zM345 521q6 -2 7 -2l6 -3q13 -4 47 -23q-19 -2 -44 -2q-24 0 -40 1q11 18 24 29zM307 375l28 -15q-18 -52 -24 -77l-7 -30q0 -2 -2 -8l-1 12l1 60zM37 374q13 -22 13 -53v-26l-2 -107l-3 -118l-1 -22q0 -12 -9 -20q-2 -1 -16 -14l-1 15l1 61l4 86l7 108z
M358 355l3 -15l7 -57l2 -23q2 -32 2 -55q0 -86 -22 -163q-4 18 -5 42l-1 18v15v67l3 77q0 5 2 25l2 18t1.5 14t0.5 6q3 25 5 31zM615 351l6 -61l5 -79l3 -92l1 -81q-14 47 -19 94l-3 57v66l3 70q0 11 4 26zM528 28l67 -1l34 -3v-23l-123 14l-82 8q25 5 61 5h43zM317 23v-19
h-58l-93 3l-58 4l-8 1l-22 1q-1 0 -7 1t-10 2l13 1l17 3q23 3 35 3l44 2q10 1 44 1q13 0 32 -0.5t25 -0.5zM179 561q-25 -23 -33 -35l-20 -27q-18 -25 -18 -39v-8q0 -6 0.5 -18t1 -37t0.5 -54v-47l2 -64v-33v-101h9l11 282l2 78q0 11 8 34t17 36l16 26q1 0 4 7zM460 415
l-26 -2l2 -314h9l6 122z" />
    <glyph glyph-name="f_l" unicode="fl" horiz-adv-x="659" 
d="M378 642q46 -5 84 -5q24 0 55 3l-70 -29zM589 637l3 -32l3 -63l-2 -60v-134l4 -147l4 -90l1 -11l2 -24l2 -20q1 -2 1 -9q-66 3 -100 3q-14 0 -116 -4l7 109l2 65l1 123l-2 125l-1 18l-1 11v12q-18 22 -43 33q-22 -11 -43 -29l-10 -45l84 -2q-8 -48 -26 -85q-38 17 -65 17
l-3 -92l-2 -117l3 -64l6 -77l-143 1l-70 -2l-15 -1l6 279l1 77q-13 13 -18 17l-9 7l-4 4l33 58l28 41q3 4 8.5 11.5t8.5 10.5q15 18 18 24q10 14 18.5 19.5t33.5 14.5q69 25 103 25q12 0 32 -5l47 -13l74 -26l12 5q4 2 8 3.5t7 3l5 2.5t3 1l28 11l9 3l42 12zM158 641
l-43 -60l-53 -79l31 77q5 11 12 27q2 6 8 21q5 13 16 13l24 1h5zM353 520q16 -14 26 -30h-17q-19 0 -35 1q12 20 26 29zM45 381q13 -24 12 -93v-79l-7 -175l-26 -23l7 164zM311 375q21 -10 30 -20l-3 -9q-15 -44 -26 -94l-2 -9q-2 23 -2 50q0 41 3 82zM622 367l3 -20l7 -112
l2 -56l2 -99l-4 -35q-8 29 -12 70q-4 37 -4 43l-1 50v59l3 57zM364 341l10 -63q4 -34 4 -86q0 -79 -22 -157h-2l-3 102l1 68l3 59l3 24l2 26q1 11 4 27zM506 25l63 -1l65 -4l-2 -23l-100 13l-103 11l15 2zM320 21l2 -22l-67 1l-88 4l-85 6l15 4l57 5l47 2l53 1h24
q24 0 42 -1zM190 563q-54 -58 -72 -93l2 -258l-1 -117h8l8 173l6 197q7 25 20 48q22 40 29 50zM461 536l-23 -6l4 -89l1 -101v-192l-1 -46v-2h6l7 118l5 125l3 147z" />
    <glyph glyph-name=".notdef" horiz-adv-x="500" 
d="M12 0v665h475v-665h-475zM88 618l162 -243l161 243h-323zM60 575v-484l40 61l80 120l41 61zM440 575l-162 -242l162 -243v485zM411 48l-161 242l-162 -242h323z" />
    <glyph glyph-name=".null" horiz-adv-x="0" 
 />
    <glyph glyph-name="nonmarkingreturn" horiz-adv-x="333" 
 />
    <glyph glyph-name="space" unicode=" " horiz-adv-x="300" 
 />
    <glyph glyph-name="exclam" unicode="!" horiz-adv-x="292" 
d="M281 665l-6 -32l-33 8q-1 0 -2.5 0.5t-3 0.5t-4 0.5t-4.5 0.5l-39 6q-3 1 -13 2t-17 2q-21 1 -26 2q42 11 113 11h25zM199 619l65 -20l5 -2l-26 -92l-20 -63l-27 -79l-30 -71q-9 -23 -27 -54q-14 25 -25 51l-20 45l-21 58l-25 74l-29 97q-2 10 -3 16l-2 8l-2 9
q11 6 35 14q44 14 47 16q31 11 43 8zM36 415l34 -84q1 -3 6.5 -14.5t9.5 -20.5q1 -2 4 -8.5t4 -9.5t2.5 -6l2.5 -5t1 -3l24 -49l-8 -4q-21 -9 -31 -14l-21 -11q-1 -1 -9 -4q2 4 5.5 8t5.5 8l12 15l4 5q-1 3 -2.5 9t-3.5 13q-1 2 -2.5 8t-2.5 9l-15 58l-17 76zM217 376
q1 -7 1 -14q0 -36 -14 -98q-7 -31 -19 -65q-15 6 -29 14l32 80zM244 372l7 -60l3 -82l-4 -72l-36 25l16 90zM244 113q-34 -34 -101 -79l-9 -5q-72 32 -112 80q43 42 110 76q62 -23 112 -72zM14 83l13 -10q46 -34 76 -52q-36 2 -58 8q-20 28 -31 54zM168 26l85 57
q0 -1 -0.5 -4.5t-1.5 -4.5l-3 -13l-2 -12q-2 -3 -3 -9l-15 -4zM104 570l-31 -9l13 -56l23 -79l26 -72l2 5l-15 66l-9 56z" />
    <glyph glyph-name="quotedbl" unicode="&#x22;" horiz-adv-x="319" 
d="M303 622l-6 -87q0 -1 -1 -5q-1 -3 -1 -6l-5 -36q-3 -24 -9 -42l-4 86l-9 91h10h15zM143 619q8 -48 8 -103q0 -31 -2 -55l-67 -1q-1 6 -1 11l1 60q0 15 -2 43q0 5 -1 14.5t-1 14.5l-1 13l5 1q24 4 41 4q2 0 20 -2zM52 620q3 -7 4 -46l1 -45q0 -11 -2 -30q0 -8 -2 -20
l-1 -13q-13 -12 -35 -14l18 77zM79 438l49 -1l27 1h1l2 -1l-6 -3l-24 -6q-20 -7 -43 -27zM242 622q9 -54 9 -103q0 -6 -2 -56h-68q0 2 -1 11l2 66q0 31 -7 79l6 1q27 3 42 3q10 0 19 -1z" />
    <glyph glyph-name="dollar" unicode="$" horiz-adv-x="529" 
d="M201 685q6 -20 7 -39l-96 -34q15 11 24 17q18 11 43 36l15 14q3 3 7 6zM369 681q30 -39 55 -60l13 -10q3 -3 7 -5l-88 35q6 21 13 40zM340 674l-2 -6l-8 -40l-2 -6l57 -20l25 -8q38 -13 65 -27q3 -2 13 -7q-23 -58 -61 -106q-47 49 -112 91q-36 -22 -51 -43q3 -22 5 -30
l16 -6q105 -42 177 -105q10 -9 26 -52q18 -49 23 -89l-10 -26q0 -1 -5 -10t-9 -17l-10 -20q-6 -11 -20 -34q-12 -21 -18 -24l-9 -2l-86 -32l9 -55q-35 -7 -66 -7q-28 0 -48 3q1 9 3 25q1 5 3 17l1 9l-79 32q-18 7 -67 32q-20 9 -34 18q40 71 82 112q5 -4 9 -8l31 -36
q11 -14 32 -29q18 -14 19 -15q4 -4 6 -4q10 0 37 25q14 13 25 28q-7 14 -25 32l-24 8q-50 15 -72 25q-11 4 -35 14q-17 7 -24 12.5t-17 20.5q-30 46 -36 60l-18 38q-6 12 -6 19q0 4 1 10q5 29 11 51l17 49q11 32 19 36q17 10 55 24l16 5q4 2 8.5 3.5t5.5 1.5l51 13
q0 2 -0.5 5t-0.5 4q-3 31 -6 44q24 3 46 3q45 0 67 -6zM68 609l-22 -59l-10 -31l-17 -61l1 54q0 3 1 19.5t2 26.5q1 16 1 37l8 2l20 6q4 3 16 6zM498 520q-1 -6 -8 -28q-12 -36 -12 -77q0 -4 2 -26l-47 26l45 71zM319 519l34 -49l7 -9q1 -1 2.5 -3.5t2.5 -3.5l-10 5
q-41 21 -71 32q22 20 35 28zM18 434q8 -24 12 -33l13 -31q3 -9 7 -17q-12 -35 -16 -57l-11 -47l-4 108zM88 289q12 -12 33 -23l11 -6q-14 -14 -32 -36l-22 -30q0 -2 -6 -8l9 66zM192 238q38 -10 80 -29q-18 -10 -42 -19q-18 18 -38 48zM513 175l1 -3l-7 -57l-36 -28l1 4
l16 31zM54 105l86 -38l70 -29l-10 1l-78 15l-63 16l-18 5q4 12 9 23zM372 39l80 33q-4 -3 -21 -17.5t-26 -22.5l-12 -10l-15 -15q-2 10 -3 14l-1 9zM112 14l98 2q-1 -14 -7 -28l-29 7l-57 16zM187 572q-45 -17 -60 -28q-17 -47 -24 -84q-3 -18 -4 -19q-1 -4 -1 -9
q0 -8 21 -43q14 -25 31 -48q8 -11 29 -20l52 -23l98 -36l1 -2l4 -8q12 -25 18 -47v10q0 22 -6 55l-85 36l-53 26l-13 8q-16 8 -19.5 11t-15.5 21l-13 20q-24 35 -24 50q0 6 2 12q0 2 5 30q9 34 12 44l2 8q24 23 44 35v1h-1z" />
    <glyph glyph-name="percent" unicode="%" horiz-adv-x="497" 
d="M81 634l-8 -5q-44 -26 -67 -43l7 35q41 13 64 13h4zM401 635q41 -20 70 -50q-19 -19 -28 -32l-64 -89l-51 -69q-36 -50 -37 -52q-5 -6 -14 -18.5t-13 -18.5q-6 -9 -11 -15.5t-7 -9.5q-18 -24 -21 -29q6 4 25 15.5t31 18.5q11 6 26 7l29 2l32 -1q21 -1 30 -5t43 -29
q31 -22 34.5 -27.5t4.5 -26.5v-36v-10q-2 -11 -2 -25q-1 -20 -7 -26q-11 -13 -37 -37l-22 -18q-13 -12 -29 -14q-28 -4 -59 -4q-24 0 -44 10q-29 15 -43 27l-12 9q-14 12 -17 26q-8 32 -8 81v17v11l-98 -135q-17 -24 -29 -54q-37 15 -65 40l40 50l213 308q-16 -12 -40 -25
q-20 -12 -30 -14t-40 -2q-27 0 -36.5 2.5t-31.5 16.5q-24 13 -49 35q-11 11 -13 35l-1 34l1 26q0 17 4 34q13 15 58 44q22 13 28 15t26 3l20 1h14h21l26 -2q19 -1 41 -24l17 -16l9 -10q7 -8 8 -17l4 -30q0 -3 2 -51l64 93q29 42 38 61zM468 515l-38 -80q-23 -46 -41 -111
q-18 3 -36 3h-13q3 6 3 8l11 18l5 10l25 40l41 56zM456 408v-23q0 -51 17 -101q-28 23 -53 34l25 65zM51 383l4 -2l30 -14q1 0 4 -1.5t5 -1.5q-33 -50 -58 -107v8q0 11 1 19l5 46zM170 356h6l-50 -78l-36 -54l-46 -61q6 18 12 32l6 14l2 4l23 49l45 82q0 1 2 4t3 5zM491 97
q0 -4 -0.5 -9.5t-0.5 -7.5q-1 -8 -3 -10.5t-15 -8.5l-28 -12l-5 -2q-5 -2 -9 -3zM148 90q16 -26 48 -45q-23 0 -62 10l-8 2q5 9 22 33zM171 579h-12q-3 0 -23 -2q-4 -39 -4 -71q0 -27 8 -65q19 0 34 3l1 21v64zM321 235q-3 -25 -3 -63q0 -47 7 -78l31 -1q6 39 6 78
q0 33 -4 64h-17h-20z" />
    <glyph glyph-name="ampersand" unicode="&#x26;" horiz-adv-x="710" 
d="M403 688l32 1l8 -7q38 -38 59 -73l-25 14q-2 0 -11 6l-27 13l-41 17q-17 10 -26 10l-72 -2l-28 -2q34 10 40 11l30 6h5l3 1zM227 662l-1 -1q-56 -34 -98 -86q-1 -1 -5 -7q11 32 31 66q7 10 7 12q5 8 13 9q4 0 8 1q14 3 45 6zM490 574q8 -21 8 -40q0 -34 -10 -46
q-36 -49 -89 -94l36 -52q14 -22 36 -48l7 4l6 6l11 11q15 13 42 44q46 -18 102 -68q-31 -28 -51 -40l-50 -33l-2 -1q-1 -1 -3 -2.5t-4 -2.5l45 -54q4 -6 18 -21l16 -18q43 -47 85 -79l-18 2l-80 5l-60 1h-61l-81 -3q-10 10 -20 23q-2 2 -12 14q-27 -16 -47 -24l-66 -25
q-28 -12 -43 -12q-24 0 -97 32q-25 12 -40 21q-18 46 -18 131v5.5v6.5v5l1 24q0 13 1.5 17t9.5 12q9 9 19 21l5 5t4.5 5t3.5 4t4 3l41 36l11 8q-4 6 -5 7q-10 14 -13 20q-13 33 -13 83q0 44 6 58q2 5 23 28q29 31 61 49q32 20 102 34l19 4q6 1 11 1q7 0 19 -4l30 -9
q50 -16 100 -54zM531 484q0 -2 0.5 -4t0.5 -4l1 -1l5 -26q4 -20 5 -26q-24 -9 -49 -9q-17 0 -31 5q22 24 37 39q15 14 31 26zM88 480q0 -3 0.5 -5t1.5 -3v-2l2 -18q3 -40 23 -90l-23 -18l-44 -38l-15 -14q45 90 55 188zM440 388q33 -19 62 -19q6 0 11 1q-5 -9 -8 -12
l-20 -21q-4 -4 -7 -8q-20 27 -38 59zM641 367l10 -54l-7 6q-40 30 -57 40l-18 10l-8 4q7 1 16 1q29 0 64 -7zM656 272l7 -37l-35 17l8 5q4 4 7.5 6t6.5 4.5t6 4.5zM567 202q57 -39 87 -56l21 -11l3 -47l-20 16q-56 44 -91 98zM17 63l28 -14l55 -26l37 -14q-3 -1 -6 -1
q-18 0 -53 8l-39 8q-3 0 -13 3l-2 9q-4 12 -7 27zM379 23l114 -2l75 -5l13 -2l-14 -3l-59 -5l-81 -4l-108 -2l-91 1l8 3l36 10q32 10 81 33zM221 568q-21 -15 -43 -37q-4 -5 -4 -12v-3q-1 -2 -1.5 -7t-0.5 -10q-2 -14 -2 -28q0 -22 2 -42l2 -15q2 -16 11 -27q5 -5 21 -27
q2 -3 7 -9t7 -9q5 -8 31 -41l18 -23q53 -68 98 -122q30 -36 59 -68h9l-84 107l-57 77l-86 122q-11 16 -13 25q-5 35 -5 51q0 39 5 54.5t26 43.5zM357 566q-20 -11 -41 -30q11 -37 29 -66q33 21 57 49q-14 29 -45 47zM146 303q-7 -7 -15 -15.5t-10 -10.5l-20 -23
q-9 -11 -9 -25v-34q0 -10 1 -20q1 -19 3 -27l3 -23q2 -17 4 -20.5t12 -8.5l24 -12q16 -8 36 -15q-11 7 -13 8l-21 16q-17 12 -19.5 16.5t-4.5 20.5l-2 22q-1 12 -1 29l1 42q0 24 6 35l9 18q8 14 17 27h-1zM219 265q-15 -16 -15 -25q0 -37 19 -65q19 -30 33 -30q6 0 21 5
l14 5q1 1 9 4zM373 524q-5 -13 -16 -26q-3 21 -13 35q4 5 10 5q12 0 19 -14z" />
    <glyph glyph-name="quotesingle" unicode="'" horiz-adv-x="218" 
d="M201 622l-5 -87q0 -1 -0.5 -2.5t-1 -4t-0.5 -4.5l-2 -17q-7 -48 -12 -61l-4 86l-9 91h10h15zM143 619q8 -48 8 -103q0 -31 -2 -55l-67 -1l-1 11l1 66q1 29 -6 79l6 1q25 4 43 4zM52 620q2 -14 4 -37q0 -9 0.5 -25.5t0.5 -20.5q0 -20 -5 -60l-2 -17l-33 -8l18 77zM148 641
l-81 1l8 3q29 8 38.5 12.5t27.5 20.5z" />
    <glyph glyph-name="parenleft" unicode="(" horiz-adv-x="262" 
d="M122 772l78 -6l19 -4q-8 -2 -11 -3q-33 -9 -67 -10l-27 -66l-33 -87l-10 -22l21 92l21 75zM197 729l39 2q1 -7 1 -16q0 -18 -3 -33q-29 -9 -63 -25v-9l-6 -119l-3 -109v-89l2 -108l4 -60l7 -86l10 -72q35 -17 51 -24q2 -6 3 -8q1 -3 2 -6.5t1 -5.5l1 -2l1 -13q0 -1 2 -9
q-11 -1 -25 -1q-20 0 -40 2l-16 1l-34 52l-21 59l-28 91l-23 93l-22 102l25 110l23 84l20 66l23 67l37 62zM217 650l-23 -211l-8 -86l-2 28l-1 93l3 88l7 80zM190 266l12 -114l8 -57l12 -78l-19 8l-8 49l-5 64l-2 59l1 58zM54 141l8 -18l29 -84l28 -67l22 -50l102 -10
q-3 0 -6 -0.5t-4.5 -1t-2.5 -0.5l-34 -4h-5l-73 -1l-17 54l-22 75z" />
    <glyph glyph-name="parenright" unicode=")" horiz-adv-x="259" 
d="M158 780l19 -62l16 -66l11 -56l15 -101l-29 83l-33 110l-19 68q-25 4 -73 7q-6 1 -13 1l-8 1l-3 1h-5v1q19 5 84 11q7 0 18.5 1t19.5 1zM36 734q5 0 12 0.5t9 0.5t6 -0.5t12.5 -1t15.5 -0.5q4 -1 14.5 -1.5t15.5 -0.5l34 -106l26 -95l20 -80l15 -76l6 -36l-28 -120
l-27 -104l-26 -92l-23 -73h-11l-33 -2q-5 -1 -19 -1q-10 0 -20 1q-3 21 -3 35v11q23 14 39 25l9 7l7 5l7 135l4 110l2 111l-2 103l-3 92l-7 87q-21 13 -47 25l-7 3q0 8 1 19t1 19zM38 663q9 -2 27 -7l2 -14q9 -75 11 -175l1 -77l-2 -13l-16 133l-16 118zM77 286v-30
q0 -72 -6 -165q-3 -26 -5 -45l-30 -12l3 16q17 83 27 161l6 43q0 2 1 6t2 11.5t2 14.5zM192 136q0 -25 -5 -75l-10 -89q-3 -27 -8 -58q-18 0 -35 3q-20 2 -28 2q-17 2 -33 6l5 2l51 3q6 0 12 1l19 85l17 68z" />
    <glyph glyph-name="asterisk" unicode="*" horiz-adv-x="285" 
d="M214 668l47 -9l5 -35v-13l-23 28zM42 661l61 5q-45 -18 -76 -53zM189 641l-11 -27l-8 -31q24 20 36 46q31 -20 44 -70h-10q-28 0 -53 -14q19 -9 41 -14l26 -4q-11 -42 -48 -70l-18 24l-29 30l4 -30q2 -13 12 -31q-12 -4 -29 -4q-20 0 -46 10q1 2 3 4.5t2 3.5q1 2 3 5
t3.5 4.5t1.5 2.5l1 4l12 33q-3 -2 -6 -5.5t-4 -3.5l-7 -6q-20 -18 -29 -37q-17 14 -25 27t-14 36q29 0 53 14l-30 14l-31 8q9 42 50 71q7 -19 10 -22l6 -9q3 -3 6 -7q3 -3 3 -4l21 -19q-3 39 -27 67q27 17 48 17q17 0 39 -13zM17 493l6 -8l18 -23q3 -4 26 -23l5 -3h-11
l-39 3l-3 18zM250 472l19 22l-9 -49l-30 -5h-12l12 11z" />
    <glyph glyph-name="plus" unicode="+" 
d="M603 254h-209v-219h-85v219h-209v86h209v220h85v-220h209v-86z" />
    <glyph glyph-name="comma" unicode="," horiz-adv-x="269" 
d="M167 197q36 -5 85 -18q0 -19 -2 -32q-31 23 -83 50zM108 190q-35 -14 -61 -31l-22 -14l-1 -1q-2 0 -4 -1l-4 -2q3 16 7 34q5 1 11 3q20 6 37 9t24 3h13zM247 111q-32 -34 -58 -55.5t-77 -56.5l-7 -5q-21 13 -33 24l3.5 3.5t2.5 3t2.5 2.5t2.5 2q16 16 20 21l-13 8
q-33 21 -57 41q-2 1 -7 6q26 29 73 59q25 17 31 17q4 0 30 -13l37 -20q2 -1 26 -18q15 -12 16 -13q4 -2 8 -6zM27 73q11 -10 15 -11l20 -15q3 -2 7 -5l-37 -31q1 11 1 21q0 21 -6 41zM238 60q-2 -12 -4 -18l-3 -14l-4 -12l-63 -19l-22 -5l67 46z" />
    <glyph glyph-name="hyphen" unicode="-" horiz-adv-x="448" 
d="M296 392l129 1l-1 -23h-10h-9t-21.5 -0.5t-28.5 -0.5q-20 -1 -55 -1h-32q-60 0 -114 2q-18 1 -32 1q-20 1 -26 3l8 2l56 7l57 5zM81 388l-18 -53l-18 -60l-15 -63l-12 -53l-1 -1l8 86l8 59l3 13l3 21l5 25q2 4 3 15q26 9 34 11zM399 350l-53 -114l-173 -2l-58 -3l-42 -3
q10 57 34 109l70 6q3 0 12.5 0.5t17.5 0.5q2 0 15.5 -0.5t23.5 -0.5h46q53 0 107 7zM431 336l-18 -52q-2 -4 -5 -16l-4 -16q-6 -23 -11 -62l-35 1l41 88l28 52zM335 215l-12 -24l-99 2l-141 7l63 7l73 5l75 3h41zM322 167l69 -3q-1 -4 -1 -10v-9l-101 6l-82 4
q-11 0 -24.5 0.5t-15.5 0.5h-42h-9q-8 1 -16 1q16 5 33 6l45 3l72 2z" />
    <glyph glyph-name="period" unicode="." horiz-adv-x="259" 
d="M142 195h6q23 0 76 -15l9 -3q3 -9 6 -32q-33 20 -54 30zM118 193q-3 -1 -6 -2.5t-4.5 -3t-2.5 -1.5l-18 -9q-38 -21 -66 -40q2 13 11 34l9 3l42 13q21 6 32 6h3zM242 106q-24 -24 -39 -35l-32 -23q-29 -19 -32 -19q-1 0 -7 2l-2 1q-2 1 -6 2.5t-8 3.5q-40 15 -93 60
q28 31 62 52l11 6q26 17 31 17t17 -5l27 -12q30 -14 71 -50zM17 73l42 -26q13 -9 53 -28h-7l-10 2q-1 1 -18 4q-20 4 -48 11q-7 16 -12 37zM239 68q1 -4 1 -8q0 -3 -2 -19l-1 -8q-45 -13 -73 -15q16 8 32 18q24 16 43 32z" />
    <glyph glyph-name="slash" unicode="/" horiz-adv-x="460" 
d="M320 739l29 -3l-14 -48l-41 -97l-8 -17l17 63zM13 -45l163 335l193 426l5 13q30 -9 72 -33l-93 -180l-68 -140l-197 -427l-8 -24zM170 76l-28 -117l-6 -39h-28l20 58z" />
    <glyph glyph-name="zero" unicode="0" 
d="M412 668q18 0 81 -11l73 -14q28 -7 54 -14q8 -16 18 -48q15 -49 22 -87l-75 105l-59 25l-67 27zM279 664l-82 -29l-55 -23l-22 -11l-47 -63l-31 -47l-24 -42l2 11l17 54l22 58l13 30l6 17q0 1 2 5.5t3 7.5l15 5l45 9l57 10l62 7zM349 650h6l68 -20l29 -10q31 -11 37 -14
l43 -19q23 -10 30 -16t23 -29l20 -29q2 -2 5 -7.5t9 -15.5t11 -18q19 -33 19 -40l1 -57l-5 -94l-6 -67q-43 -59 -98 -105q-19 -17 -68 -39q-58 -27 -115 -47l-33 11l-73 28q-47 18 -73 35q-7 4 -26 20q-6 6 -14 13.5t-9 8.5l-44 46q-19 20 -23.5 31t-8.5 47l-6 50l-1 80v23
q0 28 13 53q22 44 63 85l16 16q15 15 20 16l66 26l49 17zM679 365l2 -12l4 -139l-3 -84l-59 -32l-80 -40q-43 -22 -97 -38l47 29l27 17q25 15 32 20l14 11l10 8l40 38l43 45l10 74l8 75zM49 171q43 -44 62 -60q46 -38 88 -60l51 -28q4 -2 9 -5l-21 5q-16 4 -39 13
q-32 12 -48 19q-24 11 -32 16l-55 34q-6 3 -7 5.5t-3 14.5l-4 36v3q-1 4 -1 7zM69 59l71 -37l56 -26l17 -7l-13 1q-1 0 -28 5l-23 6l-38 10q-23 5 -28 9.5t-12 29.5q0 1 -2 9zM400 583l3 -5l13 -18q18 -24 30 -50l8 -67l2 -66v-54l-3 -71l-5 -70q0 -7 -8 -23l-9 -18
q-1 -1 -5 -8t-8 -13l-5 -9q22 22 28 29l15 18q10 12 11 16l2 2l1 1l5 87l3 114l-1 80q0 3 -0.5 10t-0.5 12q-1 6 -1 13q0 8 -4 14q-27 40 -71 76zM393 521q-15 24 -45 49q-26 -14 -47 -37q-11 -11 -13 -16t-3 -23q-1 -2 -1 -8q-3 -20 -3 -33l-2 -53l2 -63l4 -68l9 -90
q2 -15 22 -34q15 -14 35 -23q17 13 25 23l11 13q9 11 10 25l2 48l2 53v67l-2 80zM174 542q-32 -37 -42 -51l-27 -42q-11 -16 -11 -31q0 -11 1 -19v-29q0 -48 3 -73q4 -33 4 -46q1 -15 9 -24l22 -26q4 -6 42 -43l8 -7l-27 38l-21 33q-8 12 -12 22l-2 14q-3 21 -3 35l-2 54
l2 73l9 27l21 46zM343 537q4 -4 4 -13q0 -14 -13 -43q-5 -12 -11 -34q-2 -8 -5 -17.5t-3 -11.5l-9 -39q0 -2 -2 -7.5t-3 -9.5l-1 11q0 13 1 29l1 11q0 16 6 66q4 30 35 58zM378 445l2 -46l-3 -78q-3 -77 -33 -160q-25 15 -25 54q0 12 2 22l14 58z" />
    <glyph glyph-name="one" unicode="1" horiz-adv-x="381" 
d="M333 661l28 8l2 -106l-1 -109l-7 -145l-8 -124l-2 -8l-1 14l-8 229l-4 198zM326 46l-71 2h-60l-59 -2q-8 0 -30 -2q-7 -1 -15 -1h-5l2 18l3 58l2 105l1 79l-3 143l-9 3q-29 10 -42 14q-9 30 -14 57l9 6q38 26 56 36l45 23l67 29l98 38l2 -13q10 -66 11 -102l6 -194l2 -42
zM87 603l109 33l-14 -7l-68 -33q-22 -11 -40 -21q-3 -2 -11.5 -6.5t-14.5 -7.5q-2 -1 -11 -6t-15 -8l-4 28l7 3zM27 423l32 -5l4 -84l1 -72v-60l-1 -58l-1 -11l-11 58l-11 85l-10 99l-3 34v12v2zM302 23l9 -1l-121 -12l-76 -11l-27 -5l-1 25l68 6h16l29 1h19q23 0 36 -1z
M169 529l-30 -12l2 -132l1 -117l-1 -176h2q2 0 4 1l8 137l9 175z" />
    <glyph glyph-name="two" unicode="2" horiz-adv-x="543" 
d="M457 658l4 -8q19 -35 34 -86q-2 2 -4.5 5t-4.5 5.5t-3 3.5q-30 34 -31 35q-9 8 -11 11q-5 7 -10 9l-56 18l-74 21q65 -2 100 -6zM188 653l-64 -28l-51 -26l-23 -14q-1 4 -9 30l-1 3l9 3q34 12 37 13l31 7l16 3zM296 125q96 6 180 45q37 -51 52 -129l-225 9h-169l-71 -3
q-37 -1 -47 -2q15 58 42 105l27 46l32 47l47 62l61 77q23 28 26 31q12 13 14.5 18.5t3.5 19.5v27l-2 36q0 11 -6 17q-17 19 -40 31q-5 -4 -15.5 -12.5t-27.5 -21.5q-47 -39 -58 -53q-3 -4 -10 -14q-32 42 -50 99q61 39 127 60q67 21 93 21q42 0 119 -33q30 -13 45 -27
q32 -32 40.5 -51t8.5 -60q0 -27 -7 -64q-5 -21 -36 -58q-51 -59 -109 -146q-18 -27 -45 -77zM241 500q5 -20 5 -42q0 -8 -1 -12l-5 -7l-11 -13l-29 -34q-62 -76 -140 -185l4 10l3 5l8 15l10 20q3 8 15 27l26 45l37 59zM62 488l34 -69l21 22l12 12l16 15q16 14 23 18l-27 -41
l-35 -55l-23 -41q-6 -8 -8 -14l-10 69l-3 65v19zM42 431l2 -60q2 -44 12 -98l1 -9q-3 -5 -4 -5l-13 -17q0 -1 -1.5 -3t-3.5 -5t-4 -5l-1 62l3 63l6 66zM507 359l-4 -88v-103h-1q-9 20 -28 53q9 81 33 138zM473 337l-1 -3q-23 -50 -34 -95l-8 -34q-1 -3 -2 -8
q-21 -13 -48 -24l-10 -3q4 10 14 29l25 43l31 49q10 15 21 30zM489 20l45 -4l6 -33l-59 7l-97 9l-99 8l-110 6l-29 3l-65 3l75 6l57 3h65h16q47 0 133 -4zM271 583q19 -21 35 -44q5 -7 6 -19l2 -37v-13v-15l-1 -26q-1 -21 -31 -50q-9 -10 -33 -44q-8 -10 -22 -30
q-1 -2 -26 -37q-3 -4 -13 -18.5t-14 -21.5l-32 -51l-39 -65l3 -3l5 10l29 45l43 60l62 79l55 65l15 17q13 14 16 21.5t4 36.5l2 46l-1 16q1 24 -1.5 30.5t-15.5 15.5l-25 17q-9 7 -23 15z" />
    <glyph glyph-name="three" unicode="3" horiz-adv-x="549" 
d="M74 651l89 -1l95 -3l69 -4l-115 -6l-108 -2q-15 -28 -27 -59l-17 -49q-1 8 -1 18q0 49 15 106zM122 616l213 -1l183 2l-5 -8q-30 -52 -47 -75l-33 -42l-46 -51l-29 -29q33 -7 75 -22q15 -6 35 -24q9 -8 22 -21l11 -13q21 -24 23 -34q4 -34 4 -54q0 -31 -4 -55l-5 -29
q-1 -8 -5.5 -13t-22.5 -20q-61 -49 -117 -72l-53 -21q-23 -10 -37 -10q-2 0 -4.5 0.5t-7 1t-8.5 0.5l-29 6q-3 1 -29 8q-4 1 -37 12l-50 22l-17 8l-51 30l-10 7q13 29 24 45l14 19q17 25 28 30q60 -63 128 -100q26 32 35 47l19 30q7 11 9 27l1 15q1 6 1 18v11l-1 18
q-1 15 -5.5 21t-35.5 32q-20 16 -24 18.5t-12 2.5q-52 0 -118 -22q20 48 44 83l29 42l36 47l24 28q-77 -5 -169 -42l27 71l15 33q7 14 12 23zM511 559q-31 -77 -74 -148q-1 0 -4 1q-2 0 -3 1q-24 5 -32 6l63 78q3 4 11 13.5t11 13.5l13 17q5 7 15 18zM534 533q0 -6 -9 -41
q-11 -42 -11 -91q0 -22 2 -43q-18 18 -46 39l38 79zM177 497l-52 -78q0 -1 -1.5 -3.5t-4 -6.5t-4.5 -8l-12 -19l-11 -22q-1 -1 -5 -7l20 62q4 12 7 18q12 27 14 33q3 13 9 20zM92 467q-1 -2 -3 -5t-2 -4l-4 -8q-28 -57 -47 -128h-1q3 63 20 125q6 4 7 4l12 8q14 8 16 8h2z
M208 324q-2 -2 -8 -4q-3 -1 -7 -3l-36 -16q-41 -18 -71 -37l-33 -21q-1 0 -9 -5q3 4 3 8q8 24 11.5 28.5t19.5 14.5q22 13 58 23.5t59 11.5h13zM266 296q11 -18 11 -47q0 -6 -1 -11q-9 12 -18.5 16t-31.5 4q-39 0 -90 -12q57 34 130 50zM70 206h2q-29 -30 -46 -66q1 21 6 46
q10 6 38 20zM157 198q7 -2 9 -3l20 -8q28 -11 65 -17q-10 -16 -24 -30q-41 29 -70 58zM18 106l84 -51q14 -7 39 -21l10 -5l-5 -1q-4 0 -9 1q-1 0 -4.5 0.5t-9.5 1t-11 1.5q-18 1 -49 7l-25 6l-9 2q-11 37 -11 55v4zM499 110q-5 -16 -18 -37l-14 -24l-10 -14q-41 -8 -81 -10
q8 6 10 6l29 17q47 29 84 62zM198 395h7l37 45l16 19l48 50l33 31h-5l-23 -1q-1 0 -9 -2q-61 -64 -104 -142zM293 356q8 -9 21 -25l14 -20q6 -8 7 -19l1 -22v-12q0 -28 -1 -36l-2 -29q-2 -15 -8 -25l-22 -31q-5 -9 -26 -33l38 30q4 3 16 15q2 2 5.5 5t5.5 4q5 5 6 12l2 10
q8 48 8 96q0 16 -4 24t-21 23q-2 1 -12 11q-15 14 -28 22z" />
    <glyph glyph-name="four" unicode="4" horiz-adv-x="609" 
d="M353 661q24 -1 55 -5q21 -2 39 -8q-28 -5 -60 -5q-18 0 -30 1l-15 1zM305 661l-75 -114l-56 -88l-39 -59l25 65l31 67l34 68l31 57l9 1q30 3 40 3zM189 639l-43 -102l-44 -110l-43 -115l10 55l18 68l17 55l26 76l20 53q8 5 12 7l19 9zM478 621l-5 -60l-3 -81v-111l3 -123
l120 4q-27 -54 -64 -96q-24 9 -55 9l1 -71l2 -45l-76 2l-58 1l-82 -3l5 63l1 42l-95 -7h-58h-5l-30 2q-21 1 -54 7l15 36l26 52l38 68l39 63l39 57l65 90l41 54l35 46l24 -2q22 -2 38 -2q26 0 93 5zM505 616l3 -89l6 -74l7 -66l11 -60l13 -51q-4 -1 -8 -1l-18 -2
q-16 -2 -21 -2l-5 75l-2 61v68l1 27l5 58zM554 464l12 -68l17 -75l11 -41h-20q-21 63 -21 160q0 14 1 24zM589 132l-32 -87l-19 -60l-21 3q27 86 72 144zM502 131q20 -5 36 -15l-24 -63l-7 -23q-7 24 -7 69q0 21 2 32zM154 117l89 9q-1 -8 -5 -28l-64 -2l-58 3l-75 12l-23 6
l75 -2zM503 17l-6 -24l-83 15l-91 12q23 5 61 5h24q59 -3 95 -8zM343 536l-32 -52v-8v-7l-1 -36l-1 -332h4l17 266zM268 400l-7 -9l-26 -52l-11 -24l-23 -63q30 -9 62 -10l2 2l-1 22l1 73zM244 312v-46q-3 0 -6 -0.5t-5 -0.5l-3 1h-4l2 9q2 4 4 9t2 6l5 11q1 2 5 11z" />
    <glyph glyph-name="five" unicode="5" horiz-adv-x="577" 
d="M410 665l121 -3l27 -2l-67 -8l-74 -6l-78 -3l-74 -1l-101 1q-3 1 -8.5 1.5t-8.5 0.5l18 4l56 8l74 5l63 2zM466 624l63 3l-3 -9q-17 -46 -23 -83l-11 -70q-36 -6 -74 -6l-55 2l-89 9l-27 6q-33 -23 -63 -94q65 29 116 33l39 4q12 1 22 1q15 0 61 -19q22 -11 69 -48
q24 -18 28 -36l4 -21q6 -22 6 -47q0 -46 -7 -83q-3 -18 -54 -60q-68 -56 -113 -73q-35 -14 -53 -14q-8 0 -23 3l-33 7q-25 7 -33 10l-48 17l-19 8q-37 15 -71 36l-42 24q25 56 71 103q44 -54 111 -100q19 7 36 17q12 7 15 11.5t7 21.5l5 24l4 44v6q0 10 -19 30
q-13 14 -19.5 17t-22.5 3q-61 0 -98 -42q-21 6 -54 27q-8 6 -8 18l-1 45q0 17 2 38q0 6 0.5 12.5t0.5 7.5l7 52l13 65q5 22 8 32q2 7 4 16l3 13.5t1 5.5q5 19 10 28h10h40l159 -1zM37 623l38 -2l-18 -85l-13 -79l-9 -72l-5 -58l-2 -38q0 -1 -0.5 -4t-0.5 -5l-1 9l-2 59
l1 112l5 71zM544 555q-10 -67 -10 -119q0 -37 6 -84l-28 16l1 29q3 84 31 158zM250 448l69 -9l-13 -2l-57 -13l-23 -7l1 3q9 14 23 28zM491 438l-3 -52q-38 30 -110 50zM226 281q29 -21 38 -42l-14 3q-18 5 -36 7l-52 3q28 23 63 28zM25 215l46 8q-25 -27 -44 -66
q-2 16 -2 58zM146 222l27 -9q43 -15 51 -17t27 -1q-11 -23 -31 -38l-7 5q-39 26 -67 60zM553 150q0 -26 -2 -40l-7 -4l-43 -30q-10 -5 -39 -23q-30 -16 -47 -22l47 37l44 38l25 23q15 14 22 21zM44 85l61 -30l54 -23l27 -8q-51 0 -122 17l-7 1q-4 4 -8 19l-3 15zM471 25
l80 46l-2 -9q-2 -7 -4.5 -16.5t-4.5 -15.5q-26 -5 -69 -5zM145 567l-19 -73l-12 -64l-7 -56l-1 -32l5 -1l5 33l12 56l19 64l25 73h-27zM281 328q19 -17 34 -39t15 -31q0 -8 -1 -17l-6 -36q-3 -22 -5 -30l-9 -41q-1 -4 -2 -9q39 75 53 139q-32 43 -79 64z" />
    <glyph glyph-name="six" unicode="6" horiz-adv-x="655" 
d="M600 636q-2 -7 -9 -25l-30 9l-60 17l-56 12q10 1 24 1q64 0 131 -14zM358 638l57 -9l58 -14l66 -20l39 -13q-22 -50 -55 -98l-5 -7l-9 7q-46 33 -74 49l-18 9q-24 13 -45 20q-29 -21 -49 -44q-15 -16 -18 -33q-7 -33 -7 -62v-15h2q42 21 69 28l54 14q12 4 17 4
q6 0 34 -13q51 -25 94 -65l12 -12q15 -14 18 -19t6 -20q6 -30 6 -69q0 -33 -5 -59q-11 -29 -23.5 -46t-42.5 -46q-27 -25 -49 -34l-39 -15q-7 -3 -48 -14q-55 -16 -68 -16q-23 0 -100 34q-69 32 -101 54q-12 9 -34 47q-20 35 -35 71q-10 25 -10 55q0 87 20 171l5 22
q3 11 9 18l20 21q61 64 138 102q47 22 77 20zM220 634q-3 -2 -6.5 -4.5t-6.5 -4t-4 -2.5q-59 -37 -86 -64l-24 -24q-29 -31 -32 -46l-18 -73l-11 -58l-5 -32q-2 32 -1 35l1 44v15l6 53l13 78q47 34 99 55l44 17zM610 574v-1q-14 -73 -45 -132q-12 8 -17 12q-5 5 -9 8l22 30
l29 48zM643 526v-13q0 -49 -6 -101l-4 -30l-1 -10q-8 11 -26 32l-6 7q28 50 34 76l7 31zM391 523q28 -12 44 -23l14 -10q12 -7 19 -14q-48 16 -88 16q-12 0 -27 -1q-5 0 -9 -1q26 26 46 32zM399 468q-36 -9 -79 -27l3 8q2 6 8 18q15 3 34 3q20 0 34 -2zM44 222l21 -48
q15 -35 43 -79l71 -41l20 -10q28 -12 40 -19l-1 -1q-81 12 -122 29q-9 3 -18.5 7t-13.5 6l-5 1q-11 2 -13 22l-7 28q-4 15 -7 37q-2 5 -2 12zM602 140l1 -2l-9 -22q-1 -1 -4 -8l-18 -37q-1 -6 -11 -20l-5 -7l-9 -4l-59 -14l-62 -11l-18 -2l75 30q4 2 38 18l7 3l9 9
q13 13 18 19l10.5 10.5t8 8.5t3.5 3l12 12l5 5q4 5 8 9zM85 31l43 -13l56 -15l7 -3l-27 1l-69 6q0 1 -1 2.5t-2 4t-3 6.5q-1 1 -2 5t-2 6zM250 571q-56 -31 -96 -73l-21 -21q-10 -11 -13 -30l-9 -49q-6 -44 -7 -65l-2 -37v-19q0 -11 9 -29l10 -21q24 -52 67 -90
q-30 43 -50 96q-14 33 -14 39l2 43l1 10l5 52l9 50q6 30 16 44q5 5 14 18q15 20 24 29l38 38zM387 366q33 -58 48 -104l-1 -11q-7 -66 -33 -135l-3 -9q30 43 50 101q14 40 15 57q-25 50 -76 101zM297 343q-3 -10 -3 -25l-2 -33v-53q0 -6 2 -28q3 -26 3 -32q1 -15 11 -27
q18 -19 39 -31q33 42 42 93l4 28q2 8 2 16q0 13 -11 40.5t-26 50.5q-12 4 -32 4q-17 0 -29 -3zM339 318q30 -33 30 -81q0 -14 -2 -28h-1q-13 30 -19 57l-4 21q-4 16 -4 31zM316 286q5 -21 10 -40l18 -53q4 -9 4 -22q0 -9 -4 -26q-19 26 -24.5 45.5t-5.5 64.5q0 1 2 31z" />
    <glyph glyph-name="seven" unicode="7" horiz-adv-x="543" 
d="M530 662h12l-5 -20l-58 -2l-62 -1l-79 1l76 12l60 6zM431 618l101 3q-15 -82 -16 -134q-64 -38 -111 -85q-32 -80 -46 -136q-26 -104 -26 -166q0 -15 3 -51l-28 2l-136 -2l-64 -2l2 9q13 60 24 90q11 29 17 40l20 43l35 62l31 49l48 64l47 59l-74 1h-5q-2 0 -13.5 -0.5
t-21.5 -0.5q-103 -1 -184 -58q0 6 1 12q0 1 0.5 2.5t1 4.5t1.5 7l3 14l27 109q0 2 2 7t5.5 14.5t6.5 20.5q4 11 10 22l152 -1zM34 620l34 -1l-21 -58l-19 -61q-1 6 -1 13q-1 8 -1 16l1 20v9l5 52zM495 445q-45 -59 -70 -116l-18 -44l-35 -97q6 89 44 194q39 41 79 63z
M158 427l-10 -8q-75 -56 -116 -97v9q0 20 3 33q45 50 123 63zM250 416l-4 -8l-54 -75l-84 -109l-45 -56q22 80 95 159l21 24q2 1 3 3l2 1l38 37zM453 333l-42 -189q-12 -50 -12 -115h-29q0 77 20 137l19 54l7 21q5 14 17 44l9 23q10 24 11 25zM156 246l-42 -101l-24 -69
l-10 -31l-28 -2q18 68 51 124l11 18l5 8l28 41zM177 12l70 -3l73 -6l14 -1q5 0 23 -3q1 -1 3 -1q3 -1 4 -1l-22 -3l-75 -5l-68 -2h-121l-37 1l3 20q45 6 85 4h48zM125 578l-25 -66l-12 -40l21 36l35 52l13 17z" />
    <glyph glyph-name="eight" unicode="8" horiz-adv-x="585" 
d="M169 647l-10 -6q-39 -24 -59 -40l-36 -28q-15 -12 -18.5 -17t-5.5 -18l-4 -30q-3 -14 -4 -51l-4 19l-8 58l-2 55l35 17q2 2 7 3l21 9q24 10 36 14l40 13q5 2 10 2h2zM429 644l53 -7q4 0 19 -3l28 -7q3 0 10 -3l6 -37q0 -3 0.5 -8t1 -14.5t1.5 -19.5q1 -21 1 -41
q0 -14 -1 -24l-2 10q-10 51 -17 76q-2 9 -7 22q-37 27 -93 56zM374 360l18 -4q2 0 28 -8l9 -2q48 -15 95 -40q22 -42 22 -99q0 -35 -4 -44.5t-27 -32.5q-27 -26 -52 -41t-72 -34q-80 -32 -97 -32l-18 2l-52 8q-14 1 -51 11q-29 8 -39.5 13t-38.5 28q-18 13 -46 41
q-11 9 -14 24q-2 26 -2 46q0 25 3 43l6 33q2 11 4.5 14t12.5 10l28 20q33 22 77 41q-44 26 -80 58l-16 16q-9 7 -9 17l1 26q0 22 13 70q4 13 12 19t48 29q48 26 106 42q40 10 48 10q13 0 45 -7l36 -8q59 -13 96 -38l16 -11q12 -7 15 -11.5t8 -18.5q10 -33 10 -67v-13l-2 -23
q-1 -12 -3.5 -15.5t-13.5 -11.5l-23 -16q-23 -17 -87 -40zM38 428q51 -46 81 -66v-1q-35 9 -69 27q-1 2 -6 17q-2 8 -3 14zM513 341q-35 13 -71 22q37 16 49 24l34 22q2 2 9 5q-17 -38 -21 -73zM562 397q5 -50 5 -85q0 -21 -2 -34q-9 25 -22 48zM567 156v-4v-4l-6 -36
l-5 -29q0 -4 -2 -9q-64 -24 -129 -31q90 39 142 113zM39 103l81 -61l34 -25q-8 2 -24 5q-12 3 -15 3l-53 18q-21 47 -23 60zM339 596q29 -38 34 -49t5 -33v-20l-2 -20q-1 -23 -4 -33.5t-17 -33.5q-1 -2 -5 -8q16 14 17 16l25 27q6 7 7 18l2 43l-1 20q0 12 -5 17l-20 23
q-19 19 -36 33zM291 588q-22 -16 -27 -21l-14 -16q-11 -13 -11 -28v-50l1 -25q0 -8 5 -13q15 -19 38 -36q27 22 41 37q6 7 7 25l2 25v26q1 21 -1.5 28.5t-15.5 22.5q-11 13 -25 25zM169 573q-23 -14 -35 -23l-14 -11q-9 -7 -12 -26l-4 -23q-2 -12 -2 -30v-11q23 -22 42 -35
l26 -18q8 -6 14 -8l-4 4l-3 2l-10 10q-7 6 -22 23q-6 8 -11 13q-8 9 -8 19q0 47 8 65q7 19 36 49h-1zM284 331q-30 -18 -49 -39q-2 -14 -1 -22v-29v-33l4 -41q1 -25 3 -30.5t12 -14.5q18 -17 42 -28q15 14 29 31q6 7 6 20l3 41q1 15 1 42q0 23 -3 62q-21 23 -46 42zM360 323
q21 -43 21 -96q0 -34 -5 -74q-3 -18 -16 -39l-6 -10q2 2 5 4l3 3l17 16q12 12 15 25l4 30q5 32 5 70q0 18 -7 28q-15 24 -36 43zM163 322q-25 -15 -41 -26l-14 -10q-20 -15 -24 -23t-5 -34l-2 -45q-1 -10 5 -39q32 -31 70 -56l-6 6l-5 6q-25 29 -44 53v11v18q0 55 8 73
q3 6 9 13q17 23 35 39l8 8zM290 559l-15 -67l-8 -31q-9 23 -9 41q0 20 5 29.5t27 27.5zM308 529q5 -23 5 -46q0 -17 -5 -26.5t-24 -28.5q2 30 7 49zM289 299v-9q0 -35 -8 -64l-10 -41q-4 -16 -5 -29q-11 26 -11 58q0 76 34 85zM310 254q3 -26 3 -40q0 -36 -4 -49l-4 -17
l-3 -11q0 -1 -2 -6t-3 -8q-11 2 -11 23q0 18 1 21z" />
    <glyph glyph-name="nine" unicode="9" horiz-adv-x="640" 
d="M359 662q96 -8 188 -25l9 -2l4 -10q14 -31 36 -88q16 -41 22 -63l-5 8l-16 29q-18 30 -22 36l-21 29q-13 18 -21.5 24t-37.5 15l-55 20l-70 23q-1 0 -4.5 1.5t-6.5 2.5zM173 647l-39 -24q-41 -27 -69 -50q-12 -9 -15 -13.5t-9 -21.5l-12 -34q0 -1 -1 -4.5l-3 -10.5
l-4 -14q0 -2 -1.5 -6t-1.5 -6v9l6 58q0 6 3 24l5 30l4 22q50 22 137 41zM81 123q19 35 33 52t45 44l9 8l6 -8q57 -65 89 -86q36 2 69 22q19 54 25 108q-45 -9 -81 -28h-11q-22 0 -82 15q-34 8 -53 26l-21 20q-15 16 -29 32l-27 34q-10 13 -10 28q0 53 10 90l11 42
q4 16 20 29q52 44 127 69q18 7 53 16q34 8 43 8q14 0 42 -7l26 -6q64 -17 104 -38l24 -12q19 -10 29.5 -21t26.5 -39q17 -30 34 -71q9 -21 12 -57q0 -1 0.5 -7t0.5 -10q2 -14 2 -33l1 -58q0 -20 -18.5 -70.5t-40.5 -88.5q-8 -14 -16.5 -20.5t-38.5 -21.5q-43 -22 -92 -38
l-50 -17q-16 -5 -24 -6l-76 22q-70 21 -164 73zM34 337q10 -12 11 -13q33 -40 50 -55l21 -19l6 -6q-45 13 -91 54v6q0 16 3 33zM331 230v-1q0 -1 -2 -11l-4 -16q0 -1 -1.5 -5.5l-2.5 -7.5h-1q-12 14 -30 27q17 9 41 14zM135 227l-42 -39l-55 -56l-3 36l29 21l49 30zM206 223
q20 -11 27 -15l16 -11q7 -5 48 -25l8 -4q-12 -6 -29 -6q-14 0 -20 5l-18 16q-14 11 -32 40zM623 226l-13 -66q-3 -12 -6 -22l-7 -28q-7 -26 -20 -58l-55 -12l-65 -12l-11 -1l-16 -2q-3 -1 -13 -1l82 37l56 30q11 11 24 38q7 15 15 28l4 8zM40 114l51 -30l22 -11l58 -26
l72 -28l-67 10l-71 16l-56 14q-4 13 -8 43q0 1 -0.5 5t-0.5 7zM209 580q-41 -20 -58 -30l-35 -22q-15 -10 -18 -20l-4 -19q-11 -40 -11 -88q0 -10 10 -21q0 -1 2 -3t5 -5.5t6 -7.5q32 -39 64 -66l-5 7q-29 38 -41 63q-8 14 -8 16q-7 12 -7 20q0 37 11 83l4 16q2 8 13 18
l15 14q26 24 58 45h-1zM369 576l2 -4q8 -16 10 -21t8 -19q14 -29 14 -69l-1 -11v-81l-4 -76l-6 -95q-1 -14 -12 -39l-10 -25q0 -1 -1 -2l-3 -6q21 25 41 58l9 60l6 67l3 83l1 77q0 21 -2 26t-14 24l-13 19q-7 10 -28 34zM299 565q-2 -2 -6 -4q-1 -1 -2 -1l-1 -1l-8 -6
l-15 -11q-3 -2 -8 -8l-6 -70q-1 -7 -1 -26q0 -44 4 -80q0 -8 10 -19l15 -15q5 -6 19 -16q35 20 58 45l2 77v57q-1 19 -6 28q-16 29 -39 43l-6 4q-5 3 -10 3zM300 540q6 -4 17 -16q-19 -42 -24 -76l-15 -88q-5 58 -5 88q0 4 0.5 9t0.5 8l2 27q2 21 5.5 28.5t18.5 19.5z
M335 488q1 -2 1 -5v-14l1 -22l-3 -66q-11 -20 -32 -41q0 2 0.5 4t0.5 3l3 6l15 67z" />
    <glyph glyph-name="colon" unicode=":" horiz-adv-x="251" 
d="M131 446q30 -6 68 -19l10 -4q4 -14 8 -36l-8 6l-68 46l-1 1q-2 1 -4.5 2.5t-4.5 3.5zM98 445l-4 -5l-50 -46l-16 -16q0 16 2 32l1 9q41 19 67 26zM116 423h3q53 -24 100 -69q-26 -29 -57 -52q-29 -22 -34 -22q-2 0 -22 12q-41 26 -76 55l52 49zM223 306h1q-3 -17 -10 -38
q-46 -11 -75 -12l50 28l33 21zM19 306q29 -19 44 -27l38 -19q2 -2 9 -5l-24 3l-58 11l-2 9q-4 12 -7 28zM133 197q47 -6 85 -17l1 -5q3 -13 6 -28l-54 31l-31 15q0 1 -3 2t-4 2zM104 195l-6 -4l-50 -28l-31 -19q1 3 1 6l3 8l4 13q0 2 3 8q32 10 76 16zM116 168
q51 -22 98 -69q-49 -44 -94 -69q-50 29 -95 70q37 42 91 68zM234 72q-1 -10 -2 -19t-1 -13l-61 -25l-28 -9l62 42zM21 66l6 -4q27 -27 80 -59q-34 7 -90 35z" />
    <glyph glyph-name="semicolon" unicode=";" horiz-adv-x="269" 
d="M162 423h2q46 -9 59 -13l12 -3q3 -15 3 -26l-47 28zM91 417l-12 -8l-58 -42l6 34q32 11 64 16zM129 415q47 -20 95 -58q-34 -38 -82 -72l-9 -7q-54 27 -100 68q41 39 96 69zM240 316q-1 -19 -5 -32l-2 -9q-42 -17 -88 -25l60 41l4 2q5 5 10 8l8 6q1 1 5.5 4zM17 298
l26 -13l85 -34h-9q-45 3 -73 8l-13 2q-10 20 -16 37zM147 203q64 -12 91 -20q6 -14 10 -36l-60 34zM117 203q-8 -7 -25 -16q-29 -15 -61 -39l-8 -6q5 25 11 44q27 9 59 14q5 0 11 0.5t8.5 1t3.5 0.5zM131 167q54 -22 103 -69q-37 -47 -107 -104l-6 -5l-29 20q2 2 4 5l2 2
l19 21l1 1v3l-7 4q-27 17 -62 46l-7 5q34 40 89 71zM251 73l1 -1q-32 -68 -79 -129l-23 13l37 45l40 48zM48 63l39 -26l-24 -27q-12 24 -15 53z" />
    <glyph glyph-name="less" unicode="&#x3c;" 
d="M578 35l-498 227v71l498 226v-91l-386 -170v-2l386 -170v-91z" />
    <glyph glyph-name="equal" unicode="=" 
d="M603 368h-504v85h504v-85zM603 141h-504v85h504v-85z" />
    <glyph glyph-name="greater" unicode="&#x3e;" 
d="M600 262l-498 -227v91l385 170v2l-385 170v91l498 -227v-70z" />
    <glyph glyph-name="question" unicode="?" horiz-adv-x="607" 
d="M406 663l63 -12l57 -13q31 -6 70 -21l-5 -64l-9 -58l-13 -59l-3 -9q3 39 3 60q0 44 -8 92l-54 34l-51 26q-4 1 -11 5t-10 5q-20 9 -29 14zM303 653l64 -18q66 -16 117 -44l36 -19q10 -6 12 -8.5t3 -11.5l4 -40q2 -22 2 -30q0 -11 -4 -55q-2 -19 -21 -42q-16 -21 -40 -42
t-38 -26q-30 -13 -78 -27q-1 -26 -9 -52q-65 -23 -89 -23q-8 0 -33 5l-36 9q-2 0 -11 3q6 29 20 70q5 16 35 39l33 23q4 4 9 7l3 57l1 40l-2 57q0 11 -14 28q-6 6 -10 11q-16 -7 -47 -30q-48 -38 -77 -80q-30 26 -68 73q-19 23 -24 35q38 22 76 38q62 26 117 37zM67 623
l78 12l-78 -32l-36 -18q-2 0 -6 -2l-14 27zM246 528h2q9 -42 9 -85q0 -3 -0.5 -12t-0.5 -17q-11 -29 -40 -45l21 98zM187 477l-24 -66l-10 -33l-17 32q20 36 51 67zM92 407q16 -21 35 -50l22 -36q10 -17 22 -38q-3 -8 -8 -23l-7 -21l-27 63q-12 27 -31 82q-3 12 -6 23z
M56 363q6 -9 12 -21l22 -49q13 -29 21 -53l11 -31l10 -27q0 -1 1 -3t1.5 -4.5t1.5 -4.5l-29 -26l-4 13l-17 61l-17 69q-10 46 -13 76zM491 306l-13 -28l-29 -53q-3 -5 -15 -24l-13 -20l-15 -23q-1 -1 -5 -7l-7 4l-28 19l-6 4l60 53q19 16 57 58q1 2 5.5 7t8.5 10zM517 295
q-2 -13 -2 -14q-1 -9 -11 -45q-3 -9 -9 -29l-23 -79q-4 -16 -11 -36q-3 -11 -8 -25l-3 -9l-34 -2l36 79l35 86zM260 178q67 -31 114 -76q-43 -35 -110 -73q-51 22 -79 42l-39 26l1 2q55 52 113 79zM118 83q4 -1 11 -7q3 -4 11 -8q58 -38 79 -51l8 -5l-58 7l-36 7q-3 5 -3 7
l-3 14l-7 27v2q-1 1 -1.5 3t-0.5 4zM388 87q-24 -42 -67 -88l-36 16l54 35zM284 605q6 -7 13.5 -15.5t9.5 -10.5l13 -20q5 -5 6 -16l2 -31q1 -12 1 -41q0 -47 -6 -105q-1 -9 -17 -25l-21 -21q-1 -2 -6 -7q22 13 60 38l8 61q5 28 5 99q0 18 -1 27l-2 23q0 7 -3 8z" />
    <glyph glyph-name="A" unicode="A" horiz-adv-x="638" 
d="M244 654l40 13l-42 -93l-34 -73l-82 -169l-63 -128l-50 -98l27 78l31 80l38 94l35 79zM382 666q19 -5 45 -17l15 -64l16 -63l23 -72q0 -2 5 -17l14 -38l6 -16q0 -4 1 -7l-4 6l-45 88l-32 69q-33 72 -44 131zM329 662q23 -31 42 -68l65 -128l80 -160l70 -144l30 -65
l-65 -34q-54 -29 -131 -51l-26 68l-24 57q0 1 -13 29q-2 4 -4.5 8t-3.5 7l-71 -5q-53 -4 -113 -23q-8 -37 -8 -61q0 -21 5 -41l-142 -4l8 24l26 62l71 150l67 131l80 146zM196 634l-50 -113l-122 -292l48 149l29 85l39 100l22 54zM469 604l25 -58l30 -76l4 -18l2 -55l-1 -12
l2 -17v-5l-1 -1l-28 101l-21 84zM545 317q15 -19 32 -47q22 -38 26 -47t12 -43q1 -7 11 -39l-6 8q-28 43 -49 95q-15 34 -26 73zM340 159q6 -10 13 -30l-38 5l-57 3h-16l-29 -1l-25 -1h-8h-4l12 3q74 19 152 21zM362 106l-61 -5l-13 -2q-31 -3 -81 -13q-10 -13 -14 -18
l-9 -13q-5 26 -6 60q23 2 60 2q74 0 124 -11zM373 75q13 -44 17 -66h-49l-58 1l-99 5l-107 8l14 2l58 4l100 3l63 3l44 3q2 3 4 7l1 4l8 19q0 1 4 7zM296 487l-15 -32l121 -263l48 -108l7 3l-45 116l-64 158zM252 387l-24 -59l-32 -87l128 2l-7 17q-26 70 -65 127zM254 339
l5 -8q14 -25 26 -55q-22 -8 -33 -10v11q-1 9 -1 20q0 7 2 33z" />
    <glyph glyph-name="B" unicode="B" horiz-adv-x="654" 
d="M518 655q-34 -10 -71 -10h-27h-7l-174 4l-158 1q81 28 181 28q73 0 145 -11l58 -8q7 -1 53 -4zM555 639q9 -9 20 -25l18 -25l4 -8l-58 35l-22 11zM577 562q13 -51 13 -66l1 -20q1 -5 1 -10q0 -6 -7 -16l-18 -23q-2 -4 -14 -16q-15 -15 -32 -22l-50 -20q-36 -14 -69 -24
l-9 -4l65 -8q3 0 15 -3l30 -6q32 -5 65 -17q32 -32 52 -83l-2 -10q-10 -53 -33 -95l-32 -18l-54 -24l-68 -25q-17 -6 -45 -9l-22 -1q-10 -1 -26 -1h-13l-56 4l-67 2l-113 1h-29q0 5 0.5 11.5t0.5 7.5v20l1 14l2 93l-1 207l-1 72l-2 72l-8 75l114 -4l118 1l99 2l59 4h6
q7 0 30 -10l32 -14q34 -16 67 -37zM603 571q16 -22 24 -37l4 -8l6 -10q-9 -33 -19 -57l-1 11l-4 40q-2 21 -4 28q-6 25 -6 33zM27 495q6 -25 7 -39l5 -53l5 -122l-2 -108l-3 -58l-1 -5q-9 27 -11 61l-2 15l-1 10l-3 78l2 162q0 14 4 59zM573 371l9 -36l-118 14zM638 180
q1 -6 1 -12q0 -33 -11 -85l-5 -8q-15 -27 -28 -42l-27 -2q5 9 20 37l13 28q4 8 10 23zM500 51l61 22l-30 -43l-20 -2q-52 -2 -64 -2h-18l-2 1zM53 26l89 -3l80 -4l13 -1l26 -2l13 -2v-1l-9 -2q-3 0 -7 -0.5t-6 -1t-3 -0.5l-30 -4l-7 -1l-101 -5l-60 -1zM107 571l2 -48
l3 -116v-151l-2 -152h7l11 182l8 180l1 104zM393 567l1 -3q14 -28 24 -58q10 -26 10 -37q0 -5 -3 -15l-5 -18q-7 -18 -15 -38l-5 -11q32 37 50 73q1 13 1 24q0 14 -15 33l-13 17q-11 14 -30 33zM276 563l-5 -64q-1 -7 -1 -29q0 -63 7 -102q35 0 81 17q12 21 19 37l10 27
q3 5 3 8t-3 9l-7 22q-13 34 -37 64zM284 297q-6 -47 -6 -105q0 -29 1 -39l4 -51l18 -7q20 11 47 29q23 37 23 53q0 9 -4 34l-5 37q-4 16 -13 42q-35 8 -56 8q-5 0 -9 -1zM394 294q9 -33 16 -78q5 -36 5 -48q0 -25 -23 -73q0 -1 -2 -3.5t-3 -4.5q24 27 44 61q4 23 4 39l-1 39
q0 14 -8 24l-11 16q-5 8 -15 21zM299 537l6 -31l6 -58l3 -46l-15 -4q-8 27 -8 67q0 45 8 72zM344 504h1q13 -17 24 -45l-4 -10q-13 -24 -20 -34q-3 25 -3 44q0 9 2 45zM306 274q16 -54 23 -115l1 -10l-23 -14q-9 34 -9 78q0 32 8 61z" />
    <glyph glyph-name="C" unicode="C" horiz-adv-x="572" 
d="M398 656l71 -3l59 -6l29 -4l-11 -22l-23 7l-56 14l-56 11zM363 639l58 -10q6 0 24 -6l26 -6q26 -8 62 -21l-26 -42q-18 -31 -36 -50q-48 45 -113 79q-22 -12 -43 -31l-4 -22q-4 -16 -4 -19l-6 -50l-6 -63l-3 -88q0 -1 2 -33l2 -25q5 -62 27 -124q30 -12 59 -18l66 43
l49 37l15 -23q1 -1 8 -13l12 -20q2 -4 4 -7.5t5 -9t5 -9.5l-15 -9l-17 -11q-45 -29 -103 -48l-22 -8q-29 -9 -33 -9q-1 0 -26 5l-22 4q-56 10 -107 33l-25 11h-2q-1 1 -3 2t-4 1q-11 12 -29 34q-17 20 -22 28l-28 42l-28 51q-12 23 -13 43l-1 49q0 21 2 36l3 38q4 36 9 52
q30 48 60 76l47 44q5 5 25 20q2 1 5 3.5t7 6t8 6.5q42 16 82 22l50 7zM182 635l-7 -4l-46 -23q-35 -17 -75 -43q6 14 18 35l5 8q0 1 2 4t3 5q53 14 98 18h2zM152 600q-4 -6 -16 -18q-8 -8 -14 -15q-2 -3 -7 -8t-7 -8q-6 -7 -12.5 -13.5t-10 -10.5t-4.5 -5l-16 -19l-14 -17
q-1 -1 -5 -7l-16 -60l-8 -39q-1 11 -1 31v18l1 60q0 11 14 23l11 11q4 5 33 27q36 30 72 50zM555 569q-4 -16 -15 -40q0 -2 -12 -31l-12 -27l-11 -24q0 -1 -6 -15q-38 27 -97 42v9q0 16 8 35q30 -21 59 -52l17 18l46 54zM370 537q-15 -34 -21 -51q-4 -12 -10 -29.5t-7 -20.5
l-12 -43q0 -2 -3 -11l1 25q3 59 16 119q16 10 36 11zM313 283l23 -60l20 -45q70 12 126 35q-9 -8 -29 -22q-7 -5 -9 -6q-1 -1 -3.5 -2.5t-3.5 -2.5l-68 -41l-29 11q-24 69 -27 133zM535 238q1 -2 1 -4l1 -8l5 -22q0 -1 0.5 -5t1.5 -10.5t2 -13.5q0 -5 1 -9q-20 30 -29 41
l-7 8q0 2 -5 7l8 4l7 4q4 1 14 8zM25 237l8 -13q5 -9 15.5 -25.5t15.5 -24.5q29 -49 51 -76q19 -22 28 -35l-48 34l-66 50l-3 57zM504 54l-7 -8l-5 -5l-27 -24l-20 -17q-1 0 -2.5 -2t-3.5 -3l-89 -3l81 30zM172 45q10 -3 13 -3l78 -27q3 -1 6.5 -2t5.5 -2t4.5 -1.5t4.5 -1.5
l18 -5q3 -1 29 -10l-76 2l-13 6zM202 557q-67 -65 -104 -115l-8 -63l-2 -30q-2 -16 -2 -40q0 -7 0.5 -18.5t0.5 -19.5l11 -21q33 -68 95 -138l-17 27l-30 51l-12 22l-26 56q-1 15 -1 35q0 41 9 92q6 40 21 64l60 90z" />
    <glyph glyph-name="D" unicode="D" horiz-adv-x="678" 
d="M275 657l165 -4l9 -8q22 -19 37 -34v-2l-76 20q-2 1 -20 4l-34 7l-10 1q-1 0 -4 0.5t-5 0.5l-60 -1l-88 1l-59 3l-26 4l75 5zM495 641l35 -11q3 -1 7 -2l4 -2l33 -12l12 -5l5 -8l10 -15q17 -25 36 -70l-57 52zM49 619l226 -2l67 1q76 -5 180 -59l8 -4l44 -58l35 -53
q8 -12 10 -25q2 -22 2 -24v-50q0 -23 -2 -66q-2 -31 -5 -54l-8 -12q-26 -36 -53 -67l-10 -10l-5 -7l-22 -12l-52 -25l-40 -16q-1 0 -4 -1.5t-8.5 -3.5t-10.5 -5q-18 -7 -45 -16l-167 1l-37 -1q-18 -2 -56 -4l-31 -3l-9 -1l-1 -1l4 165l1 125l-2 113l-4 110zM580 532l68 -64
l7 -63l6 -76l2 -69q-1 -2 -2 -3l-9 -15q-4 -5 -11 -14l2 137l-1 46q0 16 -2 21t-14 26l-19 30l-15 24zM37 398l4 -60v-84l-2 -56l-7 -91l-3 -25q-3 10 -3 15v13l-1 11l-4 144v40v9q0 31 16 84zM619 193q-10 -27 -17 -41l-13 -22q0 -1 -2 -4.5t-4.5 -8t-4.5 -9.5l-41 -11
l40 45zM557 73l-18 -29l-57 -10q-2 0 -12 -1.5t-18 -2.5q-6 -1 -12.5 -1.5t-10.5 -1.5t-6 -1q-6 0 -17 -1.5t-14 -1.5h-1h-7l60 22q9 3 46 13q50 13 64 14zM305 24q-46 -20 -76 -20h-62l-87 1l-40 2l68 12l62 6l48 3h18q40 0 69 -4zM102 567l3 -98l1 -197l-1 -178h8l7 129
l8 238l2 106h-28zM394 562q4 -7 8.5 -14.5t6.5 -10.5t3 -6q2 -5 4.5 -9.5t3.5 -7.5l2 -2q3 -6 3 -9l4 -101v-89l-3 -88l-8 -42q0 -1 -1 -4.5t-2 -7.5l-2 -8l-5 -18q-1 -4 -3.5 -13t-4.5 -16v-1q5 6 13 21l7 15l22 53l7 72l2 42l2 65v75l-1 6v21l-2 20q-31 34 -56 57z
M293 551l-9 -142l-2 -105l3 -75l4 -62l7 -53l20 -4q5 4 10.5 8.5t6.5 4.5l17 15q19 19 20 26l10 58l6 46l2 59l1 76l-2 60q-1 25 -2.5 30t-13.5 17l-24 25l-14 12q-6 6 -9 6zM319 518q14 -28 14 -52v-6l-3 -95l-11 -167q-1 -24 -6 -54l-2 -8l-8 112l-2 57v37l3 71q0 9 3 32
q2 23 3 27l3 19q2 13 6 27zM360 460q10 -50 10 -104q0 -34 -2 -60q0 -1 -1.5 -12.5t-3.5 -21.5q-2 -16 -5 -31l-5 -23q-5 -21 -11 -36v14v15l3 77l8 115z" />
    <glyph glyph-name="E" unicode="E" horiz-adv-x="570" 
d="M33 667l73 -4l80 -5l126 -19l11 -4l-65 1l-208 6q-8 -11 -14 -22q-1 33 -3 47zM502 643l29 9q8 -41 19 -114l-23 43q-14 29 -25 62zM481 619q6 -15 6 -17l19 -64q0 -1 1 -4.5t2 -6.5q-27 9 -34 10l-11 3l-18 4l-50 8l-82 10q-4 -52 -4 -67l1 -100l55 1q18 0 32 1
q24 2 25 2l11 2q2 0 5 0.5t4 0.5q23 -47 30 -78q-2 0 -4 0.5t-3.5 1t-7 1t-13.5 1.5l-35 3q-8 1 -26 1h-11l-65 -2l-3 -61l2 -87l5 -76l89 24l82 17l38 4q-1 -17 -11 -49q-13 -39 -20 -51l-151 2l-226 -1l-48 -2l6 63l1 72l-1 220l-2 110l-3 73l-3 31h111l63 -3l169 1z
M344 539l32 -5l-2 -8q-8 -31 -15 -49l-19 -50l-5 -8l3 59l3 33q0 8 3 28zM414 524q11 -1 30 -9l12 -4q21 -9 61 -30l1 -8l3 -25q1 -10 1 -26v-13q-26 47 -48.5 71t-59.5 44zM42 526q4 -12 6 -37l1 -23l3 -54l1 -72l-2 -35q-18 59 -18 137q0 45 8 79zM486 420q18 -61 20 -100
q-18 53 -39 93q9 2 19 7zM379 309q70 -1 130 -14l4 -32q-47 21 -80 30zM21 315l15 -74l3 -18l5 -65l3 -57v-48l-19 -4l-4 85l-3 118v63zM329 287l8 -33l9 -57l2 -22q10 2 11 2l24 3q6 1 34 1q35 0 63 -7l-57 -13l-92 -27l-2 16l-2 71l1 64zM363 247q67 -5 139 -41h-12l-25 4
q-11 2 -42 2q-32 0 -54 -2zM552 163v-40q0 -38 -7 -80l-31 1q18 30 26 66zM366 34l52 -1q1 0 5.5 -0.5t12.5 -1t15 -0.5q9 0 27 -3l-8 -2l-77 -10l-85 -9l-103 -6l-78 -1h-13q-45 0 -93 10q4 1 9 2.5t6 1.5l21 5q11 2 27 4l50 6l60 3zM138 567h-23v-14l2 -64l2 -132l-2 -181
l-2 -59v-16h5l11 121l9 158l4 109l1 78h-7z" />
    <glyph glyph-name="F" unicode="F" horiz-adv-x="500" 
d="M21 666l257 -15l90 -7l-11 -2l-57 -4l-65 -2h-83l-104 4l5 -108l2 -116l-17 88l-9 77zM477 623l30 2q-1 -53 -12 -103l-1 -1q-2 45 -11 78l-5 18v2q-1 2 -1 4zM325 618l120 4q26 -58 30 -108q-63 29 -159 36h-10q-5 -50 -5 -66l1 -106l82 1l22 2q25 -42 35 -86
q-49 16 -95 16h-39h-5l-2 -68l-1 -71l3 -60l5 -64l-154 -1l-87 -4l8 138l3 134v120l-2 94l-4 88h161zM334 522l8 -69l8 -49l-29 -1q-1 7 -1 15q0 34 3 57q1 4 3.5 15.5t3.5 16.5q1 8 4 15zM395 518q30 -6 84 -30l15 -6q0 -13 -2 -27l-2 -8q-6 6 -18 15q-3 3 -6.5 6t-4.5 4
q-15 12 -21 15zM420 402l31 -8q4 -24 4 -56l-36 64h1zM33 332l7 -32l7 -72l1 -47l-2 -99l-7 -52l-6 59l-4 63l-1 33v81zM326 288l12 -1q15 -1 32 -4l-15 -55l-11 -56l-13 -80q-4 14 -6 35q-5 50 -5 82q0 57 6 79zM399 245l28 -8l-22 -44l-22 -55l-28 -84q2 26 8 62
q12 70 36 129zM223 21l86 -1v-22h-20l-157 4l-53 4l-14 1q-2 1 -5 1.5t-5 0.5q1 0 4.5 0.5t4.5 1.5l23 2l16 3zM123 561l1 -106l-1 -191l-3 -173h6l12 146l12 218l3 106h-30z" />
    <glyph glyph-name="G" unicode="G" horiz-adv-x="644" 
d="M511 657l85 -2l-2 -26l-72 13l-92 13l15 1zM306 662q-73 -22 -127 -46l-5 -5l-7.5 -7.5t-6.5 -6t-5.5 -5.5t-4.5 -4.5t-3.5 -3l-2.5 -2.5l-1 -1l-24 -24l-7 -7q-15 -16 -40 -47l-5 -6q9 21 37 77q17 35 34 63l28 5l67 11zM556 590q-23 -47 -58 -88q-81 60 -151 76
q-30 -24 -53 -54q-5 -19 -7 -35l-4 -33l-2 -13q-4 -33 -5 -85v-50q0 -116 31 -199q15 -15 34 -26l33 25l1 24v61l-1 32q0 23 -8 42l-18 40l-20 40l8 2l114 1l91 -1l58 -2q-10 -45 -10 -79l-1 -61v-67l3 -68l5 -50q-72 32 -121 38q-4 -1 -9 -2l-2 -1l-25 -8q-67 -21 -124 -21
h-4h-1q-64 13 -131.5 59t-122.5 112q-9 74 -8 100v29v41q0 4 0.5 9.5t1 14t0.5 17.5q13 26 21 38l12 18l4 5l33 44q21 26 36 41l25 26l9 9l10 4l18 7q34 14 61 19l44 10l13 3l15 2q2 0 6 1t10 1.5t11 1.5q87 -15 178 -50zM589 604q0 -3 -0.5 -8.5t-1.5 -7.5q-1 -16 -9 -44
q-15 -51 -31 -89l-3 -9l-31 14q2 2 3 5l2 3l21 36q23 38 40 77l6 14zM491 472l-27 13l-72 31l-52 20q2 0 5 0.5t4 1.5q12 3 22 3q26 0 75 -30q24 -15 45 -39zM325 518q12 -44 44 -80l-62 15q0 2 0.5 5t0.5 4l2 7q3 22 15 49zM305 425l62 -17l75 -15l102 -15l-92 -3l-69 1
l-58 3l-18 2q0 7 -0.5 13t-1 14.5t-0.5 16.5zM627 356q3 -22 3 -47q0 -3 -0.5 -7.5t-0.5 -6.5l-4 -56l-8 -59l-5 -27q-6 38 -6 86q0 72 21 117zM314 308q22 -37 35 -79v-3l-2 -13q-2 -19 -8 -37q-4 -14 -7 -27l-1 -2l-10 77l-7 68v16zM18 286l12 -73l6 -28q7 -10 32 -33
l29 -28q37 -36 92.5 -69.5t91.5 -42.5l31 -8q1 0 9 -2h-20q-67 0 -143 23q-12 9 -26 23l-37 34l-47 50l-32 37l-1 68l1 7l1 33l1 3v6zM558 10l-22 -1l-59 -4l-73 -10q54 26 103 35h5q18 -4 46 -20zM213 549q-74 -63 -122 -149l-2 -7l-1 -65q0 -5 1 -10v-20q0 -21 3 -45
l2 -23v-2q0 -1 0.5 -3t0.5 -4q3 -6 11 -14l17 -19q42 -47 88 -77q-28 27 -46 48l-9 11l-7 8l-36 49q-4 37 -3 60v34l1 7l4 46q1 22 7 35q18 33 26 47l31 48zM407 303q15 -50 15 -116q0 -18 -1 -24l-5 -73l13 46q0 2 2 13t4 20l3 23q4 31 4 61v11l-3 31v9z" />
    <glyph glyph-name="H" unicode="H" horiz-adv-x="669" 
d="M450 667l2 -1q-53 -17 -98 -17q-11 0 -20 1l-46 6l-89 14q40 2 61 2q30 0 48 -1h24h22q60 -2 62 -2l24 -2h10zM56 666l71 -7l87 -13l31 -5l-33 -3l-66 -1l-66 2l-23 1zM574 658l74 11v-26l-83 -6l-57 -2l-75 2l-14 2zM53 618l117 -3h18h23q17 0 26 1h17q13 0 22 -1
l-6 -56l-3 -59l-2 -77v-38l58 -1l69 2l-1 90l-7 141l121 -1l115 2l-4 -63l-5 -115l-3 -172l2 -70l2 -41l4 -64l5 -45l-125 1l-113 -1l6 72l3 70l2 82v52l-70 -17l-59 -16l-1 -60q0 -29 2 -54q0 -8 0.5 -18t1 -15.5t0.5 -8.5l4 -47l4 -40l-93 2l-87 -2l-15 -1l-14 -1
q-6 0 -11 -1l3 124l1 82l-4 232zM311 606l4 -124l4 -54l7 -4q5 -4 13 -8h-11q-8 0 -36 2q-1 16 -1 41q0 78 20 147zM364 538q11 -37 11 -96q0 -4 -0.5 -12.5t-0.5 -14.5h-24zM633 418q4 -13 5 -25l6 -56l3 -58l1 -71l-1 -75l-3 -47l-5 23q-2 8 -3 23l-4 29q0 1 -2 37l-2 57
l1 99zM28 387l2 -10l7 -57l2 -30l2 -68l-2 -66l-2 -57q0 -8 -2 -26l-3 -32q-2 -17 -3 -22l-6 77l-2 86v58l5 120zM344 284h7q-15 -12 -35 -31l-6 -72l-3 -59l-2 -79l-4 14l-9 56l-4 49q-2 24 -2 70q0 22 1 38zM367 249l2 -13l-2 -66l-4 -87l-4 -35l-20 1l6 57l17 99zM144 25
l67 2l60 -1l14 -1l-80 -13l-103 -14l-51 -6l3 27zM494 33l62 -1l67 -4l4 -24l-110 5l-84 7l-49 7l19 4l58 5zM95 563l4 -81l2 -115l1 -127l-1 -148l7 -1l9 150l6 175l1 88v58zM432 565l4 -69l2 -78v-149l-3 -174h7l8 130l8 179l2 106l1 55h-29z" />
    <glyph glyph-name="I" unicode="I" horiz-adv-x="347" 
d="M6 688l92 -1l75 -3l-166 -29zM312 680l-6 -30l-64 -4l-76 -3h-61l-16 1l14 4l89 15zM129 617l167 2q-1 -13 -1 -29l-1 -45q-2 -56 -2 -73l-2 -177l1 -91l3 -87l5 -69l-64 1l-129 -2l-36 -1l1 250l-2 113l-3 89l-4 59v15l-4 33v14zM34 606q2 -9 4 -20t2 -14l5 -53l5 -77
l2 -69l2 -79l-1 -86l-3 -52l-9 67l-6 71l-3 72l-1 124zM314 400l6 -59l5 -65l1 -76l-1 -68l-2 -77l-4 17l-7 56l-4 64l-1 60l1 54l3 72zM220 22l89 1l-1 -23l-81 1l-87 5l-60 6l30 3zM133 563h-26l6 -229l1 -241l13 172l5 190z" />
    <glyph glyph-name="J" unicode="J" horiz-adv-x="463" 
d="M89 654q38 -3 47 -3l66 -7q17 -1 32 -6h-5l-3 -1l-21 -1l-9 -1l-62 -1l5 -65l5 -92l2 -104v-62l-1 -46q0 -11 -2 -31l-8 97l-9 92l-12 92l-11 72zM315 617l83 1l-1 -14q-5 -66 -8 -168q0 -24 -0.5 -50t-0.5 -30v-124l2 -69l8 -80l-63 -21q-88 -29 -157 -31q-54 15 -77 27
l-50 24l-27 14q25 55 54 82q21 -29 54 -52q11 8 13 11l7 8q8 10 8 11l5 156l-1 145l-2 112l-3 48h156zM86 378l11 -58l7 -64l5 -74l-31 38l8 129v29zM411 296l14 -89l20 -156l-9 -3q-20 -6 -75 -15q-24 -4 -36 -4l5 3l28 9l60 23l-5 57l-4 65v30v33l1 33q0 10 1 14zM21 75
l63 -26l47 -18l-117 22q2 10 7 22zM202 553l3 -151l-2 -222q0 -24 -1 -28t-9 -16l-9 -12q0 -1 -8 -11q-2 -4 -6 -8q12 7 44 34l5 98l8 317z" />
    <glyph glyph-name="K" unicode="K" horiz-adv-x="637" 
d="M375 662q-17 -34 -26 -61l-28 -82v16l4 72l4 33l-43 -2q-63 0 -89 1q-15 0 -27 1l17 5l57 10q1 0 4.5 0.5t10.5 1t14 0.5l30 3q4 0 11.5 0.5t10.5 0.5q5 0 11 0.5t7 0.5q22 3 30 1zM414 650l23 -8l-33 -58l-41 -67l-12 -13zM455 634q70 -33 108 -62l-8 -6l-39 -25
q-24 -16 -61 -55t-64 -79q32 -11 69 -36q2 -3 3.5 -6l2.5 -5l1 -3l9 -19q21 -44 59 -108q55 -93 96 -133q-53 -32 -116 -54q-31 -11 -92 -26l-9 -3l-35 77l-45 90l-33 60l-21 35l-1 -97l2 -66l5 -63l-229 -2l6 167v132l-3 105l-4 110l-4 56l174 -1q26 -1 68 1q-4 -24 -5 -46
l-2 -25q-3 -35 -3 -52l1 -101l2 1l39 47l38 49l32 47l33 50zM557 534q-21 -44 -32 -99q0 -1 -0.5 -2.5l-1 -3t-0.5 -3.5l-4 15l-9 56v5q18 14 25 19l19 12q1 0 2 1h1zM26 503l4 -25l7 -57l3 -57l1 -35v-69l-2 -74l-5 -71l-7 -85l-4 89l-2 108v139l2 84zM479 473l36 -111
l17 -51l26 -70q-21 30 -35 57q-8 13 -8 15q-3 5 -3 6l-18 37l-5 12l-14 31q-5 12 -9 16t-17 11q-7 4 -9 5l5 6q23 26 34 36zM565 463l2 -7l16 -111l15 -127l1 -12l2 -10q0 -1 0.5 -2.5l1 -3t0.5 -3.5q-22 31 -38 89q-20 69 -20 113q0 26 20 74zM320 165l30 -66l32 -73l8 -20
q-4 -1 -25 -5l-8 -2l-16 63l-15 67zM314 20l1 -1q2 -6 4.5 -15t3.5 -14l-8 2l-70 14l-115 16l8 2l61 2q4 1 16 1q46 0 70 -4l20 -2q4 0 9 -1zM28 14l168 -24l46 -9q-18 -1 -42 -1h-25l-48 1l-97 8zM96 568l1 -145v-205l-2 -118q0 -9 -1 -14h9l8 136l9 216l4 129zM335 341
l-21 -22l5 -10q2 -3 4.5 -7.5t3.5 -6.5l24 -47l8 -16l25 -50l20 -43l4 -9l29 -62l7 2l-14 38l-39 101l-44 105z" />
    <glyph glyph-name="L" unicode="L" horiz-adv-x="515" 
d="M223 639l-172 -7l1 -58v-97l-1 -69l-4 -89l-2 11l-12 127l-10 150q-1 12 -1.5 19.5t-1 14t-0.5 11.5q12 1 26 1q36 0 97 -6q50 -3 70 -7zM360 623l23 3q2 -13 3 -63l2 -155v-195q-10 39 -13 58l-6 46l-8 71l-5 53l-2 59v51q0 19 6 72zM245 617l72 1l-8 -81l-3 -67v-140
l2 -107l4 -106l52 9q65 12 135 42q0 -59 -30 -122l-199 3l-106 -1l-89 -3l5 148l2 180l-2 75l-3 90q0 7 -0.5 16.5t-1 15t-0.5 9.5q-2 28 -2 29v9h172zM337 413l14 -124l17 -140q-10 -2 -14 -3q-16 -2 -19 -2l-6 96l-1 87q0 2 4 54q2 19 5 32zM43 188l2 -9l3 -61l1 -127
l-21 -4l-3 1v31l3 57l9 70zM396 185q20 -1 41 -1q26 0 49 2l-14 -5q-48 -18 -70 -24q-2 8 -2 9q-3 15 -4 19zM199 27h90h37q27 -1 40 -3l-124 -9l-106 -12l-57 -8l-2 28zM468 2l-15 -32h-9l-43 3l-20 1l-153 5l16 4l90 13l57 6h6l38 1q12 0 33 -1zM153 565l-28 -3l1 -21
q2 -86 2 -148q0 -67 -2 -165l-2 -83l-1 -47q0 -1 -0.5 -4t-0.5 -5h8l10 139l7 149l4 89z" />
    <glyph glyph-name="M" unicode="M" horiz-adv-x="767" 
d="M246 656l31 -52l34 -68l26 -57l34 -85l32 51l66 104l72 105l38 -86l38 -95l50 -136l85 -253l-40 -15l-55 -17l-58 -13l-105 -18l-18 123l-15 88l-16 72l-36 -96l-30 -75l-29 -62l-29 -61q-3 7 -4 8l-19 34l-20 41q-3 5 -6 11l-19 44l-29 73l-21 58l-17 52l-18 -57
l-15 -51q-24 -84 -24 -147q0 -1 0.5 -6.5t0.5 -9.5l1 -11l-44 1l-67 -2l17 68l29 94l30 89l42 112l52 126l35 76zM216 653q-3 -7 -6 -13l-13 -31l-6 -15l-14 -34l-85 -214l3 16l11 57l19 74l21 68l30 76q5 3 17 7l13 5q1 1 10 4zM577 649q3 -1 13 -4l21 -6q3 0 13 -3l18 -88
l19 -75l53 -175l-5 8l-34 80l-48 121l-30 83zM654 629l5 -8q26 -39 34 -73l12 -55l37 -154q-5 10 -7 13l-4 12l-6 14l-22 61l-22 74l-15 55zM137 618l-13 -36l-25 -78l-16 -61q-4 -11 -5 -23q-5 -23 -9 -39q-1 5 -1 10l2 42v9l8 52l15 81l4 17zM303 603q9 -9 16 -19l25 -37
q6 -8 12 -17l19 -30q17 -27 18 -29v-2l-19 -29l-36 86zM473 603l-6 -16l-28 -50l-24 -36l-4 8q-2 6 -7 14zM188 263l23 -74l29 -76l24 -57l24 -47l-46 2l-8 21l-17 61l-15 61l-4 24zM420 171q-3 -27 -9 -54l-10 -52l-5 -25q-3 -16 -7 -28q-18 -4 -29 -5q-5 0 -9 -1l59 141z
M452 140l11 -63l9 -61l2 -20l-18 -2l-4 72v74zM159 128l1 -5l5 -29q5 -31 30 -89h-56l-58 4l-57 6l-18 5l71 5l58 2h22q-3 27 -3 43q0 36 5 58zM743 34l-4 -23l-110 -9q-2 0 -13 -0.5t-20 -0.5l-28 -1h-27q-8 0 -15 1l87 16l56 8zM224 427q-3 -8 -6.5 -16.5t-5.5 -13.5
q1 -7 4 -14l6 -19q41 -128 91 -229l2 4l-1 2v3l-32 93l-30 94zM487 427l-15 -48l24 -94l23 -105l22 -110l7 1l-11 90l-17 104l-21 108z" />
    <glyph glyph-name="N" unicode="N" horiz-adv-x="637" 
d="M139 660q33 -11 69 -30q68 -36 112 -64l76 -51q21 -15 45 -19q7 -24 14 -57l2 -12l-170 129l-115 82zM393 662q54 -4 125 -18l-96 -3q12 -50 13 -64l-9 19l-10 19l-6 12q0 3 -12 24q-3 6 -5 11zM53 649l1 -12q8 -94 11 -142q4 -61 4 -94q0 -29 -1 -62q0 -24 -2 -82
q-1 -35 -3 -62l-6 -84l-2 -28q-1 -9 -6 -41l-1 130l-4 134l-6 112l-8 104l-10 106zM81 648q28 -14 84 -49q69 -43 89 -57l40 -27l56 -39l78 -57l10 -7.5t16.5 -11.5t18.5 -13l8 -5l-1 63l-1 12l-2 31q-3 71 -23 131h117l2 -141l-2 -114l-7 -210l-3 -144l-11 8l-46 41l-49 45
l-83 76l-65 53l-65 50l-51 35l-26 16l5 -64l10 -79l10 -67q3 -18 9 -45l4 -21l2 -8h-38l-84 -1q5 27 5 34l3 21v10l2 133l-1 162l-3 106zM273 643q9 -3 49 -17l16 -6q3 -1 25 -9q6 -2 10.5 -4t7 -3t6 -2.5t6.5 -2.5q20 -29 28 -51zM601 378l6 -93l4 -91l5 -194h-28l1 125
l8 214q1 29 4 39zM192 291l7 -6l70 -57l14 -11l55 -47l73 -66q22 -20 40 -38l-23 14l-53 42l-50 38l-65 43l-58 36q-3 1 -3 11q-1 1 -3 13zM213 185q8 -4 15 -8q6 -4 26 -18q28 -19 31 -22l50 -37q21 -17 34 -28l-84 37l-61 25zM237 62q48 -31 80 -60l-98 -1l-115 2l-32 2
q12 5 41 9l45 5l88 6zM157 448q1 -8 1 -18q1 -16 3 -24l6 -4q15 -11 91 -70q96 -77 254 -220v5l-66 67l-118 114l-69 63l-46 40z" />
    <glyph glyph-name="O" unicode="O" horiz-adv-x="700" 
d="M487 618l30 -12q19 -8 30 -12q17 -6 22.5 -10t15.5 -17q41 -56 70 -129q12 -28 12 -53v-12l1 -47l-1 -59q-1 -24 -9 -44l-6 -13q-9 -26 -40 -78q-10 -18 -23 -28.5t-42 -26.5q-16 -8 -93 -34q-28 -10 -54 -16q-45 -11 -58 -11q-25 0 -70 17l-119 44q-12 5 -19 14l-16 22
q-2 3 -6 7l-2 4l-29 45l-28 51q-12 19 -12 38v23v78q0 47 10 97q0 3 0.5 7t0.5 7l1 2q3 14 14 25l8 8q58 58 87.5 78t73.5 33l101 29l17 3q4 1 9 2h3q5 0 16 -4q2 0 14 -3q9 -2 23 -6zM500 650l30 -7l118 -30l12 -62l4 -21q6 -30 6 -52l-4 10q-19 42 -38 76l-11 17l-4 8
l-23 13q-2 2 -6 3q-2 2 -10 6q-8 5 -17 9l-41 20q-4 2 -9 5q-1 1 -3.5 2.5t-3.5 2.5zM166 616l-43 -36l-37 -34l-40 -41l-21 -23l7 52l37 27q32 25 50 32l23 12q12 7 24 11zM15 220q7 -9 8 -12l23 -40q30 -48 50 -76l18 -24l11 -5q34 -16 50 -23q32 -14 34 -15l-81 19
l-37 10q-16 3 -20 6.5t-12 21.5q-5 12 -16 41q-5 12 -12 34zM539 30l61 44l73 55q-9 -30 -14 -41q-1 -3 -6 -8l-19 -10q-30 -16 -59 -28q-14 -6 -36 -12zM353 580q-37 -32 -65 -73l-6 -66l-2 -73v-62l3 -41l7 -94l4 -8l20 -30q10 -16 30 -40l6 -7q36 27 54 54l13 18l2 4v63
l-3 108l-8 100l-9 78q0 4 -4 8l-1 3q-2 2 -4.5 6.5t-5.5 9.5l-12 18l-12 17zM419 572q13 -33 18 -50l5 -15q3 -8 3 -10l8 -55l7 -70l4 -73l2 -80v-35v-8q1 -4 1 -10q0 -10 -8 -25l-10 -17l-24 -42q35 37 56 68l3 85l-1 85l-6 111l-6 55q-22 43 -52 86zM177 545
q-33 -27 -41 -36l-31 -31l-15 -17l-4 -56l-2 -76l1 -57l2 -39l41 -62q1 -1 2 -3t3.5 -5t4.5 -6l14 -17q3 -5 21 -26l2 -1l-4 8l-4 6q-22 34 -38 71l-16 36q-6 13 -6 41v27l2 55l4 52l6 62q0 2 10 14l2 3l3 3q1 2 6.5 8.5t8.5 11.5q11 12 15 18l5 6q5 5 8 10zM343 526l15 14
q21 -40 21 -126q0 -29 -4 -61l-13 65zM318 453l5 -62l9 -56l13 -70l13 -59l7 -25q1 -2 1 -5q1 -1 1 -2q1 -2 1 -5l1 -2l-2 -8l-4 -13l-4 -10q-30 37 -47 85l-4 64l2 66l3 64q3 29 5 38z" />
    <glyph glyph-name="P" unicode="P" horiz-adv-x="596" 
d="M355 652q-66 -18 -213 -18q-68 0 -112 4h-9l14 4l59 9l25 3q45 5 108 5q75 0 128 -7zM389 647l89 -9l67 -9q6 -29 7 -39l-63 23zM533 560q1 -6 4 -14.5t3 -11.5q8 -25 11 -41l7 -37q0 -4 0.5 -7.5t1.5 -5.5v-2q0 -7 -9 -27l-12 -30l-21 -43q-8 -19 -14 -25.5t-25 -17.5
l-21 -13q-13 -7 -41 -21l-27 -12q-12 -6 -35 -6q-38 0 -74 8l3 -93l8 -81l4 -30l-110 1l-58 -2q-7 0 -37 -2q-31 -1 -38 -2l5 87l3 138v83l-3 121l-4 88l-2 23l-1 21q0 5 -1 9l124 -1l88 2l61 2l59 4h7q6 1 11 1q13 0 62 -22q42 -20 71 -41zM28 549l8 -65l5 -63l3 -131
l-2 -56l-9 -125q0 3 -0.5 6.5t-0.5 4.5q-3 15 -3 17l-2 20l-1 9l-3 100l-1 85l2 111zM581 418q-5 -23 -9 -36q-9 -34 -14 -47l-21 -57l-18 -7l-57 -17l-29 -7q7 3 9 5l18 10q12 6 44 28q17 11 33 41l13 22q13 25 24 50l3 7zM308 226l69 -1l-68 -28zM346 185l-13 -60l-9 -52
l-1 7q-5 25 -9 56q-3 24 -3 34zM377 173l-1 -71l3 -57l2 -22l-27 -1l2 35q1 22 13 84q5 27 8 32zM300 29l4 -21l-66 6l-56 6l-50 7q27 3 32 3l56 1h4q40 0 66 -2h10zM355 572q23 -22 35 -41q4 -27 4 -63q0 -33 -3 -60l-3 -26q-1 -14 -12 -28q-3 -4 -9 -13l-10 -15
q23 16 43 32l2 12q14 75 14 143v22q-12 10 -25 18q-25 14 -36 19zM99 560l4 -93l2 -105v-137l-5 -129l5 -1l8 85l8 113l5 140l2 127h-29zM291 557q-8 -58 -8 -125q0 -32 2 -78q0 -3 0.5 -8t0.5 -6q0 -8 8 -15q4 -2 8 -6q20 20 38 43q13 16 14 33l2 34q1 12 1 31v30v11
q0 9 -8 17l-9 9q-10 9 -23 17q-18 10 -19 12l-4 2q-2 0 -3 -1zM310 525l24 -18q3 -19 3 -43q0 -15 -1 -24l-9 24zM307 455l8 -20q1 -5 3.5 -13t3.5 -11l3 -13q1 -4 1 -7t-3 -8l-5 -10q0 -1 -2 -4t-3 -5l-3 31z" />
    <glyph glyph-name="Q" unicode="Q" horiz-adv-x="730" 
d="M484 661l24 -6q2 -1 15 -5.5t24 -8.5q32 -12 40 -17l34 -17q10 -5 15 -17l18 -37q0 -2 6 -14l-55 43q-3 2 -27 20q-3 2 -6.5 4t-5 3.5t-2.5 1.5q-18 12 -19 13zM290 646l-8 -3q-43 -16 -79 -32l-70 -32q-13 -6 -20 -14l-15 -17q-18 -21 -27 -32q-6 -7 -14.5 -17.5
t-11.5 -13.5l-18 -25l-8 -10q18 39 52 96q6 10 14.5 23.5t13.5 21.5q58 21 120 38l27 7l31 8q8 3 12 2h1zM359 643l60 -12l55 -14l19 -5l32 -11q20 -7 34 -18q42 -34 70 -66q12 -13 15.5 -20t7.5 -31l8 -33q11 -53 11 -146l-6 -14l-28 -49l-34 -52l-25 -33q49 -16 95 -22
l-24 -41l-35 -52q-33 13 -97 53l-52 -21l-21 -8q-3 -1 -9 -2.5t-8 -2.5l-37 -10q-30 -8 -38 -8q-2 0 -19 5l-16 4q-34 10 -87 33q-16 9 -20 9q-29 13 -42 25l-8 8q-27 23 -63 66q-25 32 -32 41l-16 24q-5 7 -6 12.5t-1 32.5q0 62 8 108q7 45 10.5 56t15.5 29l10 14
q5 7 17 23l25 30q12 14 21 18l12 5l20 11l33 14l8 4l5 2l49 17zM670 516q2 -3 3.5 -6l2.5 -5l1 -2l27 -58l7 -15q1 -3 1 -11t-1 -16l-4 -69q-1 -3 -2 -11t-2 -14q-2 11 -6 40q-3 18 -3 25l-9 55l-15 79v8zM699 288q-4 -27 -17.5 -73t-22.5 -66l-39 4l30 49zM33 209
q30 -32 66 -66q14 -13 27 -26l9 -10l7 -7q-23 15 -34 23l-29 19q-5 4 -34 24l-8 5zM700 111l-31 -83l-10 -23l-26 10zM517 57q3 -2 5 -4l13 -12q3 -4 14 -12l6 -6l-8 1l-24 5q-9 3 -56 4q6 4 15 7l24 11q2 0 11 6zM195 61q58 -23 117 -51l8 -4l-36 -12l-60 46zM345 576
q-24 -22 -43 -47q-13 -16 -15.5 -23t-3.5 -37v-15l-3 -79v-58l3 -73l4 -60q2 -19 18 -38q20 -23 44 -40l7 7l11 10q9 9 17 18q-40 26 -73 26h-9q15 23 57 68q24 -9 50 -24l4 63l1 89l-3 65l-6 76q0 5 -11 20l-9 14q-12 16 -40 38zM415 565l7 -10q11 -12 14 -19l15 -24l2 -6
l10 -132l1 -61l-2 -81l-3 -34q-1 -20 -11 -35l-13 -21q-11 -17 -18 -26q18 13 43 38l8 9q3 3 5 6l3 21l6 90l1 77l-2 73l-3 76q0 6 -8 13l-6 6q-18 17 -49 40zM167 521q-9 -9 -16.5 -18t-11 -13t-4.5 -5l-26 -33q-12 -14 -14 -32l-6 -36q-4 -26 -7 -63v-42q0 -15 5 -22
q36 -52 79 -92l6 -6q22 -22 37 -33l-42 50l-34 46l-33 50q1 47 9 91q9 64 19 84l8 17l4 8zM350 540q23 -24 32 -57t9 -91q0 -74 -9 -107l-10 56l-16 77q-1 4 -3 19l-2 19q-4 21 -4 50q0 14 3 34zM316 502l6 -76l9 -77l14 -72q-17 -14 -34 -36l-4 34l-3 71v65q0 8 0.5 18.5
t0.5 11.5l1 19q2 25 6 33z" />
    <glyph glyph-name="R" unicode="R" horiz-adv-x="644" 
d="M18 667l184 -2q2 0 6.5 -0.5t13.5 -1t17 -0.5l64 -4q34 -2 55 -6l-15 -2l-64 -4l-106 -3h-94l-61 2v21zM418 647l62 -9l126 -26l2 -90l-2 -69l-1 -18l-9 75l-4 24l-2 14q-3 12 -5 23l-2 9l-76 33zM54 625l201 -2l78 1l63 2q28 -2 86 -25q42 -17 85 -47q13 -33 13 -79
q0 -41 -11 -79q-5 -14 -36 -33l-25 -14q-13 -8 -14 -9l-54 -28q55 -21 65 -38l45 -68l36 -51l31 -38q-56 -37 -96.5 -55.5t-109.5 -38.5l-5 14l-36 78l-28 54q-31 62 -62 96v-58l6 -84l6 -57l3 -16l-127 1l-108 -4l4 66l4 143v159l-1 74l-4 88q0 7 -7 39zM20 619
q25 -55 28 -106l2 -59v-10v-11v-30v-35q-2 -31 -3 -37l-10 63l-9 71l-6 80zM565 349q-25 -37 -25 -71v-14l-7 10q-22 27 -45 43zM581 318q13 -49 38 -107q-6 5 -22 23q-29 33 -29 54q0 5 6 17q1 1 3.5 5.5t3.5 7.5zM545 256l47 -51l33 -34l-3 -25q-12 11 -27 31
q-23 30 -32 47l-7 12l-7 12zM297 200h1q13 -46 16 -63l22 -95l-20 -3l-9 52l-7 59zM331 148q26 -57 53 -138l-20 -9l-15 55l-13 57q-4 19 -5 35zM590 79l29 17l-7 -25l-70 -24l-27 -8zM261 23q-18 -5 -47 -9l-33 -5q-79 -10 -142 -12l-10 -1l-4 22q74 7 161 7q49 0 75 -2z
M346 580q22 -18 38 -38q10 -11 11 -33q0 -9 1 -20q1 -8 1 -17l1 -41q0 -11 -4 -20l-13 -23q-5 -8 -18 -27l-6 -8q23 17 60 54l1 30q1 11 1 38q0 43 -2 61q-27 22 -70 45zM110 569l2 -56l2 -109l-2 -155l-4 -148h7l10 111l5 85l4 81l2 92v99h-26zM286 562l-6 -62l-2 -59
l1 -81l29 -4q22 24 29 35l19 27q5 8 5 20l-1 37q0 5 -3 29q-2 24 -14 31q-27 18 -57 27zM354 286l-28 -9l17 -25l31 -49l60 -113l-21 69l-32 71zM302 534q22 -9 34 -19q1 -1 3 -7q0 -1 1 -16t1 -20l-1 -2q0 -2 -0.5 -6t-0.5 -7q0 -5 -1 -9zM303 481l4 -11l17 -60
q-2 -2 -5 -9l-5 -9q-2 -2 -6 -9l-5 75v23z" />
    <glyph glyph-name="S" unicode="S" horiz-adv-x="543" 
d="M25 15q-1 5 -1 9l-1 12q0 1 -2 15l187 -48l-30 1l-66 3l-31 3l-20 2l-20 2q-9 0 -16 1zM390 23l-74 -6l24 6l46 14q39 11 62 27q33 24 47 37l16 16l7 5q-9 -15 -18 -27l-10 -15l-4 -6l-34 -40zM207 26l-19 4l-55 14l-13 5l-10 3q-33 10 -91 35l-1 28l90 -45zM54 127
q25 52 65 101l10 -11q30 -40 71 -78h6q38 0 66 6l19 5q9 2 14 14l5 13q4 9 5 19l-16 11l-49 33l-32 18l-55 27l-21 24q-7 5 -21 26q-9 12 -10 14l-26 36q-15 22 -15 30q0 21 7 60q9 50 34 95q44 32 81 46l37 13q39 15 47 15q13 0 46 -12l46 -18q71 -27 116 -58
q-29 -66 -72 -105q-45 58 -114 106l-7 -4q-40 -25 -40 -44q0 -6 1 -13l1 -11q0 -5 2 -10l95 -58l49 -27q13 -8 18 -9l19 -12q17 -9 23.5 -16.5t20.5 -32.5q36 -64 36 -96v-2q-1 -1 -1.5 -4t-0.5 -5l-2 -14q-4 -16 -16 -46q-17 -39 -32 -50q-1 -1 -19 -14q-40 -29 -92 -41
l-20 -4l-10 -2l-55 -9q-3 -1 -10 -1q-9 0 -36 10l-30 12q-15 5 -26 12l-43 22q-24 11 -37 20l-20 12q-3 3 -12 7zM49 164l16 56l7 24q11 37 11 70q0 13 -4 32l49 -64l-4 -6q-10 -12 -21 -29l-8 -10l-26 -38zM215 162l-8 1l-6 7q-32 42 -54 84l54 -54l40 -37zM25 183v60l4 38
l8 58l4 27l2 11q0 1 0.5 4t0.5 6q9 -27 8 -46v-27q-1 -5 -1 -10l-9 -54zM277 167q-8 12 -12 16l-21 22q-17 18 -25 24q28 -9 70 -39q-3 -8 -7 -16q-1 -1 -5 -7zM525 268q-2 6 -3 8q-1 3 -8.5 20t-11.5 26q-10 24 -20 43l41 -13zM384 424l-50 27l-18 10l-15 9q-6 4 -12 7
q-10 4 -10 15q0 13 8 29q55 -45 97 -97zM472 426l-28 11l4 7q33 53 42 69q16 26 17 28q-1 -15 -11 -49q-5 -14 -13 -36t-11 -30zM51 485q0 5 0.5 11t0.5 7l1 11q0 3 1 7.5t1.5 12.5t1.5 15l8 64q16 7 37 15l38 12l9 3l60 16l-62 -37q-17 -11 -22 -15l-14 -9
q-17 -11 -21.5 -16t-8.5 -16l-12 -28q-2 -4 -5 -12.5t-5 -13.5l-5 -18q-2 -2 -3 -9zM505 590l-53 19l-57 23l-36 16l9 -1l84 -17l66 -12zM348 153q21 26 26 62l-8 6q-37 30 -70 54l-17 12q-29 21 -38 25q-27 15 -33.5 20.5t-20.5 24.5l-18 25q-29 38 -31 55l1 10l2 23
q3 23 13 52q3 10 20 27q7 8 24 22l10 9q1 0 10 7q-27 -11 -43 -22l-24 -15q-15 -10 -20 -17.5t-9 -28.5l-8 -35q-3 -12 -3 -24l-1 -13l-1 -7q2 -6 4 -10l5 -6l16 -24q4 -7 15 -21q2 -3 19 -24l8 -9q13 -16 30 -25l15 -8l9 -5l52 -31q6 -3 13 -8t9 -6l22 -16q7 -4 19 -11
q12 -8 12 -18v-10q1 -10 -9 -40z" />
    <glyph glyph-name="T" unicode="T" horiz-adv-x="566" 
d="M476 664l66 2l3 -17l4 -61q-2 3 -3 7l-2 2v1l-9 22q-2 6 -10 22l-92 -3l-121 -3l-148 4l71 8l119 11zM47 617l74 -2l108 -1l125 1l158 8l19 -50l18 -65l5 -21q-49 27 -102 40l-65 15l-1 -91l-1 -145l2 -109l4 -86q0 -9 7 -51q1 -2 1 -6q1 -3 1 -5h-126l-110 -3l7 66l4 77
l2 111l-1 117l-2 76l-2 47q-102 -14 -160 -48l9 36zM152 516l4 -48q3 -38 3 -101v-39l-12 74q-1 9 -10 46q-1 5 -6 25q-27 3 -40 3q-23 0 -56 -7l-12 -2q54 31 129 49zM417 510q22 -8 39 -16q-23 -83 -35 -189l-8 -72q-1 -4 -1 -9l-3 66l-1 60l2 84l1 17l2 24q0 9 3 26z
M486 480l28 -17l-4 -8l-7 -11q-18 -29 -32 -63l-19 -48l1 12q10 71 33 135zM109 440q0 -1 1 -10l5 -30q1 -7 6 -47l2 -14t1.5 -11t0.5 -5l4 -59q0 -5 0.5 -10t0.5 -8l1 -3v-8q-1 3 -2 5.5t-1.5 4.5t-1.5 3v2l-12 56q-1 4 -5.5 21t-7.5 29q-2 8 -5 17.5t-4.5 15t-2.5 8.5
l-10 31l-4 13q4 1 8 1q9 0 26 -2zM412 190l22 -74q0 -2 3 -8l10 -29q7 -18 17 -39q-18 4 -34 4q-3 12 -6 27l-4 19q-3 22 -6 61q-2 14 -2 39zM141 140q2 -28 2 -35l1 -56l-1 -27l56 3l48 2l32 -1q23 0 55 -5l-84 -7l-77 -11l-52 -10l10 64l8 72q0 1 0.5 2.5t1 4t0.5 4.5z
M228 546l-3 -276l-7 -171l6 1q4 35 5 42l8 88l9 129l5 88l2 65v35z" />
    <glyph glyph-name="U" unicode="U" horiz-adv-x="669" 
d="M616 660v-20l-91 -4h-60l-67 4l-25 3l13 3l87 7l70 4zM99 634l107 14l-34 -11q-87 -28 -149 -54v37zM199 619l77 19q17 -52 17 -121q0 -26 -1 -44q-1 -21 -1 -40v-17q0 -8 -1 -29.5t-2 -43.5q-2 -34 -2 -50l-6 -108v-9q33 -26 82 -27l5 237v83q0 80 -8 138l-1 11l66 -1
l170 2l-4 -41l-3 -71v-126l2 -145l6 -126q0 -8 7 -60h-100l-96 -2l-26 27q-23 -20 -53.5 -37.5t-42.5 -17.5q-37 0 -95 20q-38 13 -52 27l-24 24q-6 7 -20 23l-19 24q-9 11 -10 27v26l-1 14l1 55l6 98l2 70q1 16 1 44q0 44 -7 66l-5 24l-2 8l52 21zM22 564q31 -45 31 -131
v-10l-7 -120l-10 -125l-8 66l-4 64l-3 113zM617 505q2 -26 2 -27q0 -34 1 -56l6 -123l7 -102l15 -150q-10 1 -23 1l-8 63l-5 67l-3 105l1 67l2 79q3 59 5 76zM318 483l1 -7l5 -59l8 -162l2 -76q-17 7 -33 18l4 118l7 106zM69 105l11 -12q48 -51 83 -78l-23 6q-15 4 -54 19
l-9 4zM375 50q3 -5 4 -5l11 -18l2 -3l5 -5l-55 2q20 15 33 29zM652 25l5 -25l-129 7l-114 11q46 9 120 9q85 0 118 -2zM205 -19l-71 1l-49 3l-4 27l7 -2q16 -4 55 -12q31 -7 62 -17zM405 563l2 -53l2 -82v-70l-2 -112l-4 -142l6 -1l17 238l5 109l2 73v40h-28zM138 545
l-26 -8l2 -48v-120l-4 -100l-3 -62l-2 -28v-16q32 -43 76 -78q-2 2 -4 5l-2 2l-38 51q-16 23 -15 28l6 75l7 128l2 87z" />
    <glyph glyph-name="V" unicode="V" horiz-adv-x="574" 
d="M188 672l-123 -48l-55 -24q0 2 0.5 5t1 5t0.5 3q1 11 2 19l56 15l77 17zM546 649l-75 -3l-48 -3q1 -11 1 -25q0 -65 -20 -125l-2 32q-4 73 -26 145q6 1 13 1q5 0 62 -5q42 -5 95 -17zM280 665l34 -101l15 -39q7 -20 17 -39q11 -23 30 -59l5 -9l-22 -62q-2 6 -4 10.5
t-3.5 7.5t-1.5 4l-11 29l-4 10l-15 51l-17 69l-15 77q-6 30 -8 51zM197 633l58 13l15 -72l22 -82l38 -122l25 -75l6 11l27 58l29 70q9 20 23 64q18 60 18 110v11h115q-4 -26 -14 -52l-17 -47l-45 -113l-41 -92l-33 -72l-42 -86l-73 -145l-17 20l-39 57l-31 50l-36 62l-37 72
l-41 83l-37 81l-2 6l-12 25l-12 27q-17 36 -43 59q18 12 55 30q46 21 66 26zM544 431q-16 -49 -24 -72l-11 -31q-31 -89 -93 -235q-21 -46 -30 -64q-23 -8 -45 -13l44 96l79 160zM45 420l48 -98l42 -82l49 -89l58 -98l22 -36q-17 2 -36 6l-7 10l-31 48l-30 56l-25 52l-31 70
l-27 68l-28 79zM542 341q-1 -6 -2 -12.5t-2 -12.5l-15 -74q-5 -26 -21 -96l-19 -79l-2 -9q-18 -7 -36 -12l34 108l42 128zM73 243l24 -57l32 -72l37 -79l-41 12l-6 17l-17 54l-13 51l-8 31q-7 29 -8 43zM81 539l7 -19l62 -141l48 -99l59 -113l33 -59l2 1l-43 92l-44 98
l-36 90l-29 75l-30 85z" />
    <glyph glyph-name="W" unicode="W" horiz-adv-x="791" 
d="M467 679q18 -22 45 -61q2 -3 21 -32q1 -1 7 -10.5t10 -15.5q4 -7 8.5 -13.5t6.5 -9.5t3 -6l25 -41q10 -16 11 -20q0 -1 -5 -19q0 -1 -7 -23l-33 59l-46 89l-31 66zM590 666l144 -1l22 -1q22 -1 34 -3v-1l-59 -9l-66 -7l-47 -3q4 -25 4 -49q0 -42 -10 -86l-3 32zM373 655
h1h9l16 -1h9l-31 -62l-26 -57l-11 -22l-12 -24l-4 -8l19 74zM277 653q1 -6 1 -12l2 -22q6 -55 13 -96l11 -59l2 -8l-8 15l-18 54q-14 44 -23 93q-1 6 -3 30q14 4 23 5zM72 644l97 7q-6 -3 -7 -3t-4.5 -1t-9.5 -2.5l-14 -3.5l-10 -2.5t-9 -1.5q-51 -12 -108 -34l2 9l2 13
q1 2 1.5 6t0.5 6zM436 653l29 -44l30 -51l36 -63l47 -91l20 -40l20 47q32 76 32 173q0 8 -2 36l130 1q-5 -47 -33 -121l-46 -118l-72 -181l-51 -122l-29 -66l-15 22l-37 58l-40 72l-29 55l-33 69l-71 -129l-69 -118l-13 -21l-16 25l-28 50l-22 43l-33 73l-29 71l-32 90
l-34 100q-18 50 -45 91q30 15 50 24l50 18l103 29l23 6l25 -96l15 -47l26 -68l14 -33l63 134l29 57zM20 430q4 -10 15 -39q8 -24 24 -59l16 -37l6 -12l59 -127l69 -137l-10 2q-19 3 -40 8l-39 92l-28 67l-32 86l-21 69l-14 54q-4 15 -5 33zM772 416l-30 -125l-65 -242
l-32 -10l18 70l24 83l25 77l23 62l25 59zM714 343l-6 -26l-48 -137l-10 -32l-34 -119l-37 -14q1 4 3.5 11.5l3.5 10.5l9 27l25 68l34 83zM394 235l31 -63l30 -57l29 -50l26 -40q-3 0 -6 1h-3l-18 4q-6 2 -14 3.5t-13 3.5l-22 58l-10 31l-20 65zM371 207l-26 -73l-39 -102
q-14 -5 -37 -8l34 59zM101 549l-24 -9l2 -10q33 -119 82 -242l26 -64q7 -18 21 -52q11 -28 21 -45l3 3q-1 3 -2 7l-1 3l-8 18q-2 6 -11 30l-40 114l-28 87l-24 86zM433 364l-15 -28l51 -103l45 -83l18 -30l-32 88l-36 86q-2 5 -21 49q-6 12 -10 21z" />
    <glyph glyph-name="X" unicode="X" horiz-adv-x="590" 
d="M353 657l97 -4l101 -10l10 -3l-102 -5l-77 -3q2 -11 2 -21q0 -22 -12 -53v5l-1 3l-1 19q-2 36 -17 72zM251 656l43 -55l19 -22l20 -25q9 -9 27 -21q-15 -23 -27 -35l-44 75l-26 51zM173 621l58 16q32 -73 94 -177l5 -7l52 72q24 33 28 91l146 1q-14 -46 -39 -77l-6 -8
l-129 -168l132 -215q29 -48 49 -101l-127 1l-87 -2l-21 -2q-33 81 -78 145q-58 -82 -74 -142l-95 1l-43 -1q10 25 25 48l29 46l40 56l36 44l30 36l-48 78l-42 65l-35 48q-13 17 -34 41q-4 4 -12 12.5t-12 12.5l-7 8q20 15 36 22l20 11l10 5l45 20zM123 632l-59 -31
q-13 -7 -55 -26l-8 -3q2 21 3 30l73 19zM573 514q-1 -11 -10 -43q-16 -66 -16 -134q0 -19 3 -49l5 -33q0 -4 1 -8q-36 73 -43 140l17 42l15 31zM536 517l-30 -52q-9 -13 -28 -57q-29 -62 -31 -109l-36 62l16 26l38 51l37 43zM76 414q10 -8 22 -24q32 -44 40 -61l29 -57
l-52 -60l-36 -46l-27 -36q10 41 64 126l12 17l-28 81zM57 386q15 -26 38 -87q4 -12 4 -17q0 -9 -11 -27q-18 -31 -40 -72l-4 -9l25 85q3 12 3 24q0 34 -6 62l-7 33zM496 338q10 -64 25 -109q3 -7 7.5 -20t8 -22t5.5 -13q10 -24 11 -27l-56 78l-20 29q8 50 19 84zM249 148
q-16 -43 -20 -60t-7 -55l-26 -1q10 68 53 116zM267 121q22 -36 39 -86l3 -10l66 2l41 -1l96 -3l77 -5l-246 -16l-65 -6v21q0 18 -2 42zM152 30h18q-17 -5 -57 -13q-27 -5 -59 -14l-15 -4q-1 -1 -11 -4q0 2 -0.5 3.5t-0.5 2.5q0 5 5 20l65 6zM122 529l-29 -14l70 -103l55 -85
l139 -232h5l-84 157l-101 183z" />
    <glyph glyph-name="Y" unicode="Y" horiz-adv-x="557" 
d="M544 640l-107 -5l-37 -3l1 -8q2 -28 2 -32q0 -26 -12 -63l-1 9q-4 59 -22 112q14 1 30 1h10l26 -1h18q28 -2 65 -6q5 0 27 -4zM269 650l17 -34l31 -55q0 -1 9 -15l13 -19q18 -27 41 -32l-5 -10q-9 -19 -19 -34q-44 55 -68 129l-11 33q-8 24 -8 34v3zM155 638l-75 -29
l-79 -36q0 1 0.5 3.5t1.5 3.5q1 3 1 7q1 3 1 4l3 10q0 3 1 6l36 11q54 15 101 19zM248 637q19 -89 107 -233q36 54 52 97q19 45 19 82q0 7 -2 33l81 1l51 2q-14 -81 -68 -154l-37 -48l-11 -17q-8 -11 -37 -61q-10 -20 -11 -45l-1 -25l-1 -93q0 -16 1 -30q0 -22 1 -34
q0 -7 0.5 -13.5t0.5 -8.5l4 -32l1 -3v-6l-78 2l-157 -2l3 18l6 57l3 55l1 64l-1 52l-42 76l-35 58l-41 62l-42 60q80 52 233 86zM524 472l-27 -50q0 -1 -4 -9l-18 -36q-29 -60 -42 -113l-9 -35v-1q-1 -2 -1.5 -4t-0.5 -4l-2 18q0 1 -0.5 12t-0.5 21v19l1 27q0 16 14 35
l31 45l11 15l9 12l20 26q17 19 19 22zM35 470q12 -12 23 -28l23 -34q1 -1 3.5 -5t6 -9.5t7.5 -13.5q18 -27 31 -51q13 -23 15 -25q4 -8 4 -13v-15q0 -4 -0.5 -12t-1.5 -11v-16q0 -21 -1 -31l-2 -58q0 -5 -1 -12l-21 96l-18 70l-13 41l-30 73zM492 320l-20 -82l-16 -79
l-9 -57l-4 -52q-15 33 -15 75q0 54 32 132q19 45 32 63zM65 270q20 -38 34 -75l6 -18q8 -18 10 -31l18 -68l-12 -58l-22 109l-18 76q-3 15 -10 36q-3 15 -6 29zM360 26h81l-2 -26l-90 9l-80 10l17 3zM119 540l-29 -12l16 -25l32 -55l42 -78l25 -50l13 -26q0 -1 1.5 -4
t1.5 -5l1 -43l-2 -69l-4 -59l-2 -16l17 92q1 2 1.5 7.5t0.5 8.5q0 9 0.5 17t1 12t0.5 5q4 27 4 38q0 28 -45 107l-48 103z" />
    <glyph glyph-name="Z" unicode="Z" horiz-adv-x="599" 
d="M59 662l126 -6l108 -10l-83 -4l-88 -2h-39l-8 -13l-29 -58l3 31zM311 618l263 3q-8 -62 -42 -118l-46 -81l-37 -68l-34 -68l-34 -76l-26 -68l-7 -20l11 2l56 13l52 13q4 2 26 8.5t31 9.5l3 -5q38 -60 57 -117l-125 2h-318l-117 -2q17 56 48 112l24 41l102 162l29 49
q23 39 49 94l9 24l-21 -1q-98 -7 -153 -25l-54 -18q10 49 23 80l22 55zM244 494l-28 -52l-34 -60l-44 -71l-46 -69l24 62l59 134l14 34l6 18h5l3 1l17 4q13 3 22 4zM154 477l-24 -67l-26 -61l-37 -77l-48 -94l-9 -16l43 115l20 56l20 64l3 13l6 23l4 19q1 1 1 2t0.5 1.5
t0.5 1.5q32 15 46 20zM552 462q-1 -3 -2.5 -6l-2.5 -5t-1 -3l-10 -22l-2 -2q-1 -3 -3 -8t-4 -9q-1 -4 -4 -10.5t-5 -9.5q-6 -12 -8 -18l-19 -46l-21 -55q-9 -26 -17 -58q-5 -20 -6 -32l-48 -15l7 19l20 54l14 31l27 54l47 83l29 46zM590 449l-2 -90l-4 -80l-24 95zM535 307
q14 -29 29.5 -87.5t18.5 -97.5l-4 8l-8 14q-20 35 -41 60l-34 -13l22 69zM394 25l176 -2l16 -1l-2 -19l-237 -1l-139 1l-121 4l-45 3l63 5l84 6l79 3zM369 529h-32l-4 -8l-15 -28l-12 -24l-19 -35l-13 -23l-6 -12q-6 -11 -15.5 -28t-12.5 -22l-50 -84l-67 -106q0 -1 -9 -17
l-11 -19q-5 -9 -13 -25l7 -1l51 82l85 130l57 89l49 79z" />
    <glyph glyph-name="bracketleft" unicode="[" 
d="M220 729l40 2v-11q0 -12 -1 -28v-11q-9 -2 -45 -8q-6 0 -20 -3l-6 -141l-3 -109v-89l3 -170l3 -86l9 -66l2 -8q32 -9 58 -20q3 -11 3 -15l4 -20q1 -1 1.5 -4t0.5 -5q-14 -3 -22 -3q-5 0 -27 2l-29 4q-13 2 -62 7q-13 2 -41 4l-2 194l-1 190l4 389zM223 652l28 5l-10 -116
l-20 -185l-3 27l-2 189l5 67zM219 256l23 -171l12 -75l-27 5l-5 113l-4 117zM45 54l12 91l1 -89l6 -121l68 -17l28 -8q-25 -2 -47 -2h-9l-68 3zM45 629l-7 143l68 3q11 0 22 -1h33l-28 -10l-69 -16l-6 -121l-2 -89z" />
    <glyph glyph-name="backslash" unicode="\" horiz-adv-x="460" 
d="M140 739l17 -102l17 -63l-8 17l-41 97l-14 48zM446 -45l-67 -30l-7 24l-197 427l-68 140l-94 180q41 23 73 33l4 -13l194 -426zM289 76l43 -98l20 -58h-29l-5 39z" />
    <glyph glyph-name="bracketright" unicode="]" horiz-adv-x="299" 
d="M81 730l128 -5l5 -389l-1 -190l-2 -193q-55 -5 -102 -11q-34 -5 -49 -5q-14 0 -29 1q0 2 0.5 4t0.5 4l1 1l4 21q2 8 4 15l12 4l39 14q3 2 8 4l10 72l2 86l3 169l1 89l-10 251q-14 2 -19 3q-31 4 -44 9q-3 21 -3 31q0 1 0.5 7t0.5 11zM49 655l29 -2l6 -80l-1 -188l-3 -27
l-26 240zM82 257l1 -10l-4 -117l-6 -113l-26 -5l12 74zM254 56l8 -144l-68 -3h-8q-3 0 -8.5 0.5t-16.5 1t-23 0.5l29 9l68 16l6 121l1 89zM254 630l-12 -90l-1 89l-7 121l-68 15l-26 9q34 2 53 2l68 -2z" />
    <glyph glyph-name="asciicircum" unicode="^" 
d="M621 330h-106l-164 281h-3l-162 -281h-105l230 382h78z" />
    <glyph glyph-name="underscore" unicode="_" horiz-adv-x="500" 
d="M0 -167v85h500v-85h-500z" />
    <glyph glyph-name="grave" unicode="`" horiz-adv-x="418" 
d="M77 681l24 -9l-16 -31l-18 -37l1 29l4 30zM131 659l41 -17l62 -29l78 -42l1 -1v1l14 -8l-4 -9l-83 11l-82 15l-67 15l8 17l15 25q4 7 17 22zM261 630l48 -13l42 -12l-11 -19l-79 42v2z" />
    <glyph glyph-name="a" unicode="a" horiz-adv-x="571" 
d="M192 510l-57 -21q-35 -14 -69 -31q-1 3 -2 5t-2.5 4.5t-2.5 4.5q-3 7 -8 20l76 11zM396 499q26 -5 56 -15l29 -10q42 -14 72 -27l-4 -89l-2 -24l-7 -57q0 -2 -0.5 -5t-1 -5t-0.5 -3l-4 -29q-4 -27 -10 -56l-2 139q0 2 -2 28q0 5 -0.5 13t-0.5 11l-2 30q-2 11 -2 22
t-10 15l-9 6q-10 6 -19 12q-19 12 -36 20q-27 13 -45 24zM510 47l-67 3l-79 1l-24 -2l-22 30q-29 -11 -51 -23l-49 -25q-47 1 -121 34q-43 43 -69 87q1 50 11 87q4 15 20 37q15 21 30 36l10 10q5 5 9 10l10 3q27 9 36 11l18 4l18 5l40 7l68 8q-9 46 -43 72q-63 -23 -121 -80
q-31 32 -56 75l6 3l2 1q2 1 6 2.5t8 3.5l2 1q3 1 7 2.5t7 3.5q93 41 189 41q15 0 61 -19q43 -18 92 -52q7 -5 16 -11q13 -9 15 -22l5 -25q8 -50 8 -128q0 -11 -0.5 -28.5t-0.5 -24.5l-2 -36v-21q0 -27 9 -72zM42 452q2 -3 4.5 -7t3.5 -5l5 -7l28 -44q6 -11 21 -29
q-1 -1 -3.5 -2.5t-3.5 -2.5q-18 -15 -22 -19l-11 -11q-2 -1 -8 -7l12 56l-20 57q-5 18 -6 21zM246 406q18 -5 29 -21l-73 -10q6 4 7 5q8 7 17 13l8 4q3 3 12 9zM20 116h1l6 -7q16 -20 30 -34q19 -19 45 -32l24 -12q9 -5 10 -6q-9 1 -25 5q-34 8 -50 11q-36 9 -43 11zM259 30
l49 24l15 -26zM490 27l26 -2l8 -22l-58 11l-26 3l-84 8q38 4 74 4q6 0 11 -1zM311 451q14 -26 18 -34l10 -19q4 -8 5 -31l1 -33v-29v-46l2 -150l12 100l12 122q0 7 1.5 20.5t1.5 17.5q0 13 -16 31l-12 15q-3 3 -13.5 14t-21.5 22zM235 132q18 -12 29 -12q6 0 22 11q7 5 8 22
l2 50l1 77l-1 34q-6 -2 -11 -4l-26 -13q-13 -6 -16.5 -10t-7.5 -17l-11 -33l-6 -17q-4 -11 -4 -16t5 -23l13 -40q2 -1 3 -9zM141 305l-20 -19q-13 -12 -19 -19l-14 -14q-8 -7 -9 -14l-6 -29l-3 -23l-3 -16v-7q0 -4 4 -9l1 -1q2 -2 4 -4.5t3 -4.5q8 -11 45 -53q-16 27 -23 42
l-9 19q-5 10 -5 15t4 23q3 11 6 29t8 25zM259 268l1 -2q7 -46 7 -84v-37q-13 8 -21 36q0 1 -1 3t-1.5 4.5t-1.5 4.5q-3 9 -3 14q0 1 2 7l5 18q5 18 13 36z" />
    <glyph glyph-name="b" unicode="b" horiz-adv-x="601" 
d="M278 654v-68l-1 -83v-74q47 24 99 43l25 8q7 3 11 3q8 0 43 -21q24 -14 50 -34l5 -8l2 -3q2 -3 5.5 -8.5t6.5 -10.5l16 -28l14 -26q9 -18 9 -37v-12l-2 -76l-4 -59q-1 -12 -9 -22q-4 -4 -8 -10q-24 -33 -55 -61l-32 -12q-21 -9 -56 -17q-38 -9 -47 -9q-24 0 -63 18l-10 3
q-7 2 -14 4.5t-11 3.5l-3 1q-29 12 -36 12q-6 0 -24 -6q-1 0 -15 -4q-58 -14 -120 -44l-1 6l11 189l5 136l1 79v11q0 47 -12 93l-11 45l9 4q31 16 59 27l37 14l58 17zM120 641l22 2l-56 -24q-31 -13 -42 -20l-16 -9q-7 -4 -9 -5l-1 32q8 2 10 3q4 1 7.5 2t5.5 2h2l20 6h4
l2 1zM335 620q63 -83 119 -119l-92 23l-15 48q-9 28 -12 48zM307 582l21 -80h8q26 0 42 -3l-11 -5q-35 -15 -74 -34l6 48l6 57zM18 569q7 -15 16 -45q16 -62 16 -111v-9l-3 -73l-5 -72l-6 -58l-5 73l-9 152l-3 71zM498 483q13 -6 38 -20l25 -14l8 -4q8 -33 11 -55l2 -24
q1 -12 1 -16q0 -1 -0.5 -3t-0.5 -4l-22 41l-29 49zM583 139v-2l-4 -9l-12 -25q-23 -48 -40 -78l-60 -7q-33 -4 -58 -5l-10 -1l90 29l60 62l19 21q8 8 8 9q5 5 7 6zM288 15q-7 -1 -13 -1l-52 2q-68 2 -144 -25q16 14 49 28l46 21l19 7q7 4 11 4t11 -3l4 -1l10 -4
q26 -8 59 -28zM423 -2l126 7l-10 -22l-117 -1l-94 3l34 6zM137 559l-31 -8l2 -116l-1 -52l-3 -122l-8 -173l7 1l11 105l13 153l7 124zM363 397l15 -39l-1 -2h1q11 -33 15 -54q3 -9 3 -10q3 -13 3 -19l-5 -56l-9 -75l-7 -40h1l11 30l15 55l14 58q6 30 6 40q0 12 -20 48
t-42 64zM274 348l-3 -34v-58l5 -59q0 -1 0.5 -4.5t1 -9.5t0.5 -10q3 -19 3 -25l2 -8l3 -23q1 -1 1.5 -4t0.5 -4q18 1 37 7l9 2l11 38q2 10 4 16l7 35q6 25 7 46l-21 73l-14 41q-38 -11 -54 -19zM318 337q1 -4 1 -11q0 -4 -2 -12l-22 -88l-2 33l-1 64l12 8q10 6 13 6h1z
M335 277q3 -16 3 -26q0 -37 -18 -84l-7 -19q-1 -2 -2.5 -6t-2.5 -6l-1 -1q-4 15 -4 26q0 17 7 40l18 58z" />
    <glyph glyph-name="c" unicode="c" horiz-adv-x="499" 
d="M463 491l-11 -24l-88 26l-71 18q8 1 15 1q76 0 155 -21zM216 510l-53 -30l-59 -35q-32 -19 -37.5 -24.5t-16.5 -29.5l-7 -12q-1 -3 -4 -8t-5 -9.5t-4 -8.5q-5 -11 -10 -17l7 52l6 35l38 24l51 26l50 22l30 11zM439 444q-15 -32 -49 -81q-40 38 -80 61q-14 -7 -15 -8
l-16 -10q-14 -8 -17.5 -12t-4.5 -16l-3 -24l-1 -14q-3 -26 -3 -36l3 -133q1 -15 3 -20q1 -1 2.5 -3.5t2.5 -3.5l12 -15q13 -16 17 -18t16 -3q7 0 12 -1q46 30 79 62l7 6q25 -25 50 -62l5 -7q-58 -45 -121 -64l-20 -6q-37 -10 -45 -10q-11 0 -58 14q-52 16 -104 47l-17 11
q-15 8 -22 26l-9 23q-14 41 -23 87q-4 14 -4 15q-2 16 -2 18v2q1 2 1.5 5t0.5 6l6 33q8 42 38 94l50 26l26 11q92 43 121 43q9 0 24 -4q12 -4 25 -7q25 -5 71 -19l33 -11zM460 440l-19 -114l-3 -20q-4 6 -5 7l-9 11q-5 7 -15 18l30 56zM321 390q-10 -35 -14 -62q-1 -3 -1 -6
l-2 -7l-6 -53l-3 -50l-2 -69q-23 37 -23 105q0 14 2 46q2 19 4 33q5 35 17 50q10 13 23 13h5zM421 220l4 -8l6 -11l30 -59q2 -2 7 -15l-39 49l-28 32l7 4q1 1 5.5 3.5t7.5 4.5zM392 205q-17 -19 -30 -31l-41 -35h-2l6 46q37 6 67 20zM18 205l3 -6l3 -9q22 -58 43 -101
q13 -8 26 -14l21 -12l32 -17l46 -23q20 -11 36 -18l11 -6l-60 15l-58 20l-73 27l-6 24l-13 56zM472 87q7 -10 9 -13l3 -6q3 -3 4 -5q-38 -19 -96 -32q-30 -8 -50 -9l40 16l53 27q12 6 28 17q1 0 4 2t5 3zM185 89q-27 22 -33 28l-22 20q-8 7 -12 23l-12 42l-7 31q-5 25 -5 35
q0 15 8 46.5t17 50.5q19 19 67 53q1 1 9 7q-28 -10 -52 -21l-24 -12q-12 -5 -15.5 -9t-8.5 -18l-16 -44q-5 -15 -9 -31q-3 -15 -3 -20q0 -10 6 -33l11 -36q7 -24 23 -62q4 -9 39 -29l29 -16q2 0 10 -5z" />
    <glyph glyph-name="d" unicode="d" horiz-adv-x="598" 
d="M528 643q3 -27 4 -32l1 -24q0 -6 0.5 -12.5t1 -10t0.5 -4.5l-1 -55l-1 -56l-1 -245l6 -77l8 -61l4 -19l-83 2l-73 -1q-2 0 -7 5q-2 2 -17 12q-1 1 -5.5 4.5t-8.5 6.5q-2 1 -11 8q-88 -52 -160 -58l-34 22q-24 15 -56 41.5t-45 42.5l-13 17q-5 6 -6 14l-1 8l-3 28
q-4 25 -4 50q0 38 8 73q1 6 10 21q3 3 7 12q40 64 56 82q4 5 22 13q1 0 3 1l5 2.5t6 2.5q43 21 92 31l9 -3q49 -17 94 -42v65q0 22 -13 69l9 5q41 21 75 33q52 18 85 24l15 2q15 3 21 3h1zM409 642l-75 -31l-52 -20q10 17 14 31l7 1q66 19 100 19h6zM273 579q-3 -14 -13 -33
l-7 -17l-3 -6t-4 -7.5t-5 -7.5q-11 3 -15 3l-19 5q-4 0 -12 4q49 23 78 59zM300 564q13 -43 16 -88q-12 6 -37 15l4 10q12 27 17 63zM567 531l1 -9l6 -149l5 -184l1 -92q-14 40 -19 71q-10 48 -10 93l2 125l4 68l6 61zM124 492q-10 -8 -11 -9q-20 -15 -32 -29l-17 -25
l-36 -60l23 98l59 21zM18 130l49 -43l44 -36l20 -16l6 -6l-47 22l-51 29l-20 14zM342 59l46 -36l-75 -7l-28 -4q31 31 57 47zM21 60q39 -23 77 -38l58 -24q-71 6 -130 26zM478 28l75 -2q2 -3 3 -9q0 -6 3 -13l-67 12l-65 10zM404 554l-28 -9l2 -64l1 -185l-1 -177l6 -3l7 94
l9 183l4 111v50zM140 414q-47 -51 -74 -110q-1 -12 -1 -26v-21v-11l2 -63q0 -13 11 -24l21 -22q18 -18 30 -27l38 -29q-39 43 -65 76q-6 8 -7 9q-5 7 -6 17v34q0 27 3 63q2 27 11 50l22 53zM284 381q-18 -29 -31 -57q-11 -25 -11 -48q0 -53 4 -86t5.5 -37.5t12.5 -17.5
l14 -15q3 -3 7 -6q19 13 42 45l3 66l2 119q0 7 -16 20q-15 12 -32 17zM290 353q22 -10 22 -55q0 -15 -1 -29q-22 44 -22 77q0 4 1 7zM269 307q26 -49 33 -106l2 -18v-5q0 -6 -7 -19l-4 -8q-28 57 -28 113q0 19 4 43z" />
    <glyph glyph-name="e" unicode="e" horiz-adv-x="571" 
d="M194 502l-62 -41l-51 -36l-19 -15q-14 -11 -19 -26l-7 -19q-6 -22 -11 -46l-7 92l78 45q18 10 54 28q14 6 44 18zM389 502l69 -17l81 -24l8 -60l1 -3q0 -3 0.5 -9.5t0.5 -13.5l1 -15q1 -9 3 -38l-18 60l-18 53l-51 28l-66 32zM533 267l-63 -9l-65 -12l-61 -13l-55 -15
l-23 -8q8 -36 33 -71q17 -24 37 -24h8h1h1q4 0 4 1l50 32l47 33q26 -30 46 -89q-59 -29 -122 -48q-67 -19 -81 -19q-22 0 -108 36q-43 19 -51.5 24t-18.5 18l-18 23q-19 26 -39 64q-11 22 -11 36q0 74 14 118l10 31q5 15 19 27l16 11q24 19 75.5 43t94.5 37q129 -32 192 -69
q27 -17 32 -24t15 -38q3 -8 16 -64q4 -21 5 -31zM535 238l9 -24l-57 -3l-77 -8l-82 -14v-5l-1 -3q0 -3 3 -29q0 -1 0.5 -4t0.5 -5q-24 20 -31 48q12 5 47 15l34 8.5t25 6.5l45 8l62 8zM499 174l23 -1l2 -10l4 -65zM42 153q22 -34 55 -68q21 -21 49 -33l29 -12l12 -6
q-6 0 -11.5 0.5t-8.5 1t-4 0.5l-21 3l-8 1l-49 10l-21 6l-15 59zM425 30l104 55v-24l-33 -11zM353 435q7 -9 10 -16q12 -19 13 -20q5 -8 5 -24l1 -22v-11l-1 -30l26 7l-1 13q-1 36 -4 66q-28 24 -49 37zM302 429l-9 -9l-6 -6l-15 -17l-7 -7q-3 -8 -4 -24l-1 -19
q0 -1 -0.5 -8t-0.5 -13q0 -28 3 -54l60 22l15 5q4 39 4 80q-18 29 -39 50zM172 415q-22 -13 -38 -24l-20 -15q-16 -13 -18 -25l-3 -17q0 -7 -3 -25l-2 -26l-1 -25q0 -6 -0.5 -12.5t-1 -10t-0.5 -4.5q0 -5 11 -25l13 -24q2 -4 7 -11.5l7 -10.5l30 -45l4 1q-10 15 -16 27
l-14 28q-3 6 -3 8l-19 48v10q0 2 0.5 6t1 11t0.5 13q2 13 2 21l5 35q2 18 5 28l5 5l2 4l10 13q11 16 25 31l5 5zM304 403q16 -31 16 -59v-9q-26 25 -26 45q0 9 4 15l4 5l1 3h1zM283 346q8 -16 24 -34l-22 -8q-3 16 -3 25q0 2 0.5 7.5t0.5 9.5z" />
    <glyph glyph-name="f" unicode="f" horiz-adv-x="389" 
d="M416 652l-5 -25l-86 28q8 1 18 1q13 0 23 -1q9 0 18.5 -0.5t14.5 -1t8 -0.5zM405 605v-2q0 -1 -2 -9l-8 -32l-5 -15t-7 -22q-28 19 -73 37l-11 -7q-11 -6 -23 -15l-9 -72l98 3l-3 -7q-17 -43 -38 -80q-30 9 -51 9h-6l-3 -138l1 -74l5 -87l3 -48l-119 8h-27l-66 -4l-2 98
l-1 201q0 22 -4 58l-29 19l42 75q21 37 46 69l20 27q11 14 33 24q45 19 67 19q17 0 67 -9q49 -7 105 -26zM141 637l-35 -47l-43 -63q9 32 43 96l4 9q26 5 31 5zM43 619l38 8l-3 -9q-14 -33 -38 -99l-6 -15v19l6 72zM368 506q-5 -1 -10 -1l-34 -3q-16 0 -32 -1q5 25 31 25
q12 0 45 -20zM384 465l-1 -17l-19 -101l-23 8l10 32l21 53zM23 377l3 -16l10 -125l5 -113l1 -75l-22 -3l-2 74l1 126l3 125zM287 363q14 -1 28 -5l-8 -25l-16 -66l-4 -19l-1 22l-1 62zM308 214l8 -107l3 -74v-31l-78 5l-73 7l-54 8q6 1 31 4l32 4l64 -4l38 -1q9 0 16 -1
l-2 59v6q0 71 15 125zM154 558q-10 -12 -35 -51q-12 -18 -21 -34v-9l-1 -24v-47v-31q0 -4 0.5 -10.5t0.5 -9.5q0 -10 0.5 -31t0.5 -32v-43l2 -52l1 -49l1 -24q0 -1 0.5 -6t0.5 -8h7l2 125l5 156l6 96l24 68z" />
    <glyph glyph-name="g" unicode="g" horiz-adv-x="595" 
d="M124 508q-10 -5 -11 -5l-24 -9q-13 -5 -57 -25l-9 -5v4v17q0 1 0.5 4t0.5 5zM316 500l61 -5h13h11q29 0 53 2l10 1l-72 -29l-33 -15q-13 16 -37 39zM356 425q101 52 181 65l-11 -101l-3 -58l1 -106l3 -113q0 -13 1 -32q0 -9 1 -11q1 -12 1 -24q0 -9 -15 -22l-21 -19
q-36 -32 -85.5 -57t-77.5 -25q-9 0 -15 1l-57 4q-96 8 -164 42q18 40 45 76l48 -29q41 -23 64 -25q45 10 78 71v1l-9 -3q-12 -6 -21 -9l-34 -11q-20 -5 -22 -5t-12 3l-16 5q-36 10 -80 36l-20 12q-19 11 -39 47q-21 40 -30 65q-12 31 -12 47q0 41 26 126q5 14 9 19.5
t22 20.5q34 27 71.5 47.5t54.5 20.5q19 0 53 -12q41 -13 85 -47zM142 475q-6 -5 -9 -6q-8 -5 -17 -11t-13.5 -8.5t-5.5 -3.5l-29 -23q-12 -9 -14 -12.5t-9 -22.5l-11 -29q-5 -16 -14 -51h-2v15l3 105q67 35 121 47zM577 472v-16l-3 -60l-6 -68l-20 -155l-1 12l-2 75
q0 52 4 100q7 64 28 112zM48 126q29 -34 73 -67l-6 -6l-8 -12q-6 -6 -16 -18q-11 20 -22 45q-18 39 -21 58zM568 139l3 -143l-18 -8q-1 12 -1 26q0 43 6 84q3 22 10 41zM526 2l1 -1q-2 -20 -3 -28l-35 -16l-41 -15q41 28 78 60zM84 -56l60 -18l20 -6q2 0 5.5 -1.5t10.5 -3.5
t12 -3q1 0 3.5 -1t5.5 -2l6 -2l-89 8l-41 5q2 11 7 24zM179 434q-40 -24 -67 -44q-14 -11 -17 -16l-14 -55l-7 -35q-3 -16 -3 -20q-3 -12 -3 -18q0 -24 41 -93q13 -23 17 -28t18 -13l23 -14q21 -11 38 -19l-7 5q-14 10 -17 14l-17 15q-18 16 -23.5 23.5t-18.5 32.5
q-26 52 -26 77q0 1 0.5 3t1 6t0.5 8l3 26q7 40 14 68q3 11 10 20l19 22q8 11 35 34l1 1h-1zM398 390l-25 -11l3 -95l-1 -142l-2 -61q0 -11 -19 -57q6 6 22 28q12 15 12 18l7 112l3 93l2 79zM269 383q-17 -37 -24 -69l-6 -24q-5 -25 -5 -30q0 -8 6 -27l10 -35q6 -20 24 -66
l4 -8q30 8 55 37l2 61v62q0 7 -1 32q-1 42 -2 53q-28 14 -55 14h-8zM295 360q-11 -38 -15 -65l-10 -82q-2 6 -2 8q-9 32 -9 42q0 55 36 97zM313 333q3 -31 3 -93q0 -44 -3 -55.5t-19 -31.5l-13 28l19 82z" />
    <glyph glyph-name="h" unicode="h" horiz-adv-x="645" 
d="M175 650l-99 -35l-54 -21q0 5 -1 10v2l-2 21q-1 3 -1 7l69 8zM267 639q6 -39 6 -80q0 -21 -2 -69l-1 -62v-4t-0.5 -8t-0.5 -11q29 26 54 43q26 18 43 22l33 6l29 5q2 0 4 1h2q9 0 41 -20q40 -24 51 -34q5 -4 10 -15l18 -42l13 -36q4 -11 4 -23q0 -40 -2 -66l-4 -40
q0 -3 -0.5 -11.5t-0.5 -14.5q0 -48 9 -97q-43 -17 -93 -29q-10 -2 -29.5 -7t-29.5 -8q-33 -7 -50 -8l-8 87l-4 83v43q0 56 2 75q-20 31 -38 48q-23 -18 -29 -27q-24 -30 -24 -36v-66l4 -105l6 -70l2 -13l-71 1h-61l-71 -5l2 103l1 99l-3 104l-5 71l-7 77q-6 51 -15 79
q63 28 106 40t109 20zM303 632l8 -68q1 -13 3 -49v-14q34 0 56 -1q-54 -25 -78 -49l3 78l4 64zM342 595l2 -2q14 -38 53 -68h-16q-7 0 -19 0.5t-20 1.5v9l-1 4v18v26q0 1 0.5 4.5t0.5 6.5zM24 548q4 -7 8 -22q8 -29 8 -32l10 -54l5 -50l4 -57l2 -111l-4 -94l-5 -44l-6 71
l-14 208l-7 133zM496 482q16 -5 26 -9q31 -14 61 -28l10 -5q3 -11 4 -30q3 -23 3 -51q0 -1 -2 -25l-16 47l-15 35q-3 9 -12 17l-19 17l-33 27q-1 1 -3.5 2.5t-3.5 2.5zM314 328q16 -10 21 -26t5 -55v-16q0 -9 -1 -11l-2 -30v-9l-11 56l-12 83v8zM598 263l1 -9l10 -85
l20 -133l-111 -15l-92 -11h-9l68 19l71 23l6 3l39 15l6 2q-20 46 -20 102q0 27 4 61q0 3 1 5.5t1.5 6t1.5 7.5zM302 240l4 -13l18 -105l15 -69l13 -46l-34 20l-2 10l-8 56l-4 64zM210 27l41 -1l-9 -2l-79 -10l-62 -11l-52 -12l1 26l16 2l52 6zM142 555l-30 -8v-5q0 -2 2 -26
q0 -11 1 -25q0 -7 0.5 -13.5t1 -10.5t0.5 -5l3 -64l1 -106l-1 -199h8l9 160l5 174v128zM360 394q16 -18 27 -34q2 -2 3.5 -5t3 -4.5t2.5 -3t2 -2.5v-1q6 -8 6 -15q0 -10 -1 -20v-27v-29l1 -71l3 -102l7 2l8 98l4 87l1 78q-24 26 -67 49z" />
    <glyph glyph-name="i" unicode="i" horiz-adv-x="317" 
d="M194 648q42 -2 94 -17v-8q0 -6 -1 -12v-9l-49 26q-12 6 -43 19zM100 639l-47 -32l-37 -28l3 30q34 17 72 27zM155 636q69 -25 111 -64l-26 -19l-12 -8l-34 -22q-28 -18 -35 -18q-11 0 -59 24q-18 8 -54 32q47 42 109 75zM16 547l2 -1q33 -23 86 -48q-57 2 -87 6
q-2 24 -2 29q0 1 0.5 5.5t0.5 8.5zM257 498l3 -69l2 -64l1 -80l-2 -87l3 -73l6 -79l-18 2h-80l-115 -3l4 133v48l-1 106q-1 56 -16 89q50 27 107 46q53 17 106 31zM132 482l-59 -17l-45 -15l-13 24l62 7q1 0 5 0.5t5 0.5q14 1 24 1q6 0 16 -1h5zM17 405q27 -51 27 -116
q0 -34 -7 -82l-2 6l-8 57l-7 72q-1 10 -1 22v16l-2 12v8v5zM288 389l3 -20l5 -58l3 -88v-96l-4 -70q-12 61 -14 125l-1 57l2 75q3 46 5 66zM39 105l1 -87l60 3h67l12 -1l-99 -20l-55 -15q-2 9 -2 24q0 54 16 96zM127 407l-28 -12l2 -44l3 -90l2 -173h8l7 119l3 69z" />
    <glyph glyph-name="j" unicode="j" horiz-adv-x="351" 
d="M202 632q47 -3 97 -23l-2 -26q-29 20 -87 45zM155 630q66 -25 113 -65q-7 -5 -8 -5l-35 -25q-30 -21 -61 -37q-63 22 -119 58q49 44 110 74zM92 620l-65 -54l-4 30zM33 528q27 -16 45 -25l35 -15h1l4 -2l4 -2q-22 0 -65 6l-8 1l-16 36v1zM288 504l-7 -150l-1 -106l1 -106
l5 -102l2 -31l-21 -19l-48 -35l-48 -32q-11 -7 -41 -7q-2 0 -43 -4q-4 0 -12 -1t-21.5 -1.5t-24.5 -1.5l-33 -1l-15 56q72 20 105 48l-7 160l-6 107q-4 67 -23 131l91 42l85 33zM31 456l98 11q-3 -1 -6 -2.5l-5 -2.5t-3 -1l-38 -16l-28 -13q-4 -2 -7 -3zM42 338l4 -21l7 -60
l6 -82l2 -68l-1 -86l-29 -13l-1 27l2 103l5 124zM308 326l4 -31l5 -60l11 -186l-19 -24q-6 29 -7 53l-2 36q0 6 -0.5 12.5t-1 9.5t-0.5 4l1 89l6 77zM330 -12q2 -11 3 -30l-53 -18l-5 -2q-5 -2 -9 -3l-26 -8q-14 -4 -25 -5l44 28l15 8l25 14q11 8 31 16zM127 393l-25 -11
l8 -80l5 -71l8 -167l2 -76h7l2 76l1 86l-5 186q2 38 -3 57z" />
    <glyph glyph-name="k" unicode="k" horiz-adv-x="615" 
d="M309 647l11 -58l4 -70l4 -32l1 -68l-19 -24l-7 82l-1 73l1 30zM150 629l46 7q-9 -3 -14 -5l-40 -13q-4 -1 -16.5 -5.5t-30 -11t-27.5 -9.5q-11 -4 -48 -20l-2 29l58 14zM273 635l6 -65l1 -141l-1 -110l37 45l43 46q48 47 80 70q55 -15 92 -50q-81 -25 -162 -95v-1
q52 -6 85 -24l40 -76q3 -7 23 -40q36 -57 74 -99q-118 -60 -219 -78q-3 12 -12 33q-5 15 -9 22q0 1 -1 2v2l-24 50l-32 57l-16 27l-1 -84q0 -28 5 -78l-74 2l-134 -2v170l-4 236q-2 51 -17 104q81 41 220 77zM21 547q23 -45 26 -87l5 -59l3 -79l1 -119l-1 -75v-18
q-1 -18 -3 -27l-1 -9l-8 96l-8 110l-10 164zM494 515q61 -43 88 -83q-68 47 -118 66l15 9l10 5l1 1zM533 404q-49 -32 -77 -67l-37 10l7 5q64 43 107 52zM498 335q20 -74 38 -111l21 -42l2 -6q-10 11 -26 35l-13 19q-23 30 -45 85l22 20h1zM296 141q4 -4 6 -9l7 -16
q1 -3 12 -32q2 -3 4 -11t4 -11q0 -1 4 -13l7 -17l6 -28l-25 -4l-6 48zM597 75q-1 -7 -6 -29l-16 -5q-73 -24 -127 -32l63 25l47 21zM284 18l-103 -10l-76 -10q-2 0 -10 -2l-27 -4l-10 -2l-2 28q56 7 135 7q61 0 93 -7zM131 529l-25 -8v-10q5 -65 7 -194v-83v-148q2 1 6 1h2
l8 157l4 111l-1 137zM324 279l-19 -20q3 -6 5 -8l7 -10q39 -60 89 -167l4 -9l7 3l-32 79l-31 73l-28 57z" />
    <glyph glyph-name="l" unicode="l" horiz-adv-x="335" 
d="M263 638l5 -36l4 -58v-303l3 -95l5 -62l4 -36q-10 0 -30 0.5t-30 0.5q-17 1 -40 1q-33 0 -125 -5l5 96l3 199l1 149q0 32 -10 80q85 44 205 69zM300 631h23l-13 -220l-8 -211l-2 8l-6 60l-3 62v58l1 67l4 98zM83 621l72 11l-81 -32q-2 0 -9 -3.5t-13 -5.5l-13 -7
q-4 -1 -20 -9l-1 32zM20 552q13 -30 16 -53l6 -43l3 -24l1 -83l-2 -152l-3 -59l-4 -47l-4 38l-10 142l-3 94l-2 108zM125 18h103l45 -3l-121 -12l-110 -16l-1 24l41 4zM129 544l-24 -9l1 -68l-1 -183l-4 -197l7 1l17 265l4 135v56z" />
    <glyph glyph-name="m" unicode="m" horiz-adv-x="854" 
d="M711 492q26 0 46 -2l21 -3q7 -1 11 -7l19 -29l18 -30q9 -13 10 -24q0 -14 1 -35v-44q0 -48 -2 -122l-1 -18q-8 22 -13 53q-9 51 -9 98q0 43 1 55q1 6 1 14q0 10 -11 20l-11 15q-19 21 -27 29q-8 9 -27 17l-18 9q-1 1 -9 4zM105 485l60 6l-88 -30l-53 -20q0 -3 0.5 -6
t1.5 -5v-2l13 -72q1 -3 4 -31l2 -40v-8l2 -50l-2 -30l-5 17l-10 56l-9 70l-13 127l39 8zM346 492l-15 -8q-36 -19 -53 -29l-18 33q12 -1 26 -1q26 0 60 5zM598 491q-2 -1 -5 -3q-1 -1 -2 -1l-11 -7q-25 -15 -46 -35q-11 10 -12 10l-35 28q-3 2 -7 5q31 -4 46 -4q14 0 44 3
l27 4h1zM532 424q36 27 64 40l28 14q22 9 24 9t9 -3l33 -11l35 -13q14 -4 19.5 -8.5t20.5 -22.5q14 -17 29 -44l-2 -44v-57q0 -40 14 -100q8 -35 22 -70q-95 -54 -210 -79q-32 74 -32 167q0 55 3 73q4 21 4 34q0 17 -30 47q-15 -12 -28 -30q-8 -9 -8 -27v-7l1 -68l6 -87
l2 -16l4 -31q3 -20 7 -35l-83 1l-139 -3l6 58l4 78l1 59l-3 72q-1 3 -4 6q-9 16 -23 32q-24 -14 -37 -34l-1 -59l2 -52l3 -62l7 -65l4 -34l-114 1l-111 -6l5 76l2 72v97v31q0 45 -13 95l-2 8q76 37 174 58q24 -27 42 -61q48 37 100 55q30 11 44 11q10 0 36 -13
q43 -20 85 -52zM302 324q1 -3 4 -6q7 -10 7 -18v-8v-33q-3 -65 -6 -110q-3 -31 -6 -48l-2 10l-2 16l-2 13l-6 67v24v12v29l2 24q1 16 11 28zM562 321q9 -17 9 -37q0 -16 -3 -45l-3 -21q0 -10 -2 -18l-8 -48l-4 69l-1 75q3 8 9 19zM842 96l1 -24l-44 -15l-59 -15l-29 -5
q50 25 63 31zM455 38h55l-92 -14l-99 -19l3 26l45 3zM282 30l-130 -18l-100 -18l3 21q42 9 69 12l50 4l14 1h32h21q5 0 41 -2zM131 405l-26 -8l2 -58l3 -102l-3 -140h7l11 93l7 103l1 63zM611 380q10 -25 13 -38l6 -28q3 -9 3 -13q0 -1 -0.5 -2t-1 -3.5t-0.5 -4.5
q-3 -33 -3 -60q0 -74 20 -137l4 1l-6 63v57q0 18 4 47q4 24 6 39l1 3q0 6 -5 14l-15 27q-7 13 -26 35zM342 376q10 -14 20 -36.5t11 -33.5l3 -58v-50l-4 -99h7l10 77l6 58q0 2 0.5 5.5t1 11.5t0.5 17v24q0 1 0.5 4t0.5 6v5q0 5 -7 16l-10 14q-18 24 -39 39z" />
    <glyph glyph-name="n" unicode="n" horiz-adv-x="590" 
d="M214 483q18 -27 29 -71q37 28 80 50q41 23 52 23q6 0 21 -5q1 0 6.5 -2t10.5 -3q45 -11 54 -20q27 -29 61 -82l-6 -82q-2 -28 -2 -44q0 -87 22 -144l-15 -8q-107 -50 -185 -63q-18 73 -20 117l-2 53l3 59l4 60q-13 27 -31 48q-26 -21 -43 -45l-8 -118l-1 -50l3 -108l-7 1
l-93 1h-90l5 179l-2 76l-4 60l-11 66q66 30 146 48zM533 485l14 -102q-1 2 -3 5t-4 5l-1 2l-16 25q-20 30 -46 60l-6 7q8 1 17 1q21 0 45 -3zM37 476l86 7q-30 -14 -82 -31zM243 476q23 -1 41 -1h16q-4 -2 -7 -5l-13 -10l-16 -12q-1 -1 -3.5 -2.5t-3.5 -2.5q-7 17 -10 24
t-4 9zM28 377q17 -81 17 -158v-16l-4 -57l-6 -64l-6 -48q-1 6 -1 11l-3 29q-3 29 -3 35v9l-2 69l2 96l4 75zM552 347l2 -10l10 -107l7 -114v-4q-32 43 -32 110q0 68 13 125zM294 336q6 -23 6 -33q0 -7 -1 -15l-2 -18q-3 -27 -6 -39l-8 -45l-16 -78l-1 10q-4 31 -4 58v5v24
q1 6 1 12l5 56q3 32 26 63zM299 146l2 -14q7 -73 26 -129q-18 -4 -39 -5q-1 15 -1 36q0 46 7 84l4 20zM571 83l1 -21l-52 -14q-47 -12 -81 -15q53 27 115 45q2 1 8 2.5t9 2.5zM244 22l-1 -21l-32 6l-60 9l-59 5q-9 1 -20 2t-14 1q55 8 90 8q63 0 96 -10zM113 409l-24 -7
l7 -74l4 -103v-134h4l7 89l4 74l1 63v27l-1 25q0 13 -2 32v8zM334 399q11 -14 11 -15l12 -20q13 -22 13 -30q0 -6 -1 -11q-1 -3 -3 -40q-3 -45 -3 -75q0 -61 14 -119h5l-3 68v28l1 29q2 61 17 117q-3 7 -6 8l-10 14q-16 24 -47 46z" />
    <glyph glyph-name="o" unicode="o" horiz-adv-x="614" 
d="M494 506q14 0 17 -1l16 -1l25 -2q5 0 9 -1l12 -41l-9 6q-31 21 -59 35zM206 495l-61 -32q-3 -1 -22 -13l-19 -12q-19 -11 -32 -23l-10 -17l-23 -42l-19 -39l22 130l58 20l58 16zM304 23l-44 8q-83 15 -130 50q-45 33 -64 56l-10 11q-7 8 -9 20l-5 24q-2 8 -6 38
q-4 31 -4 34q0 12 14.5 50t29.5 65q10 19 18.5 27.5t31.5 22.5q42 25 98 42q59 18 85 18q15 0 62 -14l38 -11q37 -10 95 -47q15 -9 20 -14.5t11 -22.5l16 -37q7 -16 18 -67q5 -20 5 -25q0 -8 -8 -30l-9 -25l-22 -51q-8 -19 -13.5 -25t-27.5 -19l-50 -28q-65 -39 -140 -50z
M450 487q41 -18 90 -44l22 -11l12 -6q8 -4 9 -15q0 -6 3 -21q10 -60 11 -96l-18 49q-1 4 -20 46q-6 12 -16 22q-33 32 -60 50q-20 14 -33 26zM589 209h1l-22 -102l-31 -14l13 33l27 61zM19 154q42 -40 46 -44q34 -30 81 -62q10 -7 19.5 -13.5t14 -10t5.5 -3.5q3 0 7 -6
l-59 25q-37 14 -72 39l-29 19q-1 1 -3 2t-3 2q-1 4 -2 9t-1.5 8t-0.5 4l-2 22q0 5 -1 9zM575 80l-5 -33l-68 -14q-8 -1 -54 -9q-30 -4 -43 -5l67 26l96 34zM34 55q77 -33 152 -55q-46 0 -130 10l-9 1q-8 19 -13 44zM350 435q29 -50 31 -67l4 -19l2 -10l6 -47l2 -28l3 -27
l2 -43q1 -7 1 -16q0 -13 -14 -43l-25 -51l6 6l18 21l16 21q16 20 16 27v6l-1 50l-1 54l-4 62q-2 22 -4 28.5t-15 22.5l-24 31l-1 2l-5 5t-5 6zM198 424q-48 -23 -52 -25l-22 -13q-13 -8 -20 -23l-17 -45q-5 -15 -12 -38q-5 -17 -5 -19q0 -3 3 -20l5 -35q4 -27 14 -40
q35 -39 79 -69q-28 29 -35 40l-25 34q-8 10 -9.5 16.5t-3.5 30.5l-2 40l7 25l10 37l9 26q4 15 13 24q17 19 57 49q1 1 7 5h-1zM310 423q-44 -33 -53 -56q-11 -22 -11 -104v-61q0 -24 6 -38q20 -47 52 -85q46 51 59 88l-3 57l-6 74l-9 72q-3 15 -16 31q-3 3 -6.5 7t-4.5 5
q-4 8 -8 10zM305 385l2 -1q21 -30 23 -50l6 -58l2 -18q1 -10 2 -23.5t1.5 -20t0.5 -9.5q0 -20 -12 -53l-3 14q-4 20 -10 51l-5 45l-5 59zM276 320q5 -46 9 -65l10 -47l22 -77l-15 -20q-34 60 -34 127q0 47 8 82z" />
    <glyph glyph-name="p" unicode="p" horiz-adv-x="600" 
d="M221 487q15 -29 26 -72l61 37q24 15 61 29q60 -5 114 -63q23 -25 44 -61q8 -13 9 -43l3 -51l-2 -76q0 -19 -12 -38q-35 -53 -56 -75.5t-51 -36.5q-24 -11 -33 -11q-13 0 -55 15q-26 9 -81 34q1 -62 19 -117l-89 -44l-100 -52l-7 63l-3 68l-2 137l1 107l-2 63l-4 51
q0 7 -1 14l-3 25q-3 15 -5 28l-2 11q51 23 151 52zM245 480q27 -4 49 -4h14q-21 -12 -48 -32l-3 8q-2 5 -4.5 10.5t-4 9.5t-3.5 8zM75 470l49 7l-105 -42l-1 21zM473 468l40 -10l8 -21q2 -6 17 -48l6 -15q0 -2 5 -14l-58 83zM19 415q10 -30 19 -68q10 -50 10 -83l2 -47
l1 -56l-1 -53l-3 -62l-2 -22q-1 3 -4 34v14l-16 209l-6 119v15zM557 338q5 -12 13 -40l9 -27q3 -8 3 -11q0 -5 -4 -13q-4 -5 -10 -19q-8 -15 -12 -21l2 71zM577 201q-6 -21 -15 -46l-12 -32l-33 -89l-49 -12l35 53l22 35zM281 35l4 -2l22 -11q2 -1 5.5 -3t13.5 -6t20 -9
q6 -3 12.5 -5.5t12.5 -4.5l-75 -25q-12 29 -15 66zM495 3l14 2l-9 -30l-87 -18l-86 -22l-63 -19l-90 -31l59 31l33 15l71 26l58 19zM131 401l-30 -10v-13q6 -79 6 -122l1 -84l-1 -143v-67q1 -5 1 -13.5t1 -14.5l7 3l2 110l4 66l6 122l3 107v59zM337 383q40 -92 40 -161
q0 -23 -4 -42l-1 -11l-5 -30l-5 -27v-2q-1 -3 -1 -5l-1 -6q28 51 36 87q9 30 9 51q0 24 -22 71t-46 75zM251 265l1 -74q0 -7 1 -16v-11l1 -3v-6q34 -17 62 -17q3 8 6.5 17t4.5 12l7 25q6 20 6 27v5l-12 55l-17 56l-8 23q-35 -13 -48 -29zM289 318q1 -2 2 -5q1 -2 1 -3l1 -2
l5 -15l11 -32q9 -27 9 -41q0 -19 -21 -55q-10 31 -12 62l-1 24v7z" />
    <glyph glyph-name="q" unicode="q" horiz-adv-x="643" 
d="M332 494q40 -9 75 -9q20 0 37 2l-56 -38q-19 18 -27 23l-23 18zM570 489l1 -8q8 -52 8 -80l-1 -51l2 -143l5 -131l6 -114l-52 -17l-79 -30l-59 -27l-36 -18l4 35l6 80l2 94q-31 -21 -52 -31l-36 -17q-12 -5 -15 -5q-2 0 -13 3l-49 14q-43 12 -90 38q-19 11 -48 56
q-29 46 -30 61l1 22l3 40q1 26 8 57.5t12 40.5q23 39 92 85q39 26 98 35l20 3l5 1q9 0 55 -24q22 -12 55 -35q100 58 177 66zM176 481l-42 -30q-46 -33 -84 -76l-17 -61l-13 -55l-2 67v7q0 4 -0.5 10t-0.5 9q0 16 3 38l26 19l50 32l24 13zM604 396l2 -12l8 -63l8 -93l3 -79
l-1 -41l-4 -57l-7 -51l-6 74l-7 147l-2 73l1 38zM55 121q42 -57 76 -79.5t102 -39.5l9 -3q-66 6 -135 24q-10 2 -15.5 9t-17.5 33q-15 34 -19 56zM345 36q-4 -21 -12 -42l-6 -17l-1 -1q0 -2 -1 -4t-1 -4l-5 2.5t-4 1.5l-16 9q-1 0 -7 2.5t-10 4.5l-12 4q32 11 75 44z
M620 -74l-92 -19l-69 -18q66 36 101 45l42 12l15 3zM142 116q-41 61 -43 90q0 4 3 24l3 26q7 48 16 80q1 2 3 4.5t2 3.5q18 27 24.5 35t44.5 46q4 4 6 7q-52 -37 -76 -62l-18 -18q-10 -10 -11 -19q-7 -34 -10 -72l-2 -22q-1 -13 -1 -34q0 -16 10 -29l13 -18q13 -20 36 -42z
M439 384l-25 -8l4 -79l2 -198l-1 -159l7 4l9 191l5 162l1 76zM327 380q-3 -2 -8 -4.5t-6 -3.5q-12 -6 -15.5 -10t-8.5 -16l-10 -27q-7 -21 -11 -37q-7 -35 -7 -39q0 -23 18 -73q8 -20 18 -40q43 3 78 32q1 33 1 76v15l-1 63l-2 21q1 11 -1 13.5t-12 9.5l-10 8q-10 6 -23 12z
M326 353q24 -21 24 -36l2 -53v-5.5t-0.5 -12t-0.5 -14.5l-1 -7q0 -7 -2 -27v-8q-1 -7 -6 -13l-13 69l-8 62q-4 20 -4 29q0 2 4 9q1 1 5 7zM300 301l8 -74l11 -69q-32 25 -32 79q0 34 10 56q0 3 3 8z" />
    <glyph glyph-name="r" unicode="r" horiz-adv-x="481" 
d="M449 492l34 3l-11 -29l-80 22zM87 493l58 1l-58 -19l-66 -25l6 39zM269 484l80 2l-55 -38l-12 -8q-4 22 -13 44zM238 486q23 -27 32 -77l47 32q16 11 22 14l27 14l9 5q49 -9 86 -32l-4 -9q-20 -50 -64 -103q-14 8 -47 19q-7 2 -16 4.5t-12 3.5q-27 -10 -47 -26l-5 -69
v-87l2 -58l5 -70l-115 3l-98 -3l4 72l2 111v93v11q-1 12 -1 23q-2 44 -17 74l68 26l68 20l2 1q2 0 5 0.5t6 0.5l1 1q2 0 4 0.5t4 0.5q12 4 32 5zM20 438q29 -60 29 -145q0 -44 -7 -93l-12 69l-8 65q-2 13 -4 46v13q0 1 2 45zM456 380q-17 -65 -31 -103l-12 5l-85 43
q48 -6 78 -19l36 53zM298 317l9 -82l8 -90l9 -86l8 -55l-58 3l-72 7h-6q-6 2 -18 3q-18 2 -38 6q6 1 14 1q5 0 11 0.5t9.5 1t4.5 0.5h25h5l89 -3l-6 62l-2 72l1 88l4 58zM336 293q26 -15 42 -26q-10 -38 -10 -98q0 -15 1 -28q-24 56 -33 152zM138 412l-27 -8l2 -82l-1 -84
l-4 -145q2 -1 4 -1t4 1l7 87l13 175z" />
    <glyph glyph-name="s" unicode="s" horiz-adv-x="493" 
d="M195 503l-96 -25l14 24h2q13 2 47 2q19 0 33 -1zM289 507h107l30 -1l2 -49l-11 5q-49 22 -75 29zM83 499l-24 -48l-33 -52q0 -1 -3 -6t-5 -9q11 54 29 103q1 2 3 8q9 3 24 3q5 0 9 1zM451 505l19 -1l3 -51l2 -97q0 -20 -2 -39q-1 4 -2 8.5t-1.5 7t-0.5 4.5l-4 19l-1 7
l-7 52l-6 82v8zM405 425q-19 -56 -43 -85q-20 27 -44 47.5t-36 20.5q-5 0 -14 -4q-22 -6 -40 -19q7 -30 18 -33q66 -21 133 -67q21 -14 38 -43q26 -41 26 -64q0 -31 -23 -70q-7 -11 -16 -18q-99 -59 -152 -59q-24 0 -50 6l-51 11q-42 10 -104 33q15 61 47 101q37 -31 75 -51
l24 -12q8 -5 11 -5q12 0 46 27l-31 19l-65 34q-20 11 -52 33q-20 13 -24 17.5t-11 18.5q-20 37 -25 63l-5 28v5q0 6 11 27q12 23 29 46q9 12 24 18l54 19q10 3 38 10q33 7 42 7q25 0 78 -19t92 -42zM430 429l1 -46q2 -60 10 -96l11 -59q-25 47 -64 81q22 36 32 79l8 34l1 2
q1 3 1 5zM333 343q-33 17 -60 27q9 6 12 9q5 3 7 3q5 0 18 -14l17 -19zM55 229l27 -22q-2 -2 -4 -5l-1 -3l-11 -23l-10 -22q0 -1 -2 -4t-3 -5q1 4 1 9q3 35 3 55v20zM132 182q49 -20 77 -37l-16 -8q-31 16 -61 44v1zM468 172q2 -15 2 -31q0 -37 -8 -72q-21 -11 -49 -18
l-61 -16v1q31 14 66 35q16 10 23 22q17 32 21 52l4 18q0 1 2 9zM26 117q2 -16 8 -58l101 -32l-11 -1l-57 4l-49 6v17q0 37 8 64zM133 432q-34 -28 -60 -67q6 -30 16 -56l14 -30q7 -18 12.5 -22.5t41.5 -24.5q13 -8 68 -37q22 -12 28 -14q22 -9 47 -55q-9 30 -26 59l-58 32
l-48 32l-29 20q-11 8 -18 24l-10 22q-7 18 -10 32q-2 8 -2 13q0 10 13 38q8 17 21 34z" />
    <glyph glyph-name="t" unicode="t" horiz-adv-x="395" 
d="M238 621l-51 -26l-71 -39l-49 -30l-36 -25l-4 43l28 14l54 23l33 11l52 17zM138 623l-19 -6q-47 -13 -89 -31l1 32q36 5 81 5h26zM244 602q18 -43 18 -117q0 -12 -1 -20l122 6q-23 -45 -54 -84q-47 17 -71 18l1 -119l3 -69q4 -82 36 -135q-141 -49 -235 -53l-2 38l-2 63
l1 120l4 122v11l2 14v4v5q-18 23 -51 49q46 43 112 85t117 62zM322 596q29 -49 51 -72q-39 5 -43 24l-3 16q-4 17 -5 32zM296 588q6 -30 8 -36l6 -18q4 -15 9.5 -19.5t27.5 -13.5q1 0 3.5 -1.5t4.5 -1.5l-1 -1l-66 -6q0 5 -0.5 11t-0.5 7q0 35 9 79zM355 355q0 -8 -2 -14
l-11 -60l5 -26l-22 -96l-6 -27q-1 -1 -4 -15q-4 28 -4 50q0 26 6 66q11 63 38 122zM19 410q17 -19 22 -29.5t5 -26.5v-17q0 -1 -0.5 -11.5t-0.5 -19.5q-2 -40 -2 -44l-3 -42q-2 -35 -5 -54l-7 71l-8 137zM291 373l29 -16q-29 -85 -29 -164v-8v-25q-13 58 -13 114q0 53 13 99
zM289 48l17 3l-1 -27l-17 -3l-56 -8q-6 0 -35 -3l-24 -2q-11 -1 -35 -1h-7l82 23zM128 477l-28 -19l5 -77l2 -127v-168l5 1l11 172l5 140v78z" />
    <glyph glyph-name="u" unicode="u" horiz-adv-x="633" 
d="M460 504l107 15l-3 -27l-42 -3q-20 -2 -45 -2q-40 0 -76 6zM588 501h24l1 -19v-91l-3 -89l-2 -14l-9 61l-9 89zM255 488q11 -41 11 -85v-41l-1 -43v-48l2 -52l3 -58q15 -18 27 -18q5 0 32 15q18 10 31 20l2 76l-1 133l-3 80h72h63l69 2l-1 -29l-1 -71l1 -138l4 -142
q2 -24 6 -42q-44 0 -65 3q-15 3 -18 3l-72 -5q-4 0 -15 13q-2 3 -8 9t-14.5 14t-11.5 11q-50 -25 -90 -65q-6 -1 -11 -1q-10 0 -29 3l-38 6q-42 5 -68 14q-6 2 -15 10q-9 9 -13 12q-18 17 -24 25l-11 189q-2 43 -21 119q85 50 208 81zM303 481q16 -26 24 -72l9 -60
q3 -21 4 -55q1 -6 1 -18q1 -11 1 -19v-2v-2v-2v-2v-2v-2v-10q0 -23 -4 -43q-35 73 -35 197v14l1 38q0 20 -1 40zM147 478q-90 -43 -128 -48l2 19l63 16zM18 399q33 -77 33 -185q0 -28 -5 -75l-12 70l-9 56l-5 66zM288 302q8 -78 28 -126l-23 -1q-8 28 -8 72q0 25 3 55z
M583 257l2 -5l9 -58l12 -95l9 -98q-8 2 -9 2l-14 3q-48 10 -79 22l81 -1v3q0 7 -1 19l-4 68zM48 100l46 -43q22 -19 23 -20q21 -17 24 -21q-8 2 -31 11l-20 8q-9 3 -30 15l-8 4zM363 72q19 -18 34 -43q-30 2 -35 2q-19 0 -55 -6v1q29 27 33 30q12 11 23 16zM401 419l1 -98
v-116l-2 -75l8 -8l8 105l4 84l3 109zM131 393l-30 -12l9 -75l5 -67l3 -81q1 -13 1 -25q0 -16 4 -21l10 -9l11 -11q1 -1 4 -3.5t5 -4.5q-21 32 -21 45l1 118q1 13 1 26q0 11 -1 32v22l-1 8z" />
    <glyph glyph-name="v" unicode="v" horiz-adv-x="534" 
d="M244 518l31 -15l27 -73l33 -80l17 -38q-26 28 -50 71q-35 64 -58 135zM25 404q104 48 199 97l35 -73l31 -62l30 -53l30 -47q61 97 61 180v17q49 0 116 4q-9 -44 -25 -79l-24 -52l-41 -85l-55 -105l-45 -78l-39 -60l-7 10q-9 15 -15 21q-2 3 -5 5q-2 2 -2 3l-30 40l-42 62
l-39 62l-41 72l-21 39q-29 56 -71 82zM146 495l-100 -50l-38 -20l-1 36q75 28 139 34zM351 490l1 -1q2 0 5 -0.5t4 -1.5q15 -3 24 -9q2 -22 2 -23q0 -31 -6 -55q-1 -7 -11 -40q-3 -6 -7 -11v42l-6 58zM25 356q27 -21 47 -54l21 -33l30 -45l40 -64q2 -3 11 -17t22.5 -33.5
t21.5 -31.5q10 -15 33 -45q11 -16 28 -38l9 -12q-4 1 -10 3l-10 2.5t-7 1.5q-12 1 -19 10l-10 13l-30 42l-67 106l-58 99zM486 295q-8 -38 -20 -69q-25 -64 -55 -112l-24 -37q-22 -35 -52 -73l-5 -8l27 61l27 54zM515 258q-9 -40 -11 -46q-16 -59 -43 -135l-20 -58l-54 -24
l47 92l28 59zM90 170l6 -8l67 -110l31 -46q-17 4 -26 8l-10 3l-5 2l-16 35l-33 80l-8 19q-3 5 -6 17zM127 405l-22 -11l35 -66l42 -75l41 -70l32 -49q13 -20 37 -51l3 4l-41 66l-44 80l-43 85z" />
    <glyph glyph-name="w" unicode="w" horiz-adv-x="707" 
d="M185 518l-132 -44l-46 -19v29l11 4l58 14l57 10zM209 497q7 -12 15 -34l14 -37q11 -31 14 -40l25 -84l38 72l36 57l34 46l6 6l1 1l25 -32l36 -50l37 -59l42 -73q51 89 51 163q0 18 -2 32l114 1l-23 -74l-34 -89l-34 -76l-29 -58l-90 -159l-40 52l-45 62l-24 37l-40 64
l-46 -76l-40 -61l-52 -71l-7 -7l-25 45l-24 53l-8 21l-47 135l-22 56q-14 33 -17 37l-34 61q-2 2 -5 9q88 54 200 70zM517 498l45 1l56 -2q5 0 27 -2l24 -3q23 -3 32 -6q-10 -1 -48 -2h-20l-81 -3q8 -23 8 -40q0 -2 -0.5 -8.5t-0.5 -10.5v-11q-19 50 -42 87zM372 496l-3 -7
q-38 -52 -59 -86l-24 -40l-9 33l6 8l16 17l9 11l36 37zM425 475q76 -58 122 -121l-16 -41l-41 70q-2 3 -6 10t-6 10l-16 21q-16 24 -20 28q-14 19 -17 23zM19 361q29 -44 42 -80l21 -59q3 -5 6 -17l8 -31q5 -19 8 -35q-45 67 -66 142l-7 25q-11 34 -12 55zM666 287l-20 -58
l-21 -59q-25 -65 -57 -117q-10 -18 -16.5 -24.5t-29.5 -22.5l58 120l34 64zM674 216q-10 -73 -39 -154l-24 -11l29 72l20 54l11 33q0 2 3 6zM334 179l1 -1l17 -30q-20 -25 -30 -37q-75 -88 -100 -109l36 62zM65 132q58 -94 122 -159l-15 4q-18 5 -19 6l-16 5l-8 2l-5 9
q-24 48 -33 71l-24 55zM386 92q9 -12 12 -15l17 -26l13 -18q0 -1 2 -4t3 -5q-30 26 -73 39zM99 418l-26 -12l14 -27l23 -53l8 -20l27 -82l12 -35l22 -52l20 -41l3 5l-21 57l-25 83l-15 60q0 4 -5 17l-5 19q-13 43 -32 81zM377 297l-14 -25l34 -61l45 -73l35 -51l4 5l-35 62
l-40 79z" />
    <glyph glyph-name="x" unicode="x" horiz-adv-x="503" 
d="M246 503l78 1l97 -4l61 -6l8 -1l-71 -5l-118 -5l5 -26q-38 17 -60 46zM8 403q95 51 199 93q21 -70 76 -148q53 57 53 111v2q-1 2 -1 3l130 1q-9 -29 -23 -50l-17 -27l-3 -3l-1 -2l-38 -44l-51 -56l40 -50l39 -51l33 -48q26 -38 41 -87q-18 1 -93 3l-97 -4l-12 -2
q-20 49 -68 107q-41 -47 -44 -102l-87 2l-55 -1q16 63 125 165l8 8l-35 49l-63 84q-19 24 -56 47zM133 490l-79 -33l-49 -22l2 30l16 4q70 20 110 21zM238 470l8 -10q16 -18 26.5 -26t30.5 -15q-5 -20 -18 -40q-12 18 -27 45q-17 35 -20 46zM486 386l-9 -45l-14 -81
q-1 -9 -1 -17q0 -14 5 -47l3 -22q3 -20 6 -36l4 -17q2 -3 3 -13q-6 13 -17 38q-28 64 -28 97q0 41 16 76l17 38q9 21 15 29zM432 349q-26 -45 -26 -83q0 -23 5 -36l6 -16q0 -1 2 -9l-56 74l63 66zM61 325q3 -6 4 -7l15 -20l2 -2t3 -3.5t3 -4.5q-24 -58 -36 -105l-3 -15
q-3 19 -3 35q0 67 15 122zM114 250l17 -25q-29 -32 -49 -57l-13 -17l-6 -7q18 56 51 106zM217 110q19 -21 34 -55q-11 5 -20 5q-22 0 -38 -15q4 33 24 65zM66 30l97 -1l-78 -14l-57 -13l-18 -5l9 32zM367 26l124 1l5 -21l-78 2l-77 4l-50 6l17 3zM113 403l-24 -12
q3 -4 7 -9.5t6 -8.5t3 -4l21 -26q64 -82 119 -159l61 -85l5 -7h7l-40 64l-78 120l-58 86q-1 2 -5 7t-5 8l-14 18q0 1 -5 8z" />
    <glyph glyph-name="y" unicode="y" horiz-adv-x="540" 
d="M566 491l-69 -4l-140 -5q4 -17 4 -37q0 -8 -1 -14q-23 37 -59 67l9 1q46 6 83 6q71 0 138 -8q5 -1 10 -1.5t8 -1t4 -0.5q8 0 13 -3zM134 501l-9 -4l-57 -14q-10 -2 -47 -14l-10 -3l-4 18q3 1 6 1l20 6q8 1 41 5zM196 496q4 -6 7 -12q11 -20 25 -64q8 -26 32 -82
q35 -82 53 -114q76 112 76 205q0 9 -3 35l146 2q-10 -41 -18 -60l-20 -46l-35 -69l-34 -62l-44 -74l-51 -77q-51 -79 -98 -123l-63 -5l-28 -1q-70 26 -109 53q23 49 69 76q25 -32 60 -57l17.5 12.5t12.5 9.5l7 6l-37 72l-41 80l-36 79l-23 53l-14 28q-16 30 -38 64l-5 8
q96 38 192 63zM284 468q19 -21 24 -25l16 -16l27 -28l7 -7l-11 -44l-28 48q-8 13 -9 16l-13 26q-10 21 -13 30zM244 466q25 -39 43 -83q26 -59 44 -77l-15 -31q-16 24 -31 62q-18 47 -32 92q-7 24 -9 37zM27 264q5 -13 10 -28q23 -64 59 -124l-27 -22l-5 15l-16 58
q-19 66 -21 101zM60 256q33 -40 62 -103q16 -35 27 -64q6 -20 7 -24l2 -8q-32 37 -56 85q-16 33 -22 54zM449 211l-26 -55l-32 -65l-65 -123l-38 -6l4 9l32 54l53 83zM23 152l27 -81q-16 -19 -29 -35q-3 13 -3 36q0 39 4 71zM457 151q-9 -40 -26 -90q-33 -97 -52 -139h-13
q-70 3 -98 7q57 10 90 24l37 77l37 75zM31 -22q18 -12 52 -25q2 -1 8 -3h-54zM79 404l22 -49l80 -189l44 -92l4 6l-46 121l-50 141l-28 71z" />
    <glyph glyph-name="z" unicode="z" horiz-adv-x="465" 
d="M338 514l120 1l-7 -22l-88 -6l-39 -1h-80l-71 3l-58 7l-25 4q3 0 6 1q4 1 5 1l18 2l10 1l79 6zM24 485l28 -8q-21 -46 -29 -78l-14 -54q-1 4 -1 9q0 2 0.5 5t1 9.5t0.5 14.5q2 54 14 102zM83 470l35 -2l85 -3h113l127 2q-20 -61 -59 -118l-56 -83l-30 -49l-34 -58
l-19 -35l52 12q55 13 97 36q32 -51 50 -126l-115 3h-169l-143 -2q6 27 20 57q6 14 13 28q3 4 3 7l26 46l42 68l29 52q25 43 49 98q-46 -7 -67 -17l-25 -10l-47 -20l-26 -8q18 73 49 122zM150 369q0 -8 -7 -22l-12 -23q-38 -75 -87 -133l30 64q17 44 22 87zM425 346l-45 -84
l-9 -19l-20 -56l-49 -17l32 58q2 5 29 44q29 42 62 74zM445 322q-13 -43 -16 -67l-3 -23v-2q-1 -1 -1.5 -3t-0.5 -4l-34 -18l18 43q15 36 32 65zM52 316q-9 -64 -40 -122l6 62v40zM207 30h67l67 -2l-71 -13l-66 -9l-58 -7l-76 -6l-63 -2l3 26l64 6l61 5zM388 -2l62 5l4 -26
l-77 -3h-56l-71 2l-17 1l71 12zM257 405l-39 -66l-44 -77l-35 -65l-52 -103h6l10 20l55 92l50 79l47 70l35 50h-33z" />
    <glyph glyph-name="bar" unicode="|" horiz-adv-x="348" 
d="M216 -235h-85v1000h85v-1000z" />
    <glyph glyph-name="asciitilde" unicode="~" 
d="M627 308q-70 -91 -163 -91q-60 0 -122 34q-64 35 -105 35q-55 0 -105 -70l-57 64q34 43 70.5 66.5t89.5 23.5q61 0 123 -33q61 -35 106 -35q55 0 105 70z" />
    <glyph glyph-name="uni00A0" unicode="&#xa0;" horiz-adv-x="300" 
 />
    <glyph glyph-name="exclamdown" unicode="&#xa1;" horiz-adv-x="317" 
d="M160 634q50 -27 107 -79q-16 -24 -34.5 -38t-74.5 -45q-51 21 -112 70l-6 5q49 54 120 87zM223 632l64 -11l3 -52q-2 1 -3.5 2.5l-2.5 2.5l-1 2l-23 22l-28 26q-2 1 -9 8zM18 612l107 22q-37 -15 -59 -27l-50 -28zM234 487l13 -108l12 -83l13 -68l-32 80l-21 65l-25 93z
M61 485l69 -28l-23 -60l-39 -98l-25 -57v6l20 76l17 73l10 54q-12 14 -13 15q-12 12 -16 19zM14 485q18 -35 20 -38q12 -19 12 -28t-4 -46q-4 -35 -12 -73l-7 109l-6 57zM158 438l17 -36l25 -65l36 -107l26 -89l19 -68l-51 -18q-8 -3 -19 -6l-34 -9q-20 -5 -23 -5
q-10 0 -65 19q-38 14 -66 31l21 72l31 95l21 56q29 77 62 130zM11 51l127 -48h-8l-116 17zM298 40l8 -29l-64 -5l-55 -3q-10 -1 -14 -1q-5 0 -8 1l78 20zM160 351l-34 -92l-20 -63l-24 -89l32 -10l9 69l11 64z" />
    <glyph glyph-name="cent" unicode="&#xa2;" horiz-adv-x="486" 
d="M187 620q5 -19 7 -50l-9 -3l-21 -7q-31 -12 -32 -13l-57 -44l-57 -46l41 45l51 50zM351 615l66 -43l11 -7l24 -16q4 -4 9 -8l-123 34zM317 609l-1 -9q0 -3 -0.5 -7t-1 -7t-0.5 -4q-3 -18 -3 -27q90 -21 142 -47q-25 -59 -57 -104q-6 4 -6 6l-18 16l-4 4q-4 3 -13 9.5
t-17 13.5q-22 17 -28 17q-9 0 -35 -14q-12 -7 -14.5 -9.5t-3.5 -11.5l-4 -24q-3 -20 -3 -76q0 -37 4 -60l7 -51q1 -8 8 -10l10 -3q8 -3 29 -9q10 7 11 7l47 38q2 2 14 12l8 -8l30 -32l28 -35q2 -1 7 -8q-59 -40 -143 -70q0 -17 5 -51q-31 -4 -60 -4q-22 0 -38 2q2 18 4 53
l-33 11l-28 10q-25 9 -38 23q-36 39 -55 72l-22 36q-8 14 -10 26t-2 47q0 47 6 85q2 9 26 36q21 25 52 53q16 14 35 21l73 26q-2 17 -3 26l-4 19q0 4 -2 9q26 5 59 5q10 0 42 -2zM467 480v-82q-3 7 -5 9l-12 18l-4 5q-1 2 -1 4t2 6q4 8 7 13l7 16zM281 424q15 -79 33 -117
l16 -32l2 -3q1 -4 2 -6q-5 -5 -7 -6q-2 -2 -5 -4q-2 -2 -4 -3l-1 -1l-13 -12q-1 0 -3.5 -2.5l-3.5 -3.5q-22 70 -20 114l1 47q0 19 3 29zM333 408l23 -48q1 -2 9.5 -16.5t15.5 -25.5l7 -12l-18 -14q-35 65 -37 116zM430 407l37 -58l-4 -72l-10 21l-40 76zM24 228l57 -70
l42 -44l48 -20l20 -8l-10 -41l-51 34q-28 19 -39 34l-28 46l-32 55zM436 130l-24 -22l-65 -50q0 3 -0.5 8.5t-1.5 7.5q-1 9 -3 22l67 23zM154 479q-4 -4 -8 -7.5t-7 -6t-5 -4.5l-3 -3l-37 -40q-9 -10 -10.5 -15t-3.5 -26l-1 -34v-20q-1 -24 2 -34t15 -30q24 -40 59 -78l-6 9
q-19 33 -24 42l-12 26q-13 25 -13 41q0 57 8 103l9 17z" />
    <glyph glyph-name="sterling" unicode="&#xa3;" horiz-adv-x="551" 
d="M191 639l46 4l-24 -17q-5 -3 -14.5 -10t-14.5 -11q-11 -8 -19 -14l-49 -42q-3 -1 -12 -9q9 39 29 89zM409 643l63 -5l60 -8l-6 -29l-82 28l-45 13zM313 634q114 -11 205 -60q-21 -66 -47 -105q-36 55 -103 88q-19 -22 -36 -49q-10 -17 -11.5 -23t-1.5 -29l-1 -17l1 -58
h22l56 1h6l22 2q2 0 11.5 1.5t18.5 3.5q-7 -55 -35 -113q-45 31 -97 39l-1 -24l1 -66l4 -69q2 -25 4 -38l10 2q35 8 54 15q33 11 42 16l59 27q33 -75 45 -131l-74 5l-88 1l-127 -1l-111 -2l-107 -4l-2 76q36 16 61 36l-3 114l2 61l-33 15q1 1 2.5 3t2.5 3t1 2q18 25 28 35
l3 3l1 2l4 47l6 40q2 18 12 27l13 13q66 69 129 96q35 14 52 15zM50 608l38 9l-23 -82l-20 -80l-21 -104l-1 17l7 83l10 89l3 18l6 40q0 4 1 10zM377 522q24 -15 38.5 -29.5t28.5 -38.5q-29 13 -73 26l-26 -74q-3 18 -3 29q0 33 7.5 51.5t27.5 35.5zM511 467l1 -13l-6 -81
l-10 -76q0 -5 -10 -60l-1 -8l-12 -4q-23 -7 -37 -8l30 87l33 114zM52 319l16 -9v-126l-34 -18l5 58l9 71zM345 279q50 -11 65 -33q-27 -2 -43 -5l-5 -36l-7 -62q-11 52 -11 107q0 15 1 29zM546 24l4 -21l-60 1l-180 7l-118 7h-11q-3 0 -9.5 1t-13 1.5t-13.5 1.5l-13 1l109 6
l70 2h4l41 -1l34 1h10h18l57 -2l16 -1q6 0 14 -0.5t10 -0.5l21 -2l4 -1h6zM247 562q-23 -18 -40 -33l-30 -27q-16 -15 -20 -25.5t-7 -42.5l-3 -31q-3 -26 -3 -34l-2 -53l1 -72l5 -86l4 -55h7l-2 64l1 94l4 72l6 61q0 1 9 61q4 21 26 51l11 16q11 17 33 40z" />
    <glyph glyph-name="yen" unicode="&#xa5;" horiz-adv-x="551" 
d="M366 668l76 -11l90 -11l-78 -5l-86 -2zM235 648q17 -71 42 -116l34 -63l39 -60l38 56q2 3 4 7l17 34q11 25 11 63q0 21 -6 51q72 -2 82 -2q40 0 72 1q-13 -48 -37 -92l-27 -47q-25 -42 -66 -97l70 8l-5 -80l-12 2l-56 3l-43 1l-1 -29l34 -1l76 3l-9 -72l-60 4h-43l-1 -61
l2 -57q1 -27 8 -55h-132l-112 -5l3 60l-1 64l-2 56l-66 -2l-27 -4l-10 74q32 -4 72 -4h30l-2 30l-66 -3l-35 -4l-6 78q22 -4 64 -6h11l-48 70q-27 38 -54 97l18 11l50 27l52 23zM-16 612l152 22q-5 -3 -10.5 -5t-9 -3.5t-4.5 -2.5l-47 -20l-53 -24l-9 -4zM265 625l26 -48
q29 -52 75 -94l-20 -28q-34 46 -53 90q-24 56 -28 80zM369 623q26 -32 26 -63q0 -28 -15 -56l-7 60zM414 196q11 1 26 1q5 0 31 -2l-34 -22l-8 -53l-1 -15l-2 -27q0 -10 -1 -22v-12q-13 49 -13 115q0 9 2 37zM131 160q2 -13 3 -42q1 -19 1 -71v-23h74q23 0 41 -3
q-16 -5 -62 -13q-27 -5 -75 -7l5 67l9 74zM119 534l-28 -15l29 -55l38 -60l35 -50l5 -86l3 -89l1 -80l7 -1l4 130v129l-32 53l-31 55q-11 23 -26 56z" />
    <glyph glyph-name="brokenbar" unicode="&#xa6;" horiz-adv-x="348" 
d="M216 334h-85v431h85v-431zM216 -235h-85v438h85v-438z" />
    <glyph glyph-name="dieresis" unicode="&#xa8;" horiz-adv-x="494" 
d="M67 639l58 8l-56 -29zM323 645l27 -16l37 -28l-43 -26l-25 -12l-47 25l-20 13l17 12l30 19zM174 643q2 -1 7 -4t12 -8l14 -9q10 -7 28 -22l-25 -15l-44 -23l-33 19l-31 19v2l33 20zM212 643l30 -4h23l-28 -21l-22 22q-2 1 -3 3zM363 643l64 -7l-4 -28z" />
    <glyph glyph-name="guillemotleft" unicode="&#xab;" horiz-adv-x="348" 
d="M87 508l30 -19l-68 -104l-32 -53l3 12l21 58zM173 491q24 -8 43 -8q10 0 34 4l-33 -38l-4 4l-3.5 3.5l-2.5 2.5q-26 22 -34 32zM147 469l49 -43l-33 -49q-33 -47 -53 -93l32 -53q13 -22 28 -43q24 -34 31 -45q-17 -25 -45 -40l-7 7q-29 31 -62.5 79.5t-49.5 85.5l-7 15
q-2 6 -2 7q0 3 3 6l28 47l39 55zM275 457q33 -25 52 -47l-47 -57l-45 -60l-13 -19q41 -61 89 -108q-19 -33 -48 -54l-36 43q-53 66 -80 128l11 20l32 48l46 59zM331 356q-27 -54 -27 -97q0 -22 8 -47q-7 8 -15 18t-12 14q-15 21 -17 23q-5 7 -5 9q0 3 6 9q2 2 22 27
q12 16 40 44zM35 206q46 -43 89 -113q-11 1 -27 5l-10 2l-29 56q-11 19 -23 50z" />
    <glyph glyph-name="logicalnot" unicode="&#xac;" 
d="M603 138h-85v186h-419v85h504v-271z" />
    <glyph glyph-name="uni00AD" unicode="&#xad;" horiz-adv-x="448" 
d="M296 392l129 1l-1 -23h-10h-9t-21.5 -0.5t-28.5 -0.5q-20 -1 -55 -1h-32q-60 0 -114 2q-18 1 -32 1q-20 1 -26 3l8 2l56 7l57 5zM81 388l-18 -53l-18 -60l-15 -63l-12 -53l-1 -1l8 86l8 59l3 13l3 21l5 25q2 4 3 15q26 9 34 11zM399 350l-53 -114l-173 -2l-58 -3l-42 -3
q10 57 34 109l70 6q3 0 12.5 0.5t17.5 0.5q2 0 15.5 -0.5t23.5 -0.5h46q53 0 107 7zM431 336l-18 -52q-2 -4 -5 -16l-4 -16q-6 -23 -11 -62l-35 1l41 88l28 52zM335 215l-12 -24l-99 2l-141 7l63 7l73 5l75 3h41zM322 167l69 -3q-1 -4 -1 -10v-9l-101 6l-82 4
q-11 0 -24.5 0.5t-15.5 0.5h-42h-9q-8 1 -16 1q16 5 33 6l45 3l72 2z" />
    <glyph glyph-name="plusminus" unicode="&#xb1;" 
d="M603 0h-503v85h503v-85zM603 345h-209v-197h-85v197h-209v85h209v198h85v-198h209v-85z" />
    <glyph glyph-name="acute" unicode="&#xb4;" horiz-adv-x="381" 
d="M281 664q4 -2 6 -7l13 -22q7 -12 14 -31l-83 -25l-71 -19l-43 -10h-2q-2 -1 -5 -1q-4 -1 -9 -2q-1 -1 -4 -1.5t-4 -0.5l-5 10l79 47l80 45zM182 652l-47 -34l-58 -40l-4 8q-3 11 -5 13l-2 4q0 1 0.5 1t0.5 1l84 34z" />
    <glyph glyph-name="mu" unicode="&#xb5;" horiz-adv-x="790" 
d="M683 0h-83v110h-3q-66 -120 -214 -120q-129 0 -190 94q-1 1 -2 1v-276h-84v691h84v-225q0 -99 52 -158.5t150 -59.5q86 0 143.5 58t62.5 122v263h84v-500z" />
    <glyph glyph-name="periodcentered" unicode="&#xb7;" horiz-adv-x="259" 
d="M142 434q3 1 6 1q25 0 76 -16l9 -2q2 -8 6 -32q-30 18 -54 30zM118 433q-7 -5 -31 -16q-20 -10 -59 -35l-7 -5l-1 1q5 17 12 33v-1q63 23 83 23h3zM242 346q-24 -24 -39 -35l-32 -23q-27 -19 -32 -19q-1 0 -7 2l-2 1q-2 1 -6 2.5t-8 3.5q-35 12 -91 58v1l-2 1
q30 33 62 52l11 6q26 16 31 16q6 0 17 -4l9 -4q42 -15 89 -58zM17 313l42 -26q18 -11 53 -28h-7q-4 1 -10 2l-18 4l-9 2l-6 1q-9 2 -33 8q-7 16 -12 37zM239 308q1 -4 1 -8q0 -3 -2 -19l-1 -8q-41 -13 -70 -15q37 21 72 50z" />
    <glyph glyph-name="guillemotright" unicode="&#xbb;" horiz-adv-x="360" 
d="M286 509l29 -83q2 -3 3 -10l10 -36q4 -17 8 -42l-38 78l-43 80zM215 471l5 -7q54 -66 81 -113l23 -39q7 -14 7 -18t-10 -26q-3 -10 -15 -29q-13 -23 -17 -30l-39 -56l-2 -3q-3 -4 -5 -6l-14 -18q-12 -15 -27 -33q-23 19 -50 49l35 54l40 68l10 17q5 7 5 9q0 1 -1 3.5
t-2 4.5l-6 12l-32 53q-12 21 -41 60l-5 7q22 23 60 41zM91 448q75 -76 114 -162q-7 -20 -22 -46q-26 -42 -40 -61q-6 -8 -26 -33q-3 -4 -23 -30l-7 -8q-25 24 -46 52l37 50l12 18q8 11 27 43l5 8q-32 66 -90 126q21 21 59 43zM17 376q33 -28 58 -71l13 -23l2 -6l-1 -2l-2 -4
l-12 -18q-13 -18 -41 -49l14 47l8 28q2 5 2 10q0 1 -2 9l-25 52zM343 251q-3 -26 -5 -36q0 -2 -2 -10.5t-3 -15.5q-4 -20 -5 -24q-1 -6 -2.5 -12t-2.5 -9l-1 -4q-2 -12 -14 -21q-24 -16 -38 -24l36 71zM138 120l60 -60q-41 26 -81 29z" />
    <glyph glyph-name="questiondown" unicode="&#xbf;" horiz-adv-x="582" 
d="M234 638l-103 -188l-74 -137l10 29l98 244l5 14q7 19 21.5 27.5t42.5 10.5zM342 638q58 -23 108 -69q-27 -26 -57 -44q-41 -26 -50 -26q-6 0 -15 5l-44 21q-21 10 -55 34q48 45 113 79zM369 480l89 47l5 -33q-1 0 -4.5 -0.5t-4.5 -1.5q-46 -11 -85 -12zM237 515
q37 -16 40 -17q25 -11 46 -19q-35 -2 -85 -11l-8 -2q-4 -18 -7 -49l-64 -28l-27 -16q12 13 15 18l43 48q15 18 34 52l9 16zM419 448q-1 -28 -4 -37l-6 -28q-5 -18 -11 -23l-18 -12q-6 -4 -22 -15l-37 -23q-3 -2 -7 -5l-1 -9q-3 -42 -3 -73q0 -32 5 -76l1 -9l35 -17l54 46
q42 35 83 82q29 -26 43 -44t33 -52q-37 -29 -67 -46l-40 -21l-56 -26l-63 -26l-63 12l-15 3q-107 26 -181 77q-6 45 -6 75q0 3 0.5 9t1 16.5t0.5 21.5q2 32 3 36t8 10l19 17q40 34 99 62l41 20q3 28 9 51l14 3q50 9 77 9q29 0 74 -8zM498 354q17 -23 47 -80q20 -38 26 -56
l-43 51l-26 28h-2l-29 -33l-28 -28l-51 -44l39 57l44 67q2 2 9 14t13 21zM427 330l-1 -2l-58 -57q-3 -14 -6 -27.5t-4.5 -20t-2.5 -9.5l-5 -31q0 -1 -1 -7t-2 -11q-7 41 -7 64l1 45v6q2 14 6 16l2 1l28 13zM30 271l4 -67l7 -81l36 -23l64 -37q-14 2 -30 8q-44 15 -58 21
l-34 15l-7 3v18l7 68zM523 91l-12 -13q-32 -34 -69 -65l-6 -6l-56 4l89 48zM234 338q-69 -36 -113 -70q-3 -32 -3 -57l1 -44q0 -5 1 -7.5t3 -4.5t7 -5l26 -15q21 -13 62 -29l8 -3l-53 37q-5 3 -15 11q-12 9 -14 12.5t-2 11.5q0 1 0.5 9.5t0.5 13.5q0 6 0.5 13t1 10.5
t0.5 5.5q0 4 0.5 8.5t1 7t0.5 3.5q0 12 7 19l39 37z" />
    <glyph glyph-name="Agrave" unicode="&#xc0;" 
d="M244 654l40 13l-42 -93l-34 -73l-82 -169l-63 -128l-50 -98l27 78l31 80l38 94l35 79zM382 666q19 -5 45 -17l15 -64l16 -63l23 -72q0 -2 5 -17l14 -38l6 -16q0 -4 1 -7l-4 6l-45 88l-32 69q-33 72 -44 131zM329 662q23 -31 42 -68l65 -128l80 -160l70 -144l30 -65
l-65 -34q-54 -29 -131 -51l-26 68l-24 57q0 1 -13 29q-2 4 -4.5 8t-3.5 7l-71 -5q-53 -4 -113 -23q-8 -37 -8 -61q0 -21 5 -41l-142 -4l8 24l26 62l71 150l67 131l80 146zM196 634l-50 -113l-122 -292l48 149l29 85l39 100l22 54zM469 604l25 -58l30 -76l4 -18l2 -55l-1 -12
l2 -17v-5l-1 -1l-28 101l-21 84zM545 317q15 -19 32 -47q22 -38 26 -47t12 -43q1 -7 11 -39l-6 8q-28 43 -49 95q-15 34 -26 73zM340 159q6 -10 13 -30l-38 5l-57 3h-16l-29 -1l-25 -1h-8h-4l12 3q74 19 152 21zM362 106l-61 -5l-13 -2q-31 -3 -81 -13q-10 -13 -14 -18
l-9 -13q-5 26 -6 60q23 2 60 2q74 0 124 -11zM373 75q13 -44 17 -66h-49l-58 1l-99 5l-107 8l14 2l58 4l100 3l63 3l44 3q2 3 4 7l1 4l8 19q0 1 4 7zM296 487l-15 -32l121 -263l48 -108l7 3l-45 116l-64 158zM252 387l-24 -59l-32 -87l128 2l-7 17q-26 70 -65 127zM254 339
l5 -8q14 -25 26 -55q-22 -8 -33 -10v11q-1 9 -1 20q0 7 2 33zM143 837l24 -9l-16 -31l-18 -37l1 29l4 30zM197 815l41 -17l62 -29l78 -42l1 -1v1l14 -8l-4 -9l-83 11l-82 15l-67 15l8 17l15 25q4 7 17 22zM327 786l48 -13l42 -12l-11 -19l-79 42v2z" />
    <glyph glyph-name="Aacute" unicode="&#xc1;" 
d="M244 654l40 13l-42 -93l-34 -73l-82 -169l-63 -128l-50 -98l27 78l31 80l38 94l35 79zM382 666q19 -5 45 -17l15 -64l16 -63l23 -72q0 -2 5 -17l14 -38l6 -16q0 -4 1 -7l-4 6l-45 88l-32 69q-33 72 -44 131zM329 662q23 -31 42 -68l65 -128l80 -160l70 -144l30 -65
l-65 -34q-54 -29 -131 -51l-26 68l-24 57q0 1 -13 29q-2 4 -4.5 8t-3.5 7l-71 -5q-53 -4 -113 -23q-8 -37 -8 -61q0 -21 5 -41l-142 -4l8 24l26 62l71 150l67 131l80 146zM196 634l-50 -113l-122 -292l48 149l29 85l39 100l22 54zM469 604l25 -58l30 -76l4 -18l2 -55l-1 -12
l2 -17v-5l-1 -1l-28 101l-21 84zM545 317q15 -19 32 -47q22 -38 26 -47t12 -43q1 -7 11 -39l-6 8q-28 43 -49 95q-15 34 -26 73zM340 159q6 -10 13 -30l-38 5l-57 3h-16l-29 -1l-25 -1h-8h-4l12 3q74 19 152 21zM362 106l-61 -5l-13 -2q-31 -3 -81 -13q-10 -13 -14 -18
l-9 -13q-5 26 -6 60q23 2 60 2q74 0 124 -11zM373 75q13 -44 17 -66h-49l-58 1l-99 5l-107 8l14 2l58 4l100 3l63 3l44 3q2 3 4 7l1 4l8 19q0 1 4 7zM296 487l-15 -32l121 -263l48 -108l7 3l-45 116l-64 158zM252 387l-24 -59l-32 -87l128 2l-7 17q-26 70 -65 127zM254 339
l5 -8q14 -25 26 -55q-22 -8 -33 -10v11q-1 9 -1 20q0 7 2 33zM440 823q4 -3 6 -7l13 -22q7 -12 14 -31l-83 -25l-71 -19l-43 -10h-2q-2 -1 -5 -1q-4 -1 -9 -2q-1 -1 -4 -1.5t-4 -0.5l-5 10l79 47l80 45zM341 811l-47 -34l-58 -40q-1 1 -1.5 2.5t-1.5 3t-1 2.5q-3 11 -5 13
l-2 4l1 1v1l84 34z" />
    <glyph glyph-name="Acircumflex" unicode="&#xc2;" 
d="M244 654l40 13l-42 -93l-34 -73l-82 -169l-63 -128l-50 -98l27 78l31 80l38 94l35 79zM382 666q19 -5 45 -17l15 -64l16 -63l23 -72q0 -2 5 -17l14 -38l6 -16q0 -4 1 -7l-4 6l-45 88l-32 69q-33 72 -44 131zM329 662q23 -31 42 -68l65 -128l80 -160l70 -144l30 -65
l-65 -34q-54 -29 -131 -51l-26 68l-24 57q0 1 -13 29q-2 4 -4.5 8t-3.5 7l-71 -5q-53 -4 -113 -23q-8 -37 -8 -61q0 -21 5 -41l-142 -4l8 24l26 62l71 150l67 131l80 146zM196 634l-50 -113l-122 -292l48 149l29 85l39 100l22 54zM469 604l25 -58l30 -76l4 -18l2 -55l-1 -12
l2 -17v-5l-1 -1l-28 101l-21 84zM545 317q15 -19 32 -47q22 -38 26 -47t12 -43q1 -7 11 -39l-6 8q-28 43 -49 95q-15 34 -26 73zM340 159q6 -10 13 -30l-38 5l-57 3h-16l-29 -1l-25 -1h-8h-4l12 3q74 19 152 21zM362 106l-61 -5l-13 -2q-31 -3 -81 -13q-10 -13 -14 -18
l-9 -13q-5 26 -6 60q23 2 60 2q74 0 124 -11zM373 75q13 -44 17 -66h-49l-58 1l-99 5l-107 8l14 2l58 4l100 3l63 3l44 3q2 3 4 7l1 4l8 19q0 1 4 7zM296 487l-15 -32l121 -263l48 -108l7 3l-45 116l-64 158zM252 387l-24 -59l-32 -87l128 2l-7 17q-26 70 -65 127zM254 339
l5 -8q14 -25 26 -55q-22 -8 -33 -10v11q-1 9 -1 20q0 7 2 33zM462 737l-13 -24q-41 11 -57 16l-4 2l-7 2l-51 19l-9 -4q-66 -30 -114 -40l-12 23l12 8q6 5 37 25q37 24 49 30l24 11q6 3 7 3q2 0 14 -5q1 0 3 -1t6 -2.5t7 -2.5q47 -16 108 -60zM384 806q19 -1 38 -5l58 -13
q0 -1 -1.5 -7t-3.5 -11l-9 4q-32 15 -82 31v1zM262 802q-9 -8 -21 -15l-39 -23l-16 -8l-7 22q11 4 43 14q36 10 39 10h1z" />
    <glyph glyph-name="Atilde" unicode="&#xc3;" horiz-adv-x="638" 
d="M244 654l40 13l-42 -93l-34 -73l-82 -169l-63 -128l-50 -98l27 78l31 80l38 94l35 79zM382 666q19 -5 45 -17l15 -64l16 -63l23 -72q0 -2 5 -17l14 -38l6 -16q0 -4 1 -7l-4 6l-45 88l-32 69q-33 72 -44 131zM329 662q23 -31 42 -68l65 -128l80 -160l70 -144l30 -65
l-65 -34q-54 -29 -131 -51l-26 68l-24 57q0 1 -13 29q-2 4 -4.5 8t-3.5 7l-71 -5q-53 -4 -113 -23q-8 -37 -8 -61q0 -21 5 -41l-142 -4l8 24l26 62l71 150l67 131l80 146zM196 634l-50 -113l-122 -292l48 149l29 85l39 100l22 54zM469 604l25 -58l30 -76l4 -18l2 -55l-1 -12
l2 -17v-5l-1 -1l-28 101l-21 84zM545 317q15 -19 32 -47q22 -38 26 -47t12 -43q1 -7 11 -39l-6 8q-28 43 -49 95q-15 34 -26 73zM340 159q6 -10 13 -30l-38 5l-57 3h-16l-29 -1l-25 -1h-8h-4l12 3q74 19 152 21zM362 106l-61 -5l-13 -2q-31 -3 -81 -13q-10 -13 -14 -18
l-9 -13q-5 26 -6 60q23 2 60 2q74 0 124 -11zM373 75q13 -44 17 -66h-49l-58 1l-99 5l-107 8l14 2l58 4l100 3l63 3l44 3q2 3 4 7l1 4l8 19q0 1 4 7zM296 487l-15 -32l121 -263l48 -108l7 3l-45 116l-64 158zM252 387l-24 -59l-32 -87l128 2l-7 17q-26 70 -65 127zM254 339
l5 -8q14 -25 26 -55q-22 -8 -33 -10v11q-1 9 -1 20q0 7 2 33zM501 818q2 -8 2 -9q5 -18 5 -30q0 -3 -0.5 -11t-0.5 -12q-9 26 -16 39l-7 11q-1 1 -3 4t-3 5zM252 817l-10 -2l-73 -25q-1 3 -3 6.5t-3.5 6.5t-2.5 7q16 3 32 5l22 2q14 2 26 2zM390 807l31 3q-3 -2 -6 -4.5
t-4 -2.5l-15 -10l-11 -9q-3 -3 -7 -6q-13 9 -23 14l-21 12l-3 2q-3 1 -5 3zM450 798q13 -18 21 -41q-31 -20 -57 -32q-16 -8 -18 -8q-8 -5 -10 -5q-10 0 -36 12l-59 23l-24 12q-6 -4 -8 -5l-14 -7l-12 -5l-5 -3q-11 -5 -15 -7q-1 0 -2 -1l-6 -3q-10 13 -12 17l-3 6l-7 11
l-1 2q-2 3 -3 4q15 9 18 10q1 1 19 9l9 4l16 6q21 7 24 7q5 0 26 -9l23 -8q2 -1 9 -4t11 -5l15 -7q6 -3 11.5 -5.5t9.5 -4.5l3 -2q6 -4 7 -4q2 0 8 6q18 16 62 37z" />
    <glyph glyph-name="Adieresis" unicode="&#xc4;" 
d="M244 654l40 13l-42 -93l-34 -73l-82 -169l-63 -128l-50 -98l27 78l31 80l38 94l35 79zM382 666q19 -5 45 -17l15 -64l16 -63l23 -72q0 -2 5 -17l14 -38l6 -16q0 -4 1 -7l-4 6l-45 88l-32 69q-33 72 -44 131zM329 662q23 -31 42 -68l65 -128l80 -160l70 -144l30 -65
l-65 -34q-54 -29 -131 -51l-26 68l-24 57q0 1 -13 29q-2 4 -4.5 8t-3.5 7l-71 -5q-53 -4 -113 -23q-8 -37 -8 -61q0 -21 5 -41l-142 -4l8 24l26 62l71 150l67 131l80 146zM196 634l-50 -113l-122 -292l48 149l29 85l39 100l22 54zM469 604l25 -58l30 -76l4 -18l2 -55l-1 -12
l2 -17v-5l-1 -1l-28 101l-21 84zM545 317q15 -19 32 -47q22 -38 26 -47t12 -43q1 -7 11 -39l-6 8q-28 43 -49 95q-15 34 -26 73zM340 159q6 -10 13 -30l-38 5l-57 3h-16l-29 -1l-25 -1h-8h-4l12 3q74 19 152 21zM362 106l-61 -5l-13 -2q-31 -3 -81 -13q-10 -13 -14 -18
l-9 -13q-5 26 -6 60q23 2 60 2q74 0 124 -11zM373 75q13 -44 17 -66h-49l-58 1l-99 5l-107 8l14 2l58 4l100 3l63 3l44 3q2 3 4 7l1 4l8 19q0 1 4 7zM296 487l-15 -32l121 -263l48 -108l7 3l-45 116l-64 158zM252 387l-24 -59l-32 -87l128 2l-7 17q-26 70 -65 127zM254 339
l5 -8q14 -25 26 -55q-22 -8 -33 -10v11q-1 9 -1 20q0 7 2 33zM153 796l58 8l-56 -29zM409 802l27 -16l37 -28l-43 -26l-25 -12l-47 25l-20 13l17 12l30 19zM260 800q2 -1 7 -4t12 -8l14 -9q10 -7 28 -22l-25 -15l-44 -23l-33 19l-31 19v2l33 20zM298 800l30 -4h23l-28 -21
l-22 22q-2 1 -3 3zM449 800l64 -7l-4 -28z" />
    <glyph glyph-name="Aring" unicode="&#xc5;" 
d="M244 654l40 13l-42 -93l-34 -73l-82 -169l-63 -128l-50 -98l27 78l31 80l38 94l35 79zM382 666q19 -5 45 -17l15 -64l16 -63l23 -72q0 -2 5 -17l14 -38l6 -16q0 -4 1 -7l-4 6l-45 88l-32 69q-33 72 -44 131zM329 662q23 -31 42 -68l65 -128l80 -160l70 -144l30 -65
l-65 -34q-54 -29 -131 -51l-26 68l-24 57q0 1 -13 29q-2 4 -4.5 8t-3.5 7l-71 -5q-53 -4 -113 -23q-8 -37 -8 -61q0 -21 5 -41l-142 -4l8 24l26 62l71 150l67 131l80 146zM196 634l-50 -113l-122 -292l48 149l29 85l39 100l22 54zM469 604l25 -58l30 -76l4 -18l2 -55l-1 -12
l2 -17v-5l-1 -1l-28 101l-21 84zM545 317q15 -19 32 -47q22 -38 26 -47t12 -43q1 -7 11 -39l-6 8q-28 43 -49 95q-15 34 -26 73zM340 159q6 -10 13 -30l-38 5l-57 3h-16l-29 -1l-25 -1h-8h-4l12 3q74 19 152 21zM362 106l-61 -5l-13 -2q-31 -3 -81 -13q-10 -13 -14 -18
l-9 -13q-5 26 -6 60q23 2 60 2q74 0 124 -11zM373 75q13 -44 17 -66h-49l-58 1l-99 5l-107 8l14 2l58 4l100 3l63 3l44 3q2 3 4 7l1 4l8 19q0 1 4 7zM296 487l-15 -32l121 -263l48 -108l7 3l-45 116l-64 158zM252 387l-24 -59l-32 -87l128 2l-7 17q-26 70 -65 127zM254 339
l5 -8q14 -25 26 -55q-22 -8 -33 -10v11q-1 9 -1 20q0 7 2 33zM347 836q33 -3 57 -12l16 -4q1 -1 8 -3q-1 -63 -10 -97q-1 3 -1 7l-2 23l-1 3v5q-2 11 -4 22.5t-2 12.5q0 7 -1.5 9.5t-10.5 7.5l-25 13l-10 5q-1 0 -6 3q-1 0 -3.5 2t-4.5 3zM341 811l8 -4l24 -17q8 -6 10 -10
t2 -15l-1 -21l-1 -9q-1 -7 -1.5 -10t-2.5 -5t-7 -5l-14 -10l-19 -9q-5 -3 -7 -3l-2 1q-1 0 -4 1t-5 2l-15 7q-6 2 -9 5l-18 11q-7 5 -7 10v26q0 11 4 34q35 16 56 20h4l2 1h1h2zM250 809q-1 -4 -1 -7l-2 -20q-1 -10 -1 -38q0 -24 1 -44h-2l-26 18q3 13 12 43q11 34 19 48z
M336 792q-24 -30 -37 -66q31 9 51 18q-6 27 -14 48z" />
    <glyph glyph-name="AE" unicode="&#xc6;" horiz-adv-x="829" 
d="M303 663l114 -9l124 -7l-40 -3l-77 -3h-91l-18 -25l-58 -82l-66 -100l-61 -97l40 85l68 132l33 59zM802 662q7 -42 7 -88q0 -21 -3 -37q-7 28 -16 54l-11 32q-3 9 -6 19l-83 -1l-10 1l93 16zM236 649l-29 -55l-26 -54l-57 -122l-52 -121l-21 -53l-13 -29l34 112l44 129
l35 97l27 67l7 3q24 13 51 26zM638 618l109 3l4 -11q14 -34 22 -76l1 -9q-74 28 -136 33l-56 4l-1 -1l1 -6l-2 -52l-1 -60v-46l48 -1q17 0 37 1q25 0 45 6l23 -45q12 -24 16 -40q-41 9 -71 9l-58 2l-45 -1l-1 -22l-1 -105l1 -70l2 -28l13 5q102 34 187 34h11
q-11 -54 -30 -92l-74 4l-61 1h-85l-58 -1l-114 -5l-43 -2l2 9q1 6 2.5 13.5t2.5 11.5t1 6l3 28v5v4l1 1l2 152q-56 -9 -105 -36q-19 -11 -23.5 -15t-6.5 -12l-10 -32q-15 -45 -15 -99q0 -4 2 -34l-103 1q-4 0 -13.5 -0.5t-15.5 -0.5q-8 -1 -15 -1q-18 0 -27 -1l51 99l58 104
l65 110l37 60l46 68l43 59l42 51l19 22zM609 538q14 0 33 -4l-27 -77l-12 -39q-2 10 -1 11v11v11l5 68zM684 525q32 -9 91 -38l7 -4q6 -33 6 -62q0 -2 -2 -18q-16 41 -39.5 68.5t-62.5 52.5v1zM752 429q2 -8 2 -10q14 -53 17 -75l2 -20l-15 40l-26 54zM632 304q16 1 34 1
q38 0 92 -9l8 -26l-44 15l-56 13zM595 284l15 -75l5 -31q33 4 62 4q51 0 84 -11q-17 -1 -46 -5q-36 -5 -63 -13l-57 -18l-2 39l-1 57q0 7 2 39q0 7 1 14zM625 250q97 -14 154 -49q-55 15 -77 14l-60 -3h-10zM303 241l-3 -4l-23 -20q-14 -11 -19.5 -20t-12.5 -32
q-23 -75 -28 -147q-6 23 -6 66q0 36 5 73.5t10 44.5q13 16 77 39zM600 36l75 -1q1 0 5 -0.5t7 -0.5l21 -1q8 0 30 -2l-1 -1l-16 -3l-56 -9l-67 -7l-59 -4l-65 -1h-75l-109 4v1l5 2l10 2l14 3l54 8l98 7l59 2zM136 24l40 -1l-1 -18h-73l-88 3l-15 2v1q26 5 49 8l24 2l9 1z
M811 157v-40q-2 -49 -8 -79h-30q17 30 26 66zM413 558l-29 -1l3 -63v-185l-8 -219h8l15 193l8 134l2 73zM336 486q-53 -77 -78 -141q22 -3 52 -3q5 0 27 2v13q1 9 1 50q0 56 -2 79zM317 419l-2 -9q-6 -29 -6 -38v-6h-20q10 30 28 53z" />
    <glyph glyph-name="Ccedilla" unicode="&#xc7;" horiz-adv-x="573" 
d="M426 666h26l58 -5l48 -7q-3 -10 -8 -20l-3 -1l-57 15l-58 12l-29 5zM535 606q-21 -39 -60 -90q-3 0 -8 5q-4 4 -24 19l-26 19q-15 11 -46 29q-24 -13 -35 -23q-7 -7 -9 -8q-11 -8 -11 -11l-8 -57l-7 -61l-3 -39q-1 -15 -1 -53q0 -95 18 -156l8 -27q4 -16 14 -20
q18 -8 51 -14l24 15q46 27 89 67q32 -42 50 -82q-43 -30 -105.5 -58t-87.5 -28q-4 0 -16 2q-1 0 -4 0.5t-5 0.5l-4 -27q34 -10 49 -19q-2 -22 -5 -32l-7 -27q-4 -13 -16 -21q-25 -17 -42 -17q-22 0 -62 19l13 37q25 -13 49 -19q3 13 4 41h-17q-12 0 -36 -3q-1 31 -17 90
q-49 18 -64 26q-18 11 -34 31q-41 52 -65 97l-15 29q-11 21 -13 28.5t-2 27.5v11l1 57l2 24l5 54q3 15 15 32l18 24q33 45 97 96q21 17 32 22.5t40 13.5q68 17 104 17q26 0 84 -14q54 -14 88 -28zM180 628l-8 -7q-69 -63 -102 -108l-22 -31l-1 -2q-1 -1 -2.5 -3t-3.5 -4
q-8 -32 -11 -58l-2 -23q0 -1 -2 -17l-2 -10l-3 68l1 68q66 78 158 127zM558 581q-2 -5 -4 -11.5t-3 -10.5l-16 -38q-16 -39 -28 -76l-48 23q-20 10 -57 19q2 15 9 41q26 -19 61 -51l49 58zM377 543l-25 -69q-12 -29 -23 -67l-8 -27l-1 -2q0 -3 -1 -5l3 60l4 41l9 58
q18 9 39 11h3zM323 279l23 -58l15 -33l69 17l32 8q8 2 12 4l9 2l-7 -6l-8 -6t-6 -5l-3 -2l-25 -17l-5 -4l-53 -32l-31 10q-13 47 -18 79l-1 13q-3 19 -3 30zM542 245v-5l1 -2l4 -24q1 -5 3 -34q-14 22 -38 50q16 7 30 15zM28 240q56 -107 104 -156q14 -15 21 -22l-53 34
l-58 43q-11 9 -11 24q0 5 -3 32q-1 12 -1 44zM514 64q-18 -14 -40 -36q-23 -23 -31 -33l-34 -43l-10 -14q9 39 9 72v12l44 17q16 6 41 17q5 2 9 4l6 3t4 1h2zM173 47l52 -18q1 -11 1 -21q0 -25 -3 -46q-10 28 -17 40t-27 38l-2 2q-2 3 -4 5zM209 570q-69 -64 -110 -123
l-7 -63q-3 -28 -3 -61v-16q0 -27 13 -51q41 -77 94 -132l-14 23l-30 52q-1 1 -5.5 9.5t-7.5 15.5l-18 39q0 1 -9 20q0 50 2 64q0 5 0.5 11t1 9t0.5 4v7l8 52q2 16 24 53.5t47 68.5l9 11l2 3l4 4h-1z" />
    <glyph glyph-name="Egrave" unicode="&#xc8;" horiz-adv-x="570" 
d="M33 667l73 -4l80 -5l126 -19l11 -4l-65 1l-208 6q-8 -11 -14 -22q-1 33 -3 47zM502 643l29 9q8 -41 19 -114l-23 43q-14 29 -25 62zM481 619q6 -15 6 -17l19 -64q0 -1 1 -4.5t2 -6.5q-27 9 -34 10l-11 3l-18 4l-50 8l-82 10q-4 -52 -4 -67l1 -100l55 1q18 0 32 1
q24 2 25 2l11 2q2 0 5 0.5t4 0.5q23 -47 30 -78q-2 0 -4 0.5t-3.5 1t-7 1t-13.5 1.5l-35 3q-8 1 -26 1h-11l-65 -2l-3 -61l2 -87l5 -76l89 24l82 17l38 4q-1 -17 -11 -49q-13 -39 -20 -51l-151 2l-226 -1l-48 -2l6 63l1 72l-1 220l-2 110l-3 73l-3 31h111l63 -3l169 1z
M344 539l32 -5l-2 -8q-8 -31 -15 -49l-19 -50l-5 -8l3 59l3 33q0 8 3 28zM414 524q11 -1 30 -9l12 -4q21 -9 61 -30l1 -8l3 -25q1 -10 1 -26v-13q-26 47 -48.5 71t-59.5 44zM42 526q4 -12 6 -37l1 -23l3 -54l1 -72l-2 -35q-18 59 -18 137q0 45 8 79zM486 420q18 -61 20 -100
q-18 53 -39 93q9 2 19 7zM379 309q70 -1 130 -14l4 -32q-47 21 -80 30zM21 315l15 -74l3 -18l5 -65l3 -57v-48l-19 -4l-4 85l-3 118v63zM329 287l8 -33l9 -57l2 -22q10 2 11 2l24 3q6 1 34 1q35 0 63 -7l-57 -13l-92 -27l-2 16l-2 71l1 64zM363 247q67 -5 139 -41h-12l-25 4
q-11 2 -42 2q-32 0 -54 -2zM552 163v-40q0 -38 -7 -80l-31 1q18 30 26 66zM366 34l52 -1q1 0 5.5 -0.5t12.5 -1t15 -0.5q9 0 27 -3l-8 -2l-77 -10l-85 -9l-103 -6l-78 -1h-13q-45 0 -93 10q4 1 9 2.5t6 1.5l21 5q11 2 27 4l50 6l60 3zM138 567h-23v-14l2 -64l2 -132l-2 -181
l-2 -59v-16h5l11 121l9 158l4 109l1 78h-7zM124 838l24 -9l-16 -31l-18 -37l1 29l4 30zM178 816l41 -17l62 -29l78 -42l1 -1v1l14 -8l-4 -9l-83 11l-82 15l-67 15l8 17l15 25q4 7 17 22zM308 787l48 -13l42 -12l-11 -19l-79 42v2z" />
    <glyph glyph-name="Eacute" unicode="&#xc9;" horiz-adv-x="570" 
d="M33 667l73 -4l80 -5l126 -19l11 -4l-65 1l-208 6q-8 -11 -14 -22q-1 33 -3 47zM502 643l29 9q8 -41 19 -114l-23 43q-14 29 -25 62zM481 619q6 -15 6 -17l19 -64q0 -1 1 -4.5t2 -6.5q-27 9 -34 10l-11 3l-18 4l-50 8l-82 10q-4 -52 -4 -67l1 -100l55 1q18 0 32 1
q24 2 25 2l11 2q2 0 5 0.5t4 0.5q23 -47 30 -78q-2 0 -4 0.5t-3.5 1t-7 1t-13.5 1.5l-35 3q-8 1 -26 1h-11l-65 -2l-3 -61l2 -87l5 -76l89 24l82 17l38 4q-1 -17 -11 -49q-13 -39 -20 -51l-151 2l-226 -1l-48 -2l6 63l1 72l-1 220l-2 110l-3 73l-3 31h111l63 -3l169 1z
M344 539l32 -5l-2 -8q-8 -31 -15 -49l-19 -50l-5 -8l3 59l3 33q0 8 3 28zM414 524q11 -1 30 -9l12 -4q21 -9 61 -30l1 -8l3 -25q1 -10 1 -26v-13q-26 47 -48.5 71t-59.5 44zM42 526q4 -12 6 -37l1 -23l3 -54l1 -72l-2 -35q-18 59 -18 137q0 45 8 79zM486 420q18 -61 20 -100
q-18 53 -39 93q9 2 19 7zM379 309q70 -1 130 -14l4 -32q-47 21 -80 30zM21 315l15 -74l3 -18l5 -65l3 -57v-48l-19 -4l-4 85l-3 118v63zM329 287l8 -33l9 -57l2 -22q10 2 11 2l24 3q6 1 34 1q35 0 63 -7l-57 -13l-92 -27l-2 16l-2 71l1 64zM363 247q67 -5 139 -41h-12l-25 4
q-11 2 -42 2q-32 0 -54 -2zM552 163v-40q0 -38 -7 -80l-31 1q18 30 26 66zM366 34l52 -1q1 0 5.5 -0.5t12.5 -1t15 -0.5q9 0 27 -3l-8 -2l-77 -10l-85 -9l-103 -6l-78 -1h-13q-45 0 -93 10q4 1 9 2.5t6 1.5l21 5q11 2 27 4l50 6l60 3zM138 567h-23v-14l2 -64l2 -132l-2 -181
l-2 -59v-16h5l11 121l9 158l4 109l1 78h-7zM388 821q4 -3 6 -7l13 -22q7 -12 14 -31l-83 -25l-71 -19l-43 -10h-2q-2 -1 -5 -1q-4 -1 -9 -2q-1 -1 -4 -1.5t-4 -0.5l-5 10l79 47l80 45zM289 809l-47 -34l-58 -40l-4 8q-3 11 -5 13l-2 4l1 1v1l84 34z" />
    <glyph glyph-name="Ecircumflex" unicode="&#xca;" horiz-adv-x="570" 
d="M33 667l73 -4l80 -5l126 -19l11 -4l-65 1l-208 6q-8 -11 -14 -22q-1 33 -3 47zM502 643l29 9q8 -41 19 -114l-23 43q-14 29 -25 62zM481 619q6 -15 6 -17l19 -64q0 -1 1 -4.5t2 -6.5q-27 9 -34 10l-11 3l-18 4l-50 8l-82 10q-4 -52 -4 -67l1 -100l55 1q18 0 32 1
q24 2 25 2l11 2q2 0 5 0.5t4 0.5q23 -47 30 -78q-2 0 -4 0.5t-3.5 1t-7 1t-13.5 1.5l-35 3q-8 1 -26 1h-11l-65 -2l-3 -61l2 -87l5 -76l89 24l82 17l38 4q-1 -17 -11 -49q-13 -39 -20 -51l-151 2l-226 -1l-48 -2l6 63l1 72l-1 220l-2 110l-3 73l-3 31h111l63 -3l169 1z
M344 539l32 -5l-2 -8q-8 -31 -15 -49l-19 -50l-5 -8l3 59l3 33q0 8 3 28zM414 524q11 -1 30 -9l12 -4q21 -9 61 -30l1 -8l3 -25q1 -10 1 -26v-13q-26 47 -48.5 71t-59.5 44zM42 526q4 -12 6 -37l1 -23l3 -54l1 -72l-2 -35q-18 59 -18 137q0 45 8 79zM486 420q18 -61 20 -100
q-18 53 -39 93q9 2 19 7zM379 309q70 -1 130 -14l4 -32q-47 21 -80 30zM21 315l15 -74l3 -18l5 -65l3 -57v-48l-19 -4l-4 85l-3 118v63zM329 287l8 -33l9 -57l2 -22q10 2 11 2l24 3q6 1 34 1q35 0 63 -7l-57 -13l-92 -27l-2 16l-2 71l1 64zM363 247q67 -5 139 -41h-12l-25 4
q-11 2 -42 2q-32 0 -54 -2zM552 163v-40q0 -38 -7 -80l-31 1q18 30 26 66zM366 34l52 -1q1 0 5.5 -0.5t12.5 -1t15 -0.5q9 0 27 -3l-8 -2l-77 -10l-85 -9l-103 -6l-78 -1h-13q-45 0 -93 10q4 1 9 2.5t6 1.5l21 5q11 2 27 4l50 6l60 3zM138 567h-23v-14l2 -64l2 -132l-2 -181
l-2 -59v-16h5l11 121l9 158l4 109l1 78h-7zM429 737l-13 -24q-41 11 -57 16l-4 2l-7 2l-51 19l-9 -4q-66 -30 -114 -40l-12 23l12 8q6 5 37 25q37 24 49 30l24 11q6 3 7 3q2 0 14 -5q1 0 3 -1t6 -2.5t7 -2.5q47 -16 108 -60zM351 806q20 -1 38 -5l58 -13q0 -1 -1.5 -7
t-3.5 -11l-9 4q-32 15 -82 31v1zM229 802q-9 -8 -21 -15l-39 -23l-16 -8l-7 22q11 4 43 14q36 10 39 10h1z" />
    <glyph glyph-name="Edieresis" unicode="&#xcb;" horiz-adv-x="570" 
d="M33 667l73 -4l80 -5l126 -19l11 -4l-65 1l-208 6q-8 -11 -14 -22q-1 33 -3 47zM502 643l29 9q8 -41 19 -114l-23 43q-14 29 -25 62zM481 619q6 -15 6 -17l19 -64q0 -1 1 -4.5t2 -6.5q-27 9 -34 10l-11 3l-18 4l-50 8l-82 10q-4 -52 -4 -67l1 -100l55 1q18 0 32 1
q24 2 25 2l11 2q2 0 5 0.5t4 0.5q23 -47 30 -78q-2 0 -4 0.5t-3.5 1t-7 1t-13.5 1.5l-35 3q-8 1 -26 1h-11l-65 -2l-3 -61l2 -87l5 -76l89 24l82 17l38 4q-1 -17 -11 -49q-13 -39 -20 -51l-151 2l-226 -1l-48 -2l6 63l1 72l-1 220l-2 110l-3 73l-3 31h111l63 -3l169 1z
M344 539l32 -5l-2 -8q-8 -31 -15 -49l-19 -50l-5 -8l3 59l3 33q0 8 3 28zM414 524q11 -1 30 -9l12 -4q21 -9 61 -30l1 -8l3 -25q1 -10 1 -26v-13q-26 47 -48.5 71t-59.5 44zM42 526q4 -12 6 -37l1 -23l3 -54l1 -72l-2 -35q-18 59 -18 137q0 45 8 79zM486 420q18 -61 20 -100
q-18 53 -39 93q9 2 19 7zM379 309q70 -1 130 -14l4 -32q-47 21 -80 30zM21 315l15 -74l3 -18l5 -65l3 -57v-48l-19 -4l-4 85l-3 118v63zM329 287l8 -33l9 -57l2 -22q10 2 11 2l24 3q6 1 34 1q35 0 63 -7l-57 -13l-92 -27l-2 16l-2 71l1 64zM363 247q67 -5 139 -41h-12l-25 4
q-11 2 -42 2q-32 0 -54 -2zM552 163v-40q0 -38 -7 -80l-31 1q18 30 26 66zM366 34l52 -1q1 0 5.5 -0.5t12.5 -1t15 -0.5q9 0 27 -3l-8 -2l-77 -10l-85 -9l-103 -6l-78 -1h-13q-45 0 -93 10q4 1 9 2.5t6 1.5l21 5q11 2 27 4l50 6l60 3zM138 567h-23v-14l2 -64l2 -132l-2 -181
l-2 -59v-16h5l11 121l9 158l4 109l1 78h-7zM107 796l58 8l-56 -29zM363 802l27 -16l37 -28l-43 -26l-25 -12l-47 25l-20 13l17 12l30 19zM214 800q2 -1 7 -4t12 -8l14 -9q10 -7 28 -22l-25 -15l-44 -23l-33 19l-31 19v2l33 20zM252 800l30 -4h23l-28 -21l-22 22q-2 1 -3 3z
M403 800l64 -7l-4 -28z" />
    <glyph glyph-name="Igrave" unicode="&#xcc;" horiz-adv-x="347" 
d="M6 688l92 -1l75 -3l-166 -29zM312 680l-6 -30l-64 -4l-76 -3h-61l-16 1l14 4l89 15zM129 617l167 2q-1 -13 -1 -29l-1 -45q-2 -56 -2 -73l-2 -177l1 -91l3 -87l5 -69l-64 1l-129 -2l-36 -1l1 250l-2 113l-3 89l-4 59v15l-4 33v14zM34 606q2 -9 4 -20t2 -14l5 -53l5 -77
l2 -69l2 -79l-1 -86l-3 -52l-9 67l-6 71l-3 72l-1 124zM314 400l6 -59l5 -65l1 -76l-1 -68l-2 -77l-4 17l-7 56l-4 64l-1 60l1 54l3 72zM220 22l89 1l-1 -23l-81 1l-87 5l-60 6l30 3zM133 563h-26l6 -229l1 -241l13 172l5 190zM17 837l24 -9l-16 -31l-18 -37l1 29l4 30z
M71 815l41 -17l62 -29l78 -42l1 -1v1l14 -8l-4 -9l-83 11l-82 15l-67 15l8 17l15 25q4 7 17 22zM201 786l48 -13l42 -12l-11 -19l-79 42v2z" />
    <glyph glyph-name="Iacute" unicode="&#xcd;" horiz-adv-x="347" 
d="M6 688l92 -1l75 -3l-166 -29zM312 680l-6 -30l-64 -4l-76 -3h-61l-16 1l14 4l89 15zM129 617l167 2q-1 -13 -1 -29l-1 -45q-2 -56 -2 -73l-2 -177l1 -91l3 -87l5 -69l-64 1l-129 -2l-36 -1l1 250l-2 113l-3 89l-4 59v15l-4 33v14zM34 606q2 -9 4 -20t2 -14l5 -53l5 -77
l2 -69l2 -79l-1 -86l-3 -52l-9 67l-6 71l-3 72l-1 124zM314 400l6 -59l5 -65l1 -76l-1 -68l-2 -77l-4 17l-7 56l-4 64l-1 60l1 54l3 72zM220 22l89 1l-1 -23l-81 1l-87 5l-60 6l30 3zM133 563h-26l6 -229l1 -241l13 172l5 190zM281 823q4 -3 6 -7l13 -22q7 -12 14 -31
l-83 -25l-71 -19l-43 -10h-2q-2 -1 -5 -1q-4 -1 -9 -2q-1 -1 -4 -1.5t-4 -0.5l-5 10l79 47l80 45zM182 811l-47 -34l-58 -40q-1 1 -1.5 2.5t-1.5 3t-1 2.5q-3 11 -5 13l-2 4v1l1 1l84 34z" />
    <glyph glyph-name="Icircumflex" unicode="&#xce;" horiz-adv-x="347" 
d="M6 688l92 -1l75 -3l-166 -29zM312 680l-6 -30l-64 -4l-76 -3h-61l-16 1l14 4l89 15zM129 617l167 2q-1 -13 -1 -29l-1 -45q-2 -56 -2 -73l-2 -177l1 -91l3 -87l5 -69l-64 1l-129 -2l-36 -1l1 250l-2 113l-3 89l-4 59v15l-4 33v14zM34 606q2 -9 4 -20t2 -14l5 -53l5 -77
l2 -69l2 -79l-1 -86l-3 -52l-9 67l-6 71l-3 72l-1 124zM314 400l6 -59l5 -65l1 -76l-1 -68l-2 -77l-4 17l-7 56l-4 64l-1 60l1 54l3 72zM220 22l89 1l-1 -23l-81 1l-87 5l-60 6l30 3zM133 563h-26l6 -229l1 -241l13 172l5 190zM316 737l-13 -24q-41 11 -57 16l-4 2l-7 2
l-51 19l-9 -4q-66 -30 -114 -40l-12 23l12 8q6 5 37 25q37 24 49 30l24 11q6 3 7 3q2 0 14 -5q1 0 3 -1t6 -2.5t7 -2.5q47 -16 108 -60zM238 806q19 -1 38 -5l58 -13q0 -1 -1.5 -7t-3.5 -11l-9 4q-32 15 -82 31v1zM116 802q-9 -8 -21 -15l-39 -23l-16 -8l-7 22q11 4 43 14
q36 10 39 10h1z" />
    <glyph glyph-name="Idieresis" unicode="&#xcf;" horiz-adv-x="347" 
d="M6 688l92 -1l75 -3l-166 -29zM312 680l-6 -30l-64 -4l-76 -3h-61l-16 1l14 4l89 15zM129 617l167 2q-1 -13 -1 -29l-1 -45q-2 -56 -2 -73l-2 -177l1 -91l3 -87l5 -69l-64 1l-129 -2l-36 -1l1 250l-2 113l-3 89l-4 59v15l-4 33v14zM34 606q2 -9 4 -20t2 -14l5 -53l5 -77
l2 -69l2 -79l-1 -86l-3 -52l-9 67l-6 71l-3 72l-1 124zM314 400l6 -59l5 -65l1 -76l-1 -68l-2 -77l-4 17l-7 56l-4 64l-1 60l1 54l3 72zM220 22l89 1l-1 -23l-81 1l-87 5l-60 6l30 3zM133 563h-26l6 -229l1 -241l13 172l5 190zM7 796l58 8l-56 -29zM263 802l27 -16l37 -28
l-43 -26l-25 -12l-47 25l-20 13l17 12l30 19zM114 800q2 -1 7 -4t12 -8l14 -9q10 -7 28 -22l-25 -15l-44 -23l-33 19l-31 19v2l33 20zM152 800l30 -4h23l-28 -21l-22 22q-2 1 -3 3zM303 800l64 -7l-4 -28z" />
    <glyph glyph-name="Ntilde" unicode="&#xd1;" horiz-adv-x="637" 
d="M139 660q33 -11 69 -30q68 -36 112 -64l76 -51q21 -15 45 -19q7 -24 14 -57l2 -12l-170 129l-115 82zM393 662q54 -4 125 -18l-96 -3q12 -50 13 -64l-9 19l-10 19l-6 12q0 3 -12 24q-3 6 -5 11zM53 649l1 -12q8 -94 11 -142q4 -61 4 -94q0 -29 -1 -62q0 -24 -2 -82
q-1 -35 -3 -62l-6 -84l-2 -28q-1 -9 -6 -41l-1 130l-4 134l-6 112l-8 104l-10 106zM81 648q28 -14 84 -49q69 -43 89 -57l40 -27l56 -39l78 -57l10 -7.5t16.5 -11.5t18.5 -13l8 -5l-1 63l-1 12l-2 31q-3 71 -23 131h117l2 -141l-2 -114l-7 -210l-3 -144l-11 8l-46 41l-49 45
l-83 76l-65 53l-65 50l-51 35l-26 16l5 -64l10 -79l10 -67q3 -18 9 -45l4 -21l2 -8h-38l-84 -1q5 27 5 34l3 21v10l2 133l-1 162l-3 106zM273 643q9 -3 49 -17l16 -6q3 -1 25 -9q6 -2 10.5 -4t7 -3t6 -2.5t6.5 -2.5q20 -29 28 -51zM601 378l6 -93l4 -91l5 -194h-28l1 125
l8 214q1 29 4 39zM192 291l7 -6l70 -57l14 -11l55 -47l73 -66q22 -20 40 -38l-23 14l-53 42l-50 38l-65 43l-58 36q-3 1 -3 11q-1 1 -3 13zM213 185q8 -4 15 -8q6 -4 26 -18q28 -19 31 -22l50 -37q21 -17 34 -28l-84 37l-61 25zM237 62q48 -31 80 -60l-98 -1l-115 2l-32 2
q12 5 41 9l45 5l88 6zM157 448q1 -8 1 -18q1 -16 3 -24l6 -4q15 -11 91 -70q96 -77 254 -220v5l-66 67l-118 114l-69 63l-46 40zM488 818q2 -8 2 -9q5 -18 5 -30q0 -3 -0.5 -11t-0.5 -12q-9 26 -16 39l-7 11q-1 1 -3 4t-3 5zM239 817l-10 -2l-73 -25q-1 3 -3 6.5t-3.5 6.5
t-2.5 7q16 3 32 5l22 2q14 2 26 2zM377 807l31 3q-3 -2 -6 -4.5t-4 -2.5q-3 -2 -7 -5t-6 -4l-2 -1l-11 -9q-3 -3 -7 -6q-12 9 -23 14l-21 12l-3 2q-3 1 -5 3zM437 798q13 -18 21 -41q-31 -20 -57 -32q-16 -8 -18 -8q-8 -5 -10 -5q-11 0 -36 12l-59 23l-24 12q-6 -4 -8 -5
l-14 -7l-12 -5l-5 -3q-11 -5 -15 -7l-8 -4q-10 13 -12 17l-3 6l-7 11l-2 2q-1 3 -2 4q15 9 18 10q1 1 19 9l9 4l16 6q21 7 24 7q5 0 26 -9l23 -8q2 -1 9 -4t11 -5l15 -7q6 -3 11.5 -5.5t8.5 -4.5l4 -2q6 -4 7 -4q2 0 8 6q18 16 62 37z" />
    <glyph glyph-name="Ograve" unicode="&#xd2;" horiz-adv-x="700" 
d="M487 618l30 -12q19 -8 30 -12q17 -6 22.5 -10t15.5 -17q41 -56 70 -129q12 -28 12 -53v-12l1 -47l-1 -59q-1 -24 -9 -44l-6 -13q-9 -26 -40 -78q-10 -18 -23 -28.5t-42 -26.5q-16 -8 -93 -34q-28 -10 -54 -16q-45 -11 -58 -11q-25 0 -70 17l-119 44q-12 5 -19 14l-16 22
q-2 3 -6 7l-2 4l-29 45l-28 51q-12 19 -12 38v23v78q0 47 10 97q0 3 0.5 7t0.5 7l1 2q3 14 14 25l8 8q58 58 87.5 78t73.5 33l101 29l17 3q4 1 9 2h3q5 0 16 -4q2 0 14 -3q9 -2 23 -6zM500 650l30 -7l118 -30l12 -62l4 -21q6 -30 6 -52l-4 10q-19 42 -38 76l-11 17l-4 8
l-23 13q-2 2 -6 3q-2 2 -10 6q-8 5 -17 9l-41 20q-4 2 -9 5q-1 1 -3.5 2.5t-3.5 2.5zM166 616l-43 -36l-37 -34l-40 -41l-21 -23l7 52l37 27q32 25 50 32l23 12q12 7 24 11zM15 220q7 -9 8 -12l23 -40q30 -48 50 -76l18 -24l11 -5q34 -16 50 -23q32 -14 34 -15l-81 19
l-37 10q-16 3 -20 6.5t-12 21.5q-5 12 -16 41q-5 12 -12 34zM539 30l61 44l73 55q-9 -30 -14 -41q-1 -3 -6 -8l-19 -10q-30 -16 -59 -28q-14 -6 -36 -12zM353 580q-37 -32 -65 -73l-6 -66l-2 -73v-62l3 -41l7 -94l4 -8l20 -30q10 -16 30 -40l6 -7q36 27 54 54l13 18l2 4v63
l-3 108l-8 100l-9 78q0 4 -4 8l-1 3q-2 2 -4.5 6.5t-5.5 9.5l-12 18l-12 17zM419 572q13 -33 18 -50l5 -15q3 -8 3 -10l8 -55l7 -70l4 -73l2 -80v-35v-8q1 -4 1 -10q0 -10 -8 -25l-10 -17l-24 -42q35 37 56 68l3 85l-1 85l-6 111l-6 55q-22 43 -52 86zM177 545
q-33 -27 -41 -36l-31 -31l-15 -17l-4 -56l-2 -76l1 -57l2 -39l41 -62q1 -1 2 -3t3.5 -5t4.5 -6l14 -17q3 -5 21 -26l2 -1l-4 8l-4 6q-22 34 -38 71l-16 36q-6 13 -6 41v27l2 55l4 52l6 62q0 2 10 14l2 3l3 3q1 2 6.5 8.5t8.5 11.5q11 12 15 18l5 6q5 5 8 10zM343 526l15 14
q21 -40 21 -126q0 -29 -4 -61l-13 65zM318 453l5 -62l9 -56l13 -70l13 -59l7 -25q1 -2 1 -5q1 -1 1 -2q1 -2 1 -5l1 -2l-2 -8l-4 -13l-4 -10q-30 37 -47 85l-4 64l2 66l3 64q3 29 5 38zM203 838l24 -9l-16 -31l-18 -37l1 29l4 30zM257 816l41 -17l62 -29l78 -42l1 -1v1
l14 -8l-4 -9l-83 11l-82 15l-67 15l8 17l15 25q4 7 17 22zM387 787l48 -13l42 -12l-11 -19l-79 42v2z" />
    <glyph glyph-name="Oacute" unicode="&#xd3;" horiz-adv-x="700" 
d="M487 618l30 -12q19 -8 30 -12q17 -6 22.5 -10t15.5 -17q41 -56 70 -129q12 -28 12 -53v-12l1 -47l-1 -59q-1 -24 -9 -44l-6 -13q-9 -26 -40 -78q-10 -18 -23 -28.5t-42 -26.5q-16 -8 -93 -34q-28 -10 -54 -16q-45 -11 -58 -11q-25 0 -70 17l-119 44q-12 5 -19 14l-16 22
q-2 3 -6 7l-2 4l-29 45l-28 51q-12 19 -12 38v23v78q0 47 10 97q0 3 0.5 7t0.5 7l1 2q3 14 14 25l8 8q58 58 87.5 78t73.5 33l101 29l17 3q4 1 9 2h3q5 0 16 -4q2 0 14 -3q9 -2 23 -6zM500 650l30 -7l118 -30l12 -62l4 -21q6 -30 6 -52l-4 10q-19 42 -38 76l-11 17l-4 8
l-23 13q-2 2 -6 3q-2 2 -10 6q-8 5 -17 9l-41 20q-4 2 -9 5q-1 1 -3.5 2.5t-3.5 2.5zM166 616l-43 -36l-37 -34l-40 -41l-21 -23l7 52l37 27q32 25 50 32l23 12q12 7 24 11zM15 220q7 -9 8 -12l23 -40q30 -48 50 -76l18 -24l11 -5q34 -16 50 -23q32 -14 34 -15l-81 19
l-37 10q-16 3 -20 6.5t-12 21.5q-5 12 -16 41q-5 12 -12 34zM539 30l61 44l73 55q-9 -30 -14 -41q-1 -3 -6 -8l-19 -10q-30 -16 -59 -28q-14 -6 -36 -12zM353 580q-37 -32 -65 -73l-6 -66l-2 -73v-62l3 -41l7 -94l4 -8l20 -30q10 -16 30 -40l6 -7q36 27 54 54l13 18l2 4v63
l-3 108l-8 100l-9 78q0 4 -4 8l-1 3q-2 2 -4.5 6.5t-5.5 9.5l-12 18l-12 17zM419 572q13 -33 18 -50l5 -15q3 -8 3 -10l8 -55l7 -70l4 -73l2 -80v-35v-8q1 -4 1 -10q0 -10 -8 -25l-10 -17l-24 -42q35 37 56 68l3 85l-1 85l-6 111l-6 55q-22 43 -52 86zM177 545
q-33 -27 -41 -36l-31 -31l-15 -17l-4 -56l-2 -76l1 -57l2 -39l41 -62q1 -1 2 -3t3.5 -5t4.5 -6l14 -17q3 -5 21 -26l2 -1l-4 8l-4 6q-22 34 -38 71l-16 36q-6 13 -6 41v27l2 55l4 52l6 62q0 2 10 14l2 3l3 3q1 2 6.5 8.5t8.5 11.5q11 12 15 18l5 6q5 5 8 10zM343 526l15 14
q21 -40 21 -126q0 -29 -4 -61l-13 65zM318 453l5 -62l9 -56l13 -70l13 -59l7 -25q1 -2 1 -5q1 -1 1 -2q1 -2 1 -5l1 -2l-2 -8l-4 -13l-4 -10q-30 37 -47 85l-4 64l2 66l3 64q3 29 5 38zM481 821q4 -3 6 -7l13 -22q7 -12 14 -31l-83 -25l-71 -19l-43 -10h-2q-2 -1 -5 -1
q-4 -1 -9 -2q-1 -1 -4 -1.5t-4 -0.5l-5 10l79 47l80 45zM382 809l-47 -34l-58 -40l-4 8q-3 11 -5 13l-2 4v1l1 1l84 34z" />
    <glyph glyph-name="Ocircumflex" unicode="&#xd4;" horiz-adv-x="700" 
d="M487 618l30 -12q19 -8 30 -12q17 -6 22.5 -10t15.5 -17q41 -56 70 -129q12 -28 12 -53v-12l1 -47l-1 -59q-1 -24 -9 -44l-6 -13q-9 -26 -40 -78q-10 -18 -23 -28.5t-42 -26.5q-16 -8 -93 -34q-28 -10 -54 -16q-45 -11 -58 -11q-25 0 -70 17l-119 44q-12 5 -19 14l-16 22
q-2 3 -6 7l-2 4l-29 45l-28 51q-12 19 -12 38v23v78q0 47 10 97q0 3 0.5 7t0.5 7l1 2q3 14 14 25l8 8q58 58 87.5 78t73.5 33l101 29l17 3q4 1 9 2h3q5 0 16 -4q2 0 14 -3q9 -2 23 -6zM500 650l30 -7l118 -30l12 -62l4 -21q6 -30 6 -52l-4 10q-19 42 -38 76l-11 17l-4 8
l-23 13q-2 2 -6 3q-2 2 -10 6q-8 5 -17 9l-41 20q-4 2 -9 5q-1 1 -3.5 2.5t-3.5 2.5zM166 616l-43 -36l-37 -34l-40 -41l-21 -23l7 52l37 27q32 25 50 32l23 12q12 7 24 11zM15 220q7 -9 8 -12l23 -40q30 -48 50 -76l18 -24l11 -5q34 -16 50 -23q32 -14 34 -15l-81 19
l-37 10q-16 3 -20 6.5t-12 21.5q-5 12 -16 41q-5 12 -12 34zM539 30l61 44l73 55q-9 -30 -14 -41q-1 -3 -6 -8l-19 -10q-30 -16 -59 -28q-14 -6 -36 -12zM353 580q-37 -32 -65 -73l-6 -66l-2 -73v-62l3 -41l7 -94l4 -8l20 -30q10 -16 30 -40l6 -7q36 27 54 54l13 18l2 4v63
l-3 108l-8 100l-9 78q0 4 -4 8l-1 3q-2 2 -4.5 6.5t-5.5 9.5l-12 18l-12 17zM419 572q13 -33 18 -50l5 -15q3 -8 3 -10l8 -55l7 -70l4 -73l2 -80v-35v-8q1 -4 1 -10q0 -10 -8 -25l-10 -17l-24 -42q35 37 56 68l3 85l-1 85l-6 111l-6 55q-22 43 -52 86zM177 545
q-33 -27 -41 -36l-31 -31l-15 -17l-4 -56l-2 -76l1 -57l2 -39l41 -62q1 -1 2 -3t3.5 -5t4.5 -6l14 -17q3 -5 21 -26l2 -1l-4 8l-4 6q-22 34 -38 71l-16 36q-6 13 -6 41v27l2 55l4 52l6 62q0 2 10 14l2 3l3 3q1 2 6.5 8.5t8.5 11.5q11 12 15 18l5 6q5 5 8 10zM343 526l15 14
q21 -40 21 -126q0 -29 -4 -61l-13 65zM318 453l5 -62l9 -56l13 -70l13 -59l7 -25q1 -2 1 -5q1 -1 1 -2q1 -2 1 -5l1 -2l-2 -8l-4 -13l-4 -10q-30 37 -47 85l-4 64l2 66l3 64q3 29 5 38zM494 737l-13 -24q-41 11 -57 16l-4 2l-7 2l-51 19l-9 -4q-66 -30 -114 -40l-12 23l12 8
q6 5 37 25q37 24 49 30l24 11q6 3 7 3q2 0 14 -5q1 0 3 -1t6 -2.5t7 -2.5q47 -16 108 -60zM416 806q19 -1 38 -5l58 -13q0 -2 -1.5 -7.5t-3.5 -10.5l-9 4q-32 15 -82 31v1zM294 802q-9 -8 -21 -15l-39 -23l-16 -8l-7 22q11 4 43 14q36 10 39 10h1z" />
    <glyph glyph-name="Otilde" unicode="&#xd5;" horiz-adv-x="700" 
d="M487 618l30 -12q19 -8 30 -12q17 -6 22.5 -10t15.5 -17q41 -56 70 -129q12 -28 12 -53v-12l1 -47l-1 -59q-1 -24 -9 -44l-6 -13q-9 -26 -40 -78q-10 -18 -23 -28.5t-42 -26.5q-16 -8 -93 -34q-28 -10 -54 -16q-45 -11 -58 -11q-25 0 -70 17l-119 44q-12 5 -19 14l-16 22
q-2 3 -6 7l-2 4l-29 45l-28 51q-12 19 -12 38v23v78q0 47 10 97q0 3 0.5 7t0.5 7l1 2q3 14 14 25l8 8q58 58 87.5 78t73.5 33l101 29l17 3q4 1 9 2h3q5 0 16 -4q2 0 14 -3q9 -2 23 -6zM500 650l30 -7l118 -30l12 -62l4 -21q6 -30 6 -52l-4 10q-19 42 -38 76l-11 17l-4 8
l-23 13q-2 2 -6 3q-2 2 -10 6q-8 5 -17 9l-41 20q-4 2 -9 5q-1 1 -3.5 2.5t-3.5 2.5zM166 616l-43 -36l-37 -34l-40 -41l-21 -23l7 52l37 27q32 25 50 32l23 12q12 7 24 11zM15 220q7 -9 8 -12l23 -40q30 -48 50 -76l18 -24l11 -5q34 -16 50 -23q32 -14 34 -15l-81 19
l-37 10q-16 3 -20 6.5t-12 21.5q-5 12 -16 41q-5 12 -12 34zM539 30l61 44l73 55q-9 -30 -14 -41q-1 -3 -6 -8l-19 -10q-30 -16 -59 -28q-14 -6 -36 -12zM353 580q-37 -32 -65 -73l-6 -66l-2 -73v-62l3 -41l7 -94l4 -8l20 -30q10 -16 30 -40l6 -7q36 27 54 54l13 18l2 4v63
l-3 108l-8 100l-9 78q0 4 -4 8l-1 3q-2 2 -4.5 6.5t-5.5 9.5l-12 18l-12 17zM419 572q13 -33 18 -50l5 -15q3 -8 3 -10l8 -55l7 -70l4 -73l2 -80v-35v-8q1 -4 1 -10q0 -10 -8 -25l-10 -17l-24 -42q35 37 56 68l3 85l-1 85l-6 111l-6 55q-22 43 -52 86zM177 545
q-33 -27 -41 -36l-31 -31l-15 -17l-4 -56l-2 -76l1 -57l2 -39l41 -62q1 -1 2 -3t3.5 -5t4.5 -6l14 -17q3 -5 21 -26l2 -1l-4 8l-4 6q-22 34 -38 71l-16 36q-6 13 -6 41v27l2 55l4 52l6 62q0 2 10 14l2 3l3 3q1 2 6.5 8.5t8.5 11.5q11 12 15 18l5 6q5 5 8 10zM343 526l15 14
q21 -40 21 -126q0 -29 -4 -61l-13 65zM318 453l5 -62l9 -56l13 -70l13 -59l7 -25q1 -2 1 -5q1 -1 1 -2q1 -2 1 -5l1 -2l-2 -8l-4 -13l-4 -10q-30 37 -47 85l-4 64l2 66l3 64q3 29 5 38zM541 818q2 -8 2 -9q5 -18 5 -30q0 -3 -0.5 -11t-0.5 -12q-9 26 -16 39l-7 11q-1 1 -3 4
t-3 5zM292 817l-10 -2l-73 -25q-1 3 -3 6.5t-3.5 6.5t-2.5 7q16 3 32 5l22 2q14 2 26 2zM430 807l31 3q-3 -2 -6 -4.5t-4 -2.5q-3 -2 -7 -5t-6 -4l-2 -1l-11 -9q-3 -3 -7 -6q-13 9 -23 14l-21 12l-3 2q-3 1 -5 3zM490 798q13 -18 21 -41q-31 -20 -57 -32q-16 -8 -18 -8
q-8 -5 -10 -5q-10 0 -36 12l-59 23l-24 12q-6 -4 -8 -5l-14 -7l-12 -5l-5 -3q-11 -5 -15 -7q-1 0 -2 -1l-6 -3q-10 13 -12 17l-3 6l-7 11l-1 2q-2 3 -3 4q15 9 18 10q1 1 19 9l9 4l16 6q21 7 24 7q5 0 26 -9l23 -8q2 -1 9 -4t11 -5l15 -7l24 -12q6 -4 7 -4q2 0 8 6
q18 16 62 37z" />
    <glyph glyph-name="Odieresis" unicode="&#xd6;" horiz-adv-x="700" 
d="M487 618l30 -12q19 -8 30 -12q17 -6 22.5 -10t15.5 -17q41 -56 70 -129q12 -28 12 -53v-12l1 -47l-1 -59q-1 -24 -9 -44l-6 -13q-9 -26 -40 -78q-10 -18 -23 -28.5t-42 -26.5q-16 -8 -93 -34q-28 -10 -54 -16q-45 -11 -58 -11q-25 0 -70 17l-119 44q-12 5 -19 14l-16 22
q-2 3 -6 7l-2 4l-29 45l-28 51q-12 19 -12 38v23v78q0 47 10 97q0 3 0.5 7t0.5 7l1 2q3 14 14 25l8 8q58 58 87.5 78t73.5 33l101 29l17 3q4 1 9 2h3q5 0 16 -4q2 0 14 -3q9 -2 23 -6zM500 650l30 -7l118 -30l12 -62l4 -21q6 -30 6 -52l-4 10q-19 42 -38 76l-11 17l-4 8
l-23 13q-2 2 -6 3q-2 2 -10 6q-8 5 -17 9l-41 20q-4 2 -9 5q-1 1 -3.5 2.5t-3.5 2.5zM166 616l-43 -36l-37 -34l-40 -41l-21 -23l7 52l37 27q32 25 50 32l23 12q12 7 24 11zM15 220q7 -9 8 -12l23 -40q30 -48 50 -76l18 -24l11 -5q34 -16 50 -23q32 -14 34 -15l-81 19
l-37 10q-16 3 -20 6.5t-12 21.5q-5 12 -16 41q-5 12 -12 34zM539 30l61 44l73 55q-9 -30 -14 -41q-1 -3 -6 -8l-19 -10q-30 -16 -59 -28q-14 -6 -36 -12zM353 580q-37 -32 -65 -73l-6 -66l-2 -73v-62l3 -41l7 -94l4 -8l20 -30q10 -16 30 -40l6 -7q36 27 54 54l13 18l2 4v63
l-3 108l-8 100l-9 78q0 4 -4 8l-1 3q-2 2 -4.5 6.5t-5.5 9.5l-12 18l-12 17zM419 572q13 -33 18 -50l5 -15q3 -8 3 -10l8 -55l7 -70l4 -73l2 -80v-35v-8q1 -4 1 -10q0 -10 -8 -25l-10 -17l-24 -42q35 37 56 68l3 85l-1 85l-6 111l-6 55q-22 43 -52 86zM177 545
q-33 -27 -41 -36l-31 -31l-15 -17l-4 -56l-2 -76l1 -57l2 -39l41 -62q1 -1 2 -3t3.5 -5t4.5 -6l14 -17q3 -5 21 -26l2 -1l-4 8l-4 6q-22 34 -38 71l-16 36q-6 13 -6 41v27l2 55l4 52l6 62q0 2 10 14l2 3l3 3q1 2 6.5 8.5t8.5 11.5q11 12 15 18l5 6q5 5 8 10zM343 526l15 14
q21 -40 21 -126q0 -29 -4 -61l-13 65zM318 453l5 -62l9 -56l13 -70l13 -59l7 -25q1 -2 1 -5q1 -1 1 -2q1 -2 1 -5l1 -2l-2 -8l-4 -13l-4 -10q-30 37 -47 85l-4 64l2 66l3 64q3 29 5 38zM155 795l58 8l-56 -29zM411 801l27 -16l37 -28l-43 -26l-25 -12l-47 25l-20 13l17 12
l30 19zM262 799q2 -1 7 -4t12 -8l14 -9q10 -7 28 -22l-25 -15l-44 -23l-33 19l-31 19v2l33 20zM300 799l30 -4h23l-28 -21l-22 22q-2 1 -3 3zM451 799l64 -7l-4 -28z" />
    <glyph glyph-name="multiply" unicode="&#xd7;" 
d="M599 102l-61 -60l-187 189l-187 -188l-61 60l187 186l-186 187l59 61l188 -186l188 187l59 -62l-187 -187z" />
    <glyph glyph-name="Oslash" unicode="&#xd8;" horiz-adv-x="723" 
d="M541 674l8 2q-7 -17 -38 -54q-39 21 -89 36l-12 3l32 2l34 2zM580 673h1q31 -20 65 -52q-38 -39 -60 -70l6 -8l32 -36q32 -40 43 -59q3 -4 7 -22l3 -17q3 -12 3 -49q0 -32 -3 -90q-1 -30 -6 -40.5t-32 -46.5q-11 -16 -67 -77q-21 -24 -65 -43q-39 -16 -90 -32
q-35 -11 -50 -11q-20 0 -79 19q-39 12 -88 38q-10 -12 -12 -14q-17 -20 -20 -23q-24 -27 -29 -45q-30 17 -69 56q20 17 35 37l22 27q1 1 9 11q-6 7 -15.5 18t-12.5 14l-17 23l-14 18q-8 13 -11 42l-3 51v32q0 57 12 127q2 14 9 24t33 37q37 37 77 68q15 12 68 28
q87 27 117 27q20 0 71 -17q27 -9 70 -28q37 39 60 83zM136 639l-7 -6q-72 -57 -114 -98l12 76l58 18l10 2l17 5l17 2q4 0 7 1zM195 617l-3 -4l-61 -55q-25 -23 -64 -64q-13 -15 -20 -23l-5 -68l-2 -57v-70l2 -47q-26 97 -26 196q0 21 1 40v15q0 8 5 12l43 35l51 38zM688 614
q-11 -28 -11 -62q0 -39 20 -98l-38 53l-36 45q31 34 65 62zM691 202h1v-22v-17l-2 -25q0 -8 -2.5 -10.5t-29.5 -18.5q-67 -41 -90 -52l40 51l54 62zM48 185l53 -67l-22 -26l-11 30l-19 54zM589 22l92 49q-1 -7 -4 -23l-3 -9l-56 -13q-22 -3 -29 -4zM198 37q49 -10 80 -23
l46 -17l12 -6q-36 6 -84 6q-43 0 -90 -10q22 33 36 50zM423 576q14 -20 17 -24l10 -18q12 -19 13 -36l3 -53l1 -44l-1 -81l-4 -80l-4 -61q-17 -41 -52 -79q39 28 70 64l8 91l5 85l1 84l-2 59l-2 27q0 6 -2.5 9.5t-22.5 23.5q-26 25 -38 33zM366 556q-34 -27 -51 -48
q-15 -18 -18 -60l-3 -54q-2 -22 -2 -34q-1 -12 -1 -23t1 -19l74 88l48 59q4 5 4 10q0 6 -6 24q-7 24 -19.5 41t-22.5 17q-2 0 -4 -1zM203 537q-51 -49 -86 -97l-5 -65l-3 -65l1 -74q1 -13 14 -28l22 -26q17 -22 44 -47l-5 8q-32 42 -43 67.5t-11 58.5q0 12 1 29l4 103
q0 6 1 10l2 22q1 3 8 17l14 27q8 14 42 60zM418 344l-121 -148q-6 -7 -6 -17q0 -20 14 -39q23 -31 46 -45q40 40 57 80l7 82zM365 530q22 -31 22 -53q0 -6 -28 -39l-31 -38q-4 -4 -9 -8q37 76 46 138zM388 268l-28 -63q-13 -28 -17 -65q-16 16 -20 33q22 49 65 95z" />
    <glyph glyph-name="Ugrave" unicode="&#xd9;" horiz-adv-x="669" 
d="M616 660v-20l-91 -4h-60l-67 4l-25 3l13 3l87 7l70 4zM99 634l107 14l-34 -11q-87 -28 -149 -54v37zM199 619l77 19q17 -52 17 -121q0 -26 -1 -44q-1 -21 -1 -40v-17q0 -8 -1 -29.5t-2 -43.5q-2 -34 -2 -50l-6 -108v-9q33 -26 82 -27l5 237v83q0 80 -8 138l-1 11l66 -1
l170 2l-4 -41l-3 -71v-126l2 -145l6 -126q0 -8 7 -60h-100l-96 -2l-26 27q-23 -20 -53.5 -37.5t-42.5 -17.5q-37 0 -95 20q-38 13 -52 27l-24 24q-6 7 -20 23l-19 24q-9 11 -10 27v26l-1 14l1 55l6 98l2 70q1 16 1 44q0 44 -7 66l-5 24l-2 8l52 21zM22 564q31 -45 31 -131
v-10l-7 -120l-10 -125l-8 66l-4 64l-3 113zM617 505q2 -26 2 -27q0 -34 1 -56l6 -123l7 -102l15 -150q-10 1 -23 1l-8 63l-5 67l-3 105l1 67l2 79q3 59 5 76zM318 483l1 -7l5 -59l8 -162l2 -76q-17 7 -33 18l4 118l7 106zM69 105l11 -12q48 -51 83 -78l-23 6q-15 4 -54 19
l-9 4zM375 50q3 -5 4 -5l11 -18l2 -3l5 -5l-55 2q20 15 33 29zM652 25l5 -25l-129 7l-114 11q46 9 120 9q85 0 118 -2zM205 -19l-71 1l-49 3l-4 27l7 -2q16 -4 55 -12q31 -7 62 -17zM405 563l2 -53l2 -82v-70l-2 -112l-4 -142l6 -1l17 238l5 109l2 73v40h-28zM138 545
l-26 -8l2 -48v-120l-4 -100l-3 -62l-2 -28v-16q32 -43 76 -78q-2 2 -4 5l-2 2l-38 51q-16 23 -15 28l6 75l7 128l2 87zM157 838l24 -9l-16 -31l-18 -37l1 29l4 30zM211 816l41 -17l62 -29l78 -42l1 -1v1l14 -8l-4 -9l-83 11l-82 15l-67 15l8 17l15 25q4 7 17 22zM341 787
l48 -13l42 -12l-11 -19l-79 42v2z" />
    <glyph glyph-name="Uacute" unicode="&#xda;" horiz-adv-x="669" 
d="M616 660v-20l-91 -4h-60l-67 4l-25 3l13 3l87 7l70 4zM99 634l107 14l-34 -11q-87 -28 -149 -54v37zM199 619l77 19q17 -52 17 -121q0 -26 -1 -44q-1 -21 -1 -40v-17q0 -8 -1 -29.5t-2 -43.5q-2 -34 -2 -50l-6 -108v-9q33 -26 82 -27l5 237v83q0 80 -8 138l-1 11l66 -1
l170 2l-4 -41l-3 -71v-126l2 -145l6 -126q0 -8 7 -60h-100l-96 -2l-26 27q-23 -20 -53.5 -37.5t-42.5 -17.5q-37 0 -95 20q-38 13 -52 27l-24 24q-6 7 -20 23l-19 24q-9 11 -10 27v26l-1 14l1 55l6 98l2 70q1 16 1 44q0 44 -7 66l-5 24l-2 8l52 21zM22 564q31 -45 31 -131
v-10l-7 -120l-10 -125l-8 66l-4 64l-3 113zM617 505q2 -26 2 -27q0 -34 1 -56l6 -123l7 -102l15 -150q-10 1 -23 1l-8 63l-5 67l-3 105l1 67l2 79q3 59 5 76zM318 483l1 -7l5 -59l8 -162l2 -76q-17 7 -33 18l4 118l7 106zM69 105l11 -12q48 -51 83 -78l-23 6q-15 4 -54 19
l-9 4zM375 50q3 -5 4 -5l11 -18l2 -3l5 -5l-55 2q20 15 33 29zM652 25l5 -25l-129 7l-114 11q46 9 120 9q85 0 118 -2zM205 -19l-71 1l-49 3l-4 27l7 -2q16 -4 55 -12q31 -7 62 -17zM405 563l2 -53l2 -82v-70l-2 -112l-4 -142l6 -1l17 238l5 109l2 73v40h-28zM138 545
l-26 -8l2 -48v-120l-4 -100l-3 -62l-2 -28v-16q32 -43 76 -78q-2 2 -4 5l-2 2l-38 51q-16 23 -15 28l6 75l7 128l2 87zM454 823q4 -3 6 -7l13 -22q7 -12 14 -31l-83 -25l-71 -19l-43 -10h-2q-2 -1 -5 -1q-4 -1 -9 -2q-1 -1 -4 -1.5t-4 -0.5l-5 10l79 47l80 45zM355 811
l-47 -34l-58 -40q-1 1 -1.5 2.5t-1.5 3t-1 2.5q-3 11 -5 13l-2 4l1 1v1l84 34z" />
    <glyph glyph-name="Ucircumflex" unicode="&#xdb;" horiz-adv-x="669" 
d="M616 660v-20l-91 -4h-60l-67 4l-25 3l13 3l87 7l70 4zM99 634l107 14l-34 -11q-87 -28 -149 -54v37zM199 619l77 19q17 -52 17 -121q0 -26 -1 -44q-1 -21 -1 -40v-17q0 -8 -1 -29.5t-2 -43.5q-2 -34 -2 -50l-6 -108v-9q33 -26 82 -27l5 237v83q0 80 -8 138l-1 11l66 -1
l170 2l-4 -41l-3 -71v-126l2 -145l6 -126q0 -8 7 -60h-100l-96 -2l-26 27q-23 -20 -53.5 -37.5t-42.5 -17.5q-37 0 -95 20q-38 13 -52 27l-24 24q-6 7 -20 23l-19 24q-9 11 -10 27v26l-1 14l1 55l6 98l2 70q1 16 1 44q0 44 -7 66l-5 24l-2 8l52 21zM22 564q31 -45 31 -131
v-10l-7 -120l-10 -125l-8 66l-4 64l-3 113zM617 505q2 -26 2 -27q0 -34 1 -56l6 -123l7 -102l15 -150q-10 1 -23 1l-8 63l-5 67l-3 105l1 67l2 79q3 59 5 76zM318 483l1 -7l5 -59l8 -162l2 -76q-17 7 -33 18l4 118l7 106zM69 105l11 -12q48 -51 83 -78l-23 6q-15 4 -54 19
l-9 4zM375 50q3 -5 4 -5l11 -18l2 -3l5 -5l-55 2q20 15 33 29zM652 25l5 -25l-129 7l-114 11q46 9 120 9q85 0 118 -2zM205 -19l-71 1l-49 3l-4 27l7 -2q16 -4 55 -12q31 -7 62 -17zM405 563l2 -53l2 -82v-70l-2 -112l-4 -142l6 -1l17 238l5 109l2 73v40h-28zM138 545
l-26 -8l2 -48v-120l-4 -100l-3 -62l-2 -28v-16q32 -43 76 -78q-2 2 -4 5l-2 2l-38 51q-16 23 -15 28l6 75l7 128l2 87zM462 735l-13 -24q-41 11 -57 16l-4 2l-7 2l-51 19l-9 -4q-66 -30 -114 -40l-12 23l12 8q6 5 37 25q37 24 49 30l24 11q6 3 7 3q2 0 14 -5l16 -6
q47 -16 108 -60zM384 804q19 -1 38 -5l58 -13q0 -1 -1.5 -7t-3.5 -11l-9 4q-32 15 -82 31v1zM262 800q-9 -8 -21 -15l-39 -23l-16 -8l-7 22q11 4 43 14q36 10 39 10h1z" />
    <glyph glyph-name="Udieresis" unicode="&#xdc;" horiz-adv-x="669" 
d="M616 660v-20l-91 -4h-60l-67 4l-25 3l13 3l87 7l70 4zM99 634l107 14l-34 -11q-87 -28 -149 -54v37zM199 619l77 19q17 -52 17 -121q0 -26 -1 -44q-1 -21 -1 -40v-17q0 -8 -1 -29.5t-2 -43.5q-2 -34 -2 -50l-6 -108v-9q33 -26 82 -27l5 237v83q0 80 -8 138l-1 11l66 -1
l170 2l-4 -41l-3 -71v-126l2 -145l6 -126q0 -8 7 -60h-100l-96 -2l-26 27q-23 -20 -53.5 -37.5t-42.5 -17.5q-37 0 -95 20q-38 13 -52 27l-24 24q-6 7 -20 23l-19 24q-9 11 -10 27v26l-1 14l1 55l6 98l2 70q1 16 1 44q0 44 -7 66l-5 24l-2 8l52 21zM22 564q31 -45 31 -131
v-10l-7 -120l-10 -125l-8 66l-4 64l-3 113zM617 505q2 -26 2 -27q0 -34 1 -56l6 -123l7 -102l15 -150q-10 1 -23 1l-8 63l-5 67l-3 105l1 67l2 79q3 59 5 76zM318 483l1 -7l5 -59l8 -162l2 -76q-17 7 -33 18l4 118l7 106zM69 105l11 -12q48 -51 83 -78l-23 6q-15 4 -54 19
l-9 4zM375 50q3 -5 4 -5l11 -18l2 -3l5 -5l-55 2q20 15 33 29zM652 25l5 -25l-129 7l-114 11q46 9 120 9q85 0 118 -2zM205 -19l-71 1l-49 3l-4 27l7 -2q16 -4 55 -12q31 -7 62 -17zM405 563l2 -53l2 -82v-70l-2 -112l-4 -142l6 -1l17 238l5 109l2 73v40h-28zM138 545
l-26 -8l2 -48v-120l-4 -100l-3 -62l-2 -28v-16q32 -43 76 -78q-2 2 -4 5l-2 2l-38 51q-16 23 -15 28l6 75l7 128l2 87zM142 795l58 8l-56 -29zM398 801l27 -16l37 -28l-43 -26l-25 -12l-47 25l-20 13l17 12l30 19zM249 799q2 -1 7 -4t12 -8l14 -9q10 -7 28 -22l-25 -15
l-44 -23l-33 19l-31 19v2l33 20zM287 799l30 -4h23l-28 -21l-22 22q-2 1 -3 3zM438 799l64 -7l-4 -28z" />
    <glyph glyph-name="germandbls" unicode="&#xdf;" horiz-adv-x="666" 
d="M198 690h5l-70 -12l-29 -7l-62 -16l7 31q48 6 83 6zM338 679l57 -5l137 -26q7 -1 9.5 -2t3.5 -2t2 -5l10 -22q7 -18 11 -36l6 -20l2 -8l-1 -2l-5 10l-10 19q-12 22 -18 27.5t-32 16.5l-31 14q-40 18 -97 31zM569 675l29 -8l12 -56l9 -59l7 -71l2 -51l-4 15l-28 121
l-18 71l-9 34v4zM243 663l10 -1l-69 -23q-64 -23 -129 -70l-4 9q-9 23 -14 32q67 33 143 45l31 5zM492 423q33 -12 62 -29l39 -24q23 -14 26 -25q10 -45 10 -94t-6 -86q-13 -16 -36 -33q-35 -28 -49 -38l-32 -20q-30 -19 -40.5 -23t-32.5 -5l-58 -2q-15 0 -30 1l-9 1
q-11 18 -18 51l-3 14q-1 3 -1 6q0 5 10 13q6 3 14 11l43 38l10 10q4 37 4 78v20q0 3 -0.5 6t-1 5t-0.5 4v1q0 9 -6 14q-2 3 -6 6q-11 10 -40 32q-2 1 -5 3t-5 3q-10 5 -13 11.5t-7 32.5q49 30 80 70q-5 28 -8 39q-7 31 -19 39q-4 1 -19 11q-11 6 -14 6q-4 0 -15 -10
q-3 -3 -17 -15l-11 -139q0 -5 -1 -12q0 -15 -1 -29q-1 -7 -1 -15l-2 -55l-1 -70l3 -88l5 -62l3 -30l-9 1q-13 1 -30 2t-20 1h-67l-92 -4l7 185l-1 195q0 51 -14 107q38 34 101.5 61.5t129.5 39.5l20 3q9 2 20 2q21 0 72.5 -15t84.5 -31q13 -6 23 -11q19 -7 21 -16
q1 -2 6 -34q2 -18 2 -26q0 -29 -3 -37.5t-18 -19.5l-27 -21q-3 -2 -7 -4zM328 543q21 -8 25.5 -18.5t6.5 -49.5zM41 510q7 -19 9 -43q6 -49 6 -73q0 -2 -0.5 -8t-0.5 -9v-18l-1 -123l-4 -135l-3 -76l132 2l40 -2l-13 -3l-51 -6l-78 -6l-59 -2l9 182l12 165l2 65v90zM323 509
l19 -54l-22 -19zM586 474q0 -47 24 -86l-8 5q-45 25 -63 32zM310 320l23 -4l-16 -62q-4 -19 -9 -44l-3 -14l-1 -2q0 -1 -0.5 -3t-0.5 -4q-2 14 -2 41q0 53 9 92zM358 305q11 -26 11 -65q0 -3 -0.5 -9t-0.5 -8l-3 -23q-1 -8 -3 -10.5t-13 -10.5q-10 -8 -28 -16l2 15zM649 147
l-2 -33l-50 -26l-78 -35zM567 42l75 33l-6 -29q-37 -4 -69 -4zM385 575q2 -3 5.5 -7.5t4.5 -5.5q11 -13 19 -42q8 -26 8 -47q0 -6 -9 -21l-11 -19q-2 -3 -5 -8q25 17 49 40q-4 37 -10 55q-4 14 -5.5 17t-10.5 10l-14 13q-12 9 -21 15zM164 525l-29 -14v-177l-5 -240l5 -1
l15 198zM400 375q3 -3 6.5 -7t4.5 -5l6 -7q14 -15 16.5 -21t4.5 -26l2 -36v-20q0 -37 -3 -61l-2 -26q0 -8 -7 -15l-8 -8q-16 -15 -41 -33q9 2 24 11l19 10q3 2 9.5 6t9.5 6l7 5l9 76l2 29v28l-2 55q-1 8 -6 11z" />
    <glyph glyph-name="agrave" unicode="&#xe0;" horiz-adv-x="571" 
d="M192 510l-57 -21q-35 -14 -69 -31q-1 3 -2 5t-2.5 4.5t-2.5 4.5q-3 7 -8 20l76 11zM396 499q26 -5 56 -15l29 -10q42 -14 72 -27l-4 -89l-2 -24l-7 -57q0 -2 -0.5 -5t-1 -5t-0.5 -3l-4 -29q-4 -27 -10 -56l-2 139q0 2 -2 28q0 5 -0.5 13t-0.5 11l-2 30q-2 11 -2 22
t-10 15l-9 6q-10 6 -19 12q-19 12 -36 20q-27 13 -45 24zM510 47l-67 3l-79 1l-24 -2l-22 30q-29 -11 -51 -23l-49 -25q-47 1 -121 34q-43 43 -69 87q1 50 11 87q4 15 20 37q15 21 30 36l10 10q5 5 9 10l10 3q27 9 36 11l18 4l18 5l40 7l68 8q-9 46 -43 72q-63 -23 -121 -80
q-31 32 -56 75l6 3l2 1q2 1 6 2.5t8 3.5l2 1q3 1 7 2.5t7 3.5q93 41 189 41q15 0 61 -19q43 -18 92 -52q7 -5 16 -11q13 -9 15 -22l5 -25q8 -50 8 -128q0 -11 -0.5 -28.5t-0.5 -24.5l-2 -36v-21q0 -27 9 -72zM42 452q2 -3 4.5 -7t3.5 -5l5 -7l28 -44q6 -11 21 -29
q-1 -1 -3.5 -2.5t-3.5 -2.5q-18 -15 -22 -19l-11 -11q-2 -1 -8 -7l12 56l-20 57q-5 18 -6 21zM246 406q18 -5 29 -21l-73 -10q6 4 7 5q8 7 17 13l8 4q3 3 12 9zM20 116h1l6 -7q16 -20 30 -34q19 -19 45 -32l24 -12q9 -5 10 -6q-9 1 -25 5q-34 8 -50 11q-36 9 -43 11zM259 30
l49 24l15 -26zM490 27l26 -2l8 -22l-58 11l-26 3l-84 8q38 4 74 4q6 0 11 -1zM311 451q14 -26 18 -34l10 -19q4 -8 5 -31l1 -33v-29v-46l2 -150l12 100l12 122q0 7 1.5 20.5t1.5 17.5q0 13 -16 31l-12 15q-3 3 -13.5 14t-21.5 22zM235 132q18 -12 29 -12q6 0 22 11q7 5 8 22
l2 50l1 77l-1 34q-6 -2 -11 -4l-26 -13q-13 -6 -16.5 -10t-7.5 -17l-11 -33l-6 -17q-4 -11 -4 -16t5 -23l13 -40q2 -1 3 -9zM141 305l-20 -19q-13 -12 -19 -19l-14 -14q-8 -7 -9 -14l-6 -29l-3 -23l-3 -16v-7q0 -4 4 -9l1 -1q2 -2 4 -4.5t3 -4.5q8 -11 45 -53q-16 27 -23 42
l-9 19q-5 10 -5 15t4 23q3 11 6 29t8 25zM259 268l1 -2q7 -46 7 -84v-37q-13 8 -21 36q0 1 -1 3t-1.5 4.5t-1.5 4.5q-3 9 -3 14q0 1 2 7l5 18q5 18 13 36zM110 681l24 -9l-16 -31l-18 -37l1 29l4 30zM164 659l41 -17l62 -29l78 -42l1 -1v1l14 -8l-4 -9l-83 11l-82 15l-67 15
l8 17l15 25q4 7 17 22zM294 630l48 -13l42 -12l-11 -19l-79 42v2z" />
    <glyph glyph-name="aacute" unicode="&#xe1;" horiz-adv-x="571" 
d="M192 510l-57 -21q-35 -14 -69 -31q-1 3 -2 5t-2.5 4.5t-2.5 4.5q-3 7 -8 20l76 11zM396 499q26 -5 56 -15l29 -10q42 -14 72 -27l-4 -89l-2 -24l-7 -57q0 -2 -0.5 -5t-1 -5t-0.5 -3l-4 -29q-4 -27 -10 -56l-2 139q0 2 -2 28q0 5 -0.5 13t-0.5 11l-2 30q-2 11 -2 22
t-10 15l-9 6q-10 6 -19 12q-19 12 -36 20q-27 13 -45 24zM510 47l-67 3l-79 1l-24 -2l-22 30q-29 -11 -51 -23l-49 -25q-47 1 -121 34q-43 43 -69 87q1 50 11 87q4 15 20 37q15 21 30 36l10 10q5 5 9 10l10 3q27 9 36 11l18 4l18 5l40 7l68 8q-9 46 -43 72q-63 -23 -121 -80
q-31 32 -56 75l6 3l2 1q2 1 6 2.5t8 3.5l2 1q3 1 7 2.5t7 3.5q93 41 189 41q15 0 61 -19q43 -18 92 -52q7 -5 16 -11q13 -9 15 -22l5 -25q8 -50 8 -128q0 -11 -0.5 -28.5t-0.5 -24.5l-2 -36v-21q0 -27 9 -72zM42 452q2 -3 4.5 -7t3.5 -5l5 -7l28 -44q6 -11 21 -29
q-1 -1 -3.5 -2.5t-3.5 -2.5q-18 -15 -22 -19l-11 -11q-2 -1 -8 -7l12 56l-20 57q-5 18 -6 21zM246 406q18 -5 29 -21l-73 -10q6 4 7 5q8 7 17 13l8 4q3 3 12 9zM20 116h1l6 -7q16 -20 30 -34q19 -19 45 -32l24 -12q9 -5 10 -6q-9 1 -25 5q-34 8 -50 11q-36 9 -43 11zM259 30
l49 24l15 -26zM490 27l26 -2l8 -22l-58 11l-26 3l-84 8q38 4 74 4q6 0 11 -1zM311 451q14 -26 18 -34l10 -19q4 -8 5 -31l1 -33v-29v-46l2 -150l12 100l12 122q0 7 1.5 20.5t1.5 17.5q0 13 -16 31l-12 15q-3 3 -13.5 14t-21.5 22zM235 132q18 -12 29 -12q6 0 22 11q7 5 8 22
l2 50l1 77l-1 34q-6 -2 -11 -4l-26 -13q-13 -6 -16.5 -10t-7.5 -17l-11 -33l-6 -17q-4 -11 -4 -16t5 -23l13 -40q2 -1 3 -9zM141 305l-20 -19q-13 -12 -19 -19l-14 -14q-8 -7 -9 -14l-6 -29l-3 -23l-3 -16v-7q0 -4 4 -9l1 -1q2 -2 4 -4.5t3 -4.5q8 -11 45 -53q-16 27 -23 42
l-9 19q-5 10 -5 15t4 23q3 11 6 29t8 25zM259 268l1 -2q7 -46 7 -84v-37q-13 8 -21 36q0 1 -1 3t-1.5 4.5t-1.5 4.5q-3 9 -3 14q0 1 2 7l5 18q5 18 13 36zM414 664q4 -2 6 -7l13 -22q7 -12 14 -31l-83 -25l-71 -19l-43 -10h-2q-2 -1 -5 -1q-4 -1 -9 -2q-1 -1 -4 -1.5
t-4 -0.5l-5 10l79 47l80 45zM315 652l-47 -34l-58 -40q-1 1 -1.5 2.5t-1.5 3t-1 2.5q-3 11 -5 13l-2 4q0 1 0.5 1t0.5 1l84 34z" />
    <glyph glyph-name="acircumflex" unicode="&#xe2;" horiz-adv-x="571" 
d="M192 510l-57 -21q-35 -14 -69 -31q-1 3 -2 5t-2.5 4.5t-2.5 4.5q-3 7 -8 20l76 11zM396 499q26 -5 56 -15l29 -10q42 -14 72 -27l-4 -89l-2 -24l-7 -57q0 -2 -0.5 -5t-1 -5t-0.5 -3l-4 -29q-4 -27 -10 -56l-2 139q0 2 -2 28q0 5 -0.5 13t-0.5 11l-2 30q-2 11 -2 22
t-10 15l-9 6q-10 6 -19 12q-19 12 -36 20q-27 13 -45 24zM510 47l-67 3l-79 1l-24 -2l-22 30q-29 -11 -51 -23l-49 -25q-47 1 -121 34q-43 43 -69 87q1 50 11 87q4 15 20 37q15 21 30 36l10 10q5 5 9 10l10 3q27 9 36 11l18 4l18 5l40 7l68 8q-9 46 -43 72q-63 -23 -121 -80
q-31 32 -56 75l6 3l2 1q2 1 6 2.5t8 3.5l2 1q3 1 7 2.5t7 3.5q93 41 189 41q15 0 61 -19q43 -18 92 -52q7 -5 16 -11q13 -9 15 -22l5 -25q8 -50 8 -128q0 -11 -0.5 -28.5t-0.5 -24.5l-2 -36v-21q0 -27 9 -72zM42 452q2 -3 4.5 -7t3.5 -5l5 -7l28 -44q6 -11 21 -29
q-1 -1 -3.5 -2.5t-3.5 -2.5q-18 -15 -22 -19l-11 -11q-2 -1 -8 -7l12 56l-20 57q-5 18 -6 21zM246 406q18 -5 29 -21l-73 -10q6 4 7 5q8 7 17 13l8 4q3 3 12 9zM20 116h1l6 -7q16 -20 30 -34q19 -19 45 -32l24 -12q9 -5 10 -6q-9 1 -25 5q-34 8 -50 11q-36 9 -43 11zM259 30
l49 24l15 -26zM490 27l26 -2l8 -22l-58 11l-26 3l-84 8q38 4 74 4q6 0 11 -1zM311 451q14 -26 18 -34l10 -19q4 -8 5 -31l1 -33v-29v-46l2 -150l12 100l12 122q0 7 1.5 20.5t1.5 17.5q0 13 -16 31l-12 15q-3 3 -13.5 14t-21.5 22zM235 132q18 -12 29 -12q6 0 22 11q7 5 8 22
l2 50l1 77l-1 34q-6 -2 -11 -4l-26 -13q-13 -6 -16.5 -10t-7.5 -17l-11 -33l-6 -17q-4 -11 -4 -16t5 -23l13 -40q2 -1 3 -9zM141 305l-20 -19q-13 -12 -19 -19l-14 -14q-8 -7 -9 -14l-6 -29l-3 -23l-3 -16v-7q0 -4 4 -9l1 -1q2 -2 4 -4.5t3 -4.5q8 -11 45 -53q-16 27 -23 42
l-9 19q-5 10 -5 15t4 23q3 11 6 29t8 25zM259 268l1 -2q7 -46 7 -84v-37q-13 8 -21 36q0 1 -1 3t-1.5 4.5t-1.5 4.5q-3 9 -3 14q0 1 2 7l5 18q5 18 13 36zM442 578l-13 -24q-41 11 -57 16l-4 2l-7 2l-51 19l-9 -4q-66 -30 -114 -40l-12 23l12 8q6 5 37 25q37 24 49 30l24 11
q6 3 7 3q2 0 14 -5q1 0 3 -1t6 -2.5t7 -2.5q47 -16 108 -60zM364 647q20 -1 38 -5l58 -13q0 -2 -1.5 -7.5t-3.5 -10.5l-9 4q-32 15 -82 31v1zM242 643q-9 -8 -21 -15l-39 -23l-16 -8l-7 22q11 4 43 14q36 10 39 10h1z" />
    <glyph glyph-name="atilde" unicode="&#xe3;" horiz-adv-x="571" 
d="M192 510l-57 -21q-35 -14 -69 -31q-1 3 -2 5t-2.5 4.5t-2.5 4.5q-3 7 -8 20l76 11zM396 499q26 -5 56 -15l29 -10q42 -14 72 -27l-4 -89l-2 -24l-7 -57q0 -2 -0.5 -5t-1 -5t-0.5 -3l-4 -29q-4 -27 -10 -56l-2 139q0 2 -2 28q0 5 -0.5 13t-0.5 11l-2 30q-2 11 -2 22
t-10 15l-9 6q-10 6 -19 12q-19 12 -36 20q-27 13 -45 24zM510 47l-67 3l-79 1l-24 -2l-22 30q-29 -11 -51 -23l-49 -25q-47 1 -121 34q-43 43 -69 87q1 50 11 87q4 15 20 37q15 21 30 36l10 10q5 5 9 10l10 3q27 9 36 11l18 4l18 5l40 7l68 8q-9 46 -43 72q-63 -23 -121 -80
q-31 32 -56 75l6 3l2 1q2 1 6 2.5t8 3.5l2 1q3 1 7 2.5t7 3.5q93 41 189 41q15 0 61 -19q43 -18 92 -52q7 -5 16 -11q13 -9 15 -22l5 -25q8 -50 8 -128q0 -11 -0.5 -28.5t-0.5 -24.5l-2 -36v-21q0 -27 9 -72zM42 452q2 -3 4.5 -7t3.5 -5l5 -7l28 -44q6 -11 21 -29
q-1 -1 -3.5 -2.5t-3.5 -2.5q-18 -15 -22 -19l-11 -11q-2 -1 -8 -7l12 56l-20 57q-5 18 -6 21zM246 406q18 -5 29 -21l-73 -10q6 4 7 5q8 7 17 13l8 4q3 3 12 9zM20 116h1l6 -7q16 -20 30 -34q19 -19 45 -32l24 -12q9 -5 10 -6q-9 1 -25 5q-34 8 -50 11q-36 9 -43 11zM259 30
l49 24l15 -26zM490 27l26 -2l8 -22l-58 11l-26 3l-84 8q38 4 74 4q6 0 11 -1zM311 451q14 -26 18 -34l10 -19q4 -8 5 -31l1 -33v-29v-46l2 -150l12 100l12 122q0 7 1.5 20.5t1.5 17.5q0 13 -16 31l-12 15q-3 3 -13.5 14t-21.5 22zM235 132q18 -12 29 -12q6 0 22 11q7 5 8 22
l2 50l1 77l-1 34q-6 -2 -11 -4l-26 -13q-13 -6 -16.5 -10t-7.5 -17l-11 -33l-6 -17q-4 -11 -4 -16t5 -23l13 -40q2 -1 3 -9zM141 305l-20 -19q-13 -12 -19 -19l-14 -14q-8 -7 -9 -14l-6 -29l-3 -23l-3 -16v-7q0 -4 4 -9l1 -1q2 -2 4 -4.5t3 -4.5q8 -11 45 -53q-16 27 -23 42
l-9 19q-5 10 -5 15t4 23q3 11 6 29t8 25zM259 268l1 -2q7 -46 7 -84v-37q-13 8 -21 36q0 1 -1 3t-1.5 4.5t-1.5 4.5q-3 9 -3 14q0 1 2 7l5 18q5 18 13 36zM468 659q2 -8 2 -9q5 -18 5 -30q0 -3 -0.5 -11t-0.5 -12q-9 26 -16 39l-7 11q-1 1 -3 4t-3 5zM219 658l-10 -2
l-73 -25q-1 3 -3 6.5t-3.5 6.5t-2.5 7q16 3 32 5l22 2q14 2 26 2zM357 648l31 3q-3 -2 -6 -4.5t-4 -2.5l-15 -10l-11 -9q-3 -3 -7 -6q-12 9 -23 14l-21 12l-3 1q-3 2 -5 4zM417 639q13 -18 21 -41q-31 -20 -57 -32q-16 -8 -18 -8q-8 -5 -10 -5q-11 0 -36 12l-59 23l-24 12
q-6 -4 -8 -5l-14 -7l-12 -5l-5 -3q-11 -5 -15 -7q-1 0 -2 -1l-6 -3q-10 13 -12 17l-3 6l-7 11l-2 3q-1 2 -2 3q15 9 18 10q1 1 19 9l9 4l16 6q21 7 24 7q5 0 26 -9l23 -8q2 -1 9 -4t11 -5l15 -7q6 -3 11.5 -5.5t8.5 -4.5l4 -2q6 -4 7 -4q2 0 8 6q18 16 62 37z" />
    <glyph glyph-name="adieresis" unicode="&#xe4;" horiz-adv-x="571" 
d="M192 510l-57 -21q-35 -14 -69 -31q-1 3 -2 5t-2.5 4.5t-2.5 4.5q-3 7 -8 20l76 11zM396 499q26 -5 56 -15l29 -10q42 -14 72 -27l-4 -89l-2 -24l-7 -57q0 -2 -0.5 -5t-1 -5t-0.5 -3l-4 -29q-4 -27 -10 -56l-2 139q0 2 -2 28q0 5 -0.5 13t-0.5 11l-2 30q-2 11 -2 22
t-10 15l-9 6q-10 6 -19 12q-19 12 -36 20q-27 13 -45 24zM510 47l-67 3l-79 1l-24 -2l-22 30q-29 -11 -51 -23l-49 -25q-47 1 -121 34q-43 43 -69 87q1 50 11 87q4 15 20 37q15 21 30 36l10 10q5 5 9 10l10 3q27 9 36 11l18 4l18 5l40 7l68 8q-9 46 -43 72q-63 -23 -121 -80
q-31 32 -56 75l6 3l2 1q2 1 6 2.5t8 3.5l2 1q3 1 7 2.5t7 3.5q93 41 189 41q15 0 61 -19q43 -18 92 -52q7 -5 16 -11q13 -9 15 -22l5 -25q8 -50 8 -128q0 -11 -0.5 -28.5t-0.5 -24.5l-2 -36v-21q0 -27 9 -72zM42 452q2 -3 4.5 -7t3.5 -5l5 -7l28 -44q6 -11 21 -29
q-1 -1 -3.5 -2.5t-3.5 -2.5q-18 -15 -22 -19l-11 -11q-2 -1 -8 -7l12 56l-20 57q-5 18 -6 21zM246 406q18 -5 29 -21l-73 -10q6 4 7 5q8 7 17 13l8 4q3 3 12 9zM20 116h1l6 -7q16 -20 30 -34q19 -19 45 -32l24 -12q9 -5 10 -6q-9 1 -25 5q-34 8 -50 11q-36 9 -43 11zM259 30
l49 24l15 -26zM490 27l26 -2l8 -22l-58 11l-26 3l-84 8q38 4 74 4q6 0 11 -1zM311 451q14 -26 18 -34l10 -19q4 -8 5 -31l1 -33v-29v-46l2 -150l12 100l12 122q0 7 1.5 20.5t1.5 17.5q0 13 -16 31l-12 15q-3 3 -13.5 14t-21.5 22zM235 132q18 -12 29 -12q6 0 22 11q7 5 8 22
l2 50l1 77l-1 34q-6 -2 -11 -4l-26 -13q-13 -6 -16.5 -10t-7.5 -17l-11 -33l-6 -17q-4 -11 -4 -16t5 -23l13 -40q2 -1 3 -9zM141 305l-20 -19q-13 -12 -19 -19l-14 -14q-8 -7 -9 -14l-6 -29l-3 -23l-3 -16v-7q0 -4 4 -9l1 -1q2 -2 4 -4.5t3 -4.5q8 -11 45 -53q-16 27 -23 42
l-9 19q-5 10 -5 15t4 23q3 11 6 29t8 25zM259 268l1 -2q7 -46 7 -84v-37q-13 8 -21 36q0 1 -1 3t-1.5 4.5t-1.5 4.5q-3 9 -3 14q0 1 2 7l5 18q5 18 13 36zM127 639l58 8l-56 -29zM383 645l27 -16l37 -28l-43 -26l-25 -12l-47 25l-20 13l17 12l30 19zM234 643q2 -1 7 -4
t12 -8l14 -9q10 -7 28 -22l-25 -15l-44 -23l-33 19l-31 19v2l33 20zM272 643l30 -4h23l-28 -21l-22 22q-2 1 -3 3zM423 643l64 -7l-4 -28z" />
    <glyph glyph-name="aring" unicode="&#xe5;" horiz-adv-x="571" 
d="M192 510l-57 -21q-35 -14 -69 -31q-1 3 -2 5t-2.5 4.5t-2.5 4.5q-3 7 -8 20l76 11zM396 499q26 -5 56 -15l29 -10q42 -14 72 -27l-4 -89l-2 -24l-7 -57q0 -2 -0.5 -5t-1 -5t-0.5 -3l-4 -29q-4 -27 -10 -56l-2 139q0 2 -2 28q0 5 -0.5 13t-0.5 11l-2 30q-2 11 -2 22
t-10 15l-9 6q-10 6 -19 12q-19 12 -36 20q-27 13 -45 24zM510 47l-67 3l-79 1l-24 -2l-22 30q-29 -11 -51 -23l-49 -25q-47 1 -121 34q-43 43 -69 87q1 50 11 87q4 15 20 37q15 21 30 36l10 10q5 5 9 10l10 3q27 9 36 11l18 4l18 5l40 7l68 8q-9 46 -43 72q-63 -23 -121 -80
q-31 32 -56 75l6 3l2 1q2 1 6 2.5t8 3.5l2 1q3 1 7 2.5t7 3.5q93 41 189 41q15 0 61 -19q43 -18 92 -52q7 -5 16 -11q13 -9 15 -22l5 -25q8 -50 8 -128q0 -11 -0.5 -28.5t-0.5 -24.5l-2 -36v-21q0 -27 9 -72zM42 452q2 -3 4.5 -7t3.5 -5l5 -7l28 -44q6 -11 21 -29
q-1 -1 -3.5 -2.5t-3.5 -2.5q-18 -15 -22 -19l-11 -11q-2 -1 -8 -7l12 56l-20 57q-5 18 -6 21zM246 406q18 -5 29 -21l-73 -10q6 4 7 5q8 7 17 13l8 4q3 3 12 9zM20 116h1l6 -7q16 -20 30 -34q19 -19 45 -32l24 -12q9 -5 10 -6q-9 1 -25 5q-34 8 -50 11q-36 9 -43 11zM259 30
l49 24l15 -26zM490 27l26 -2l8 -22l-58 11l-26 3l-84 8q38 4 74 4q6 0 11 -1zM311 451q14 -26 18 -34l10 -19q4 -8 5 -31l1 -33v-29v-46l2 -150l12 100l12 122q0 7 1.5 20.5t1.5 17.5q0 13 -16 31l-12 15q-3 3 -13.5 14t-21.5 22zM235 132q18 -12 29 -12q6 0 22 11q7 5 8 22
l2 50l1 77l-1 34q-6 -2 -11 -4l-26 -13q-13 -6 -16.5 -10t-7.5 -17l-11 -33l-6 -17q-4 -11 -4 -16t5 -23l13 -40q2 -1 3 -9zM141 305l-20 -19q-13 -12 -19 -19l-14 -14q-8 -7 -9 -14l-6 -29l-3 -23l-3 -16v-7q0 -4 4 -9l1 -1q2 -2 4 -4.5t3 -4.5q8 -11 45 -53q-16 27 -23 42
l-9 19q-5 10 -5 15t4 23q3 11 6 29t8 25zM259 268l1 -2q7 -46 7 -84v-37q-13 8 -21 36q0 1 -1 3t-1.5 4.5t-1.5 4.5q-3 9 -3 14q0 1 2 7l5 18q5 18 13 36zM314 677q33 -3 57 -12l16 -4q1 -1 8 -3q-1 -63 -10 -97q-1 3 -1 7l-2 23v3q-1 3 -1 5q-2 11 -4 22.5t-2 12.5
q0 8 -1.5 10t-10.5 7l-25 13l-10 5q-2 0 -6 3q-1 0 -3.5 2t-4.5 3zM308 652l8 -4l24 -17q8 -6 10 -10t2 -15l-1 -21l-1 -9q-1 -7 -1.5 -10t-2.5 -5t-7 -5l-14 -10l-19 -9q-4 -3 -7 -3h-1q-2 1 -5 2t-5 2l-15 7q-6 2 -9 5l-18 11q-7 5 -7 10v26q0 11 4 34q35 16 56 20
q2 0 4 1h2h1h2zM217 650q-1 -4 -1 -7l-2 -20q-1 -10 -1 -38q0 -24 1 -44h-2l-26 18q3 13 12 43q11 34 19 48zM303 633q-24 -30 -37 -66q31 9 51 18q-6 27 -14 48z" />
    <glyph glyph-name="ae" unicode="&#xe6;" horiz-adv-x="775" 
d="M556 518q41 -10 91 -25q32 -10 87 -30l9 -3l8 -62l6 -76l-17 61q-4 10 -6 19l-8 22q-2 9 -9 13l-53 29l-76 36l-32 15v1zM164 505l35 2q-24 -8 -60 -22q-54 -21 -62 -25l-13 30q5 0 9 2q15 3 16 4l16 2l11 2zM735 266l-69 -10l-59 -10q-62 -11 -134 -39q7 -36 34 -74
q15 -23 35 -23q15 0 32 12l17 11q7 5 14 9.5t11 7.5t6 4l26 21q4 4 7 6q29 -42 45 -89l-72 -33q-1 0 -43 -16q-28 -10 -52 -17l-90 21q-27 6 -43 12l-34 11q-3 0 -12 4l-13 -6l-55 -18l-58 -16q-22 -5 -26 -5q-30 0 -95 28q-15 8 -23 17q-20 22 -23 27l-19 29q-12 16 -12 32
q0 55 11 83.5t46 62.5q19 19 29 25t35 12q7 2 35 8q15 3 16 3l47 7l24 3q-3 21 -9.5 34t-23.5 32q-55 -26 -101 -67q-27 30 -51 73q47 22 99 37.5t81 15.5q40 0 98 -23q7 -4 12 -4q4 0 12 3l34 8q24 4 38 6l45 6q12 2 24 2q31 0 107 -44q49 -28 60 -39q7 -6 16 -34
q12 -41 20 -97zM76 408q6 -8 19 -27q3 -4 7.5 -10.5t7.5 -10.5q-30 -22 -58 -54l16 72zM230 406q13 -14 19 -25h-10q-13 0 -24 -1q-4 0 -12 -1.5t-13 -2.5l-10 -1q21 19 42 28zM736 240l2 -26l-63 -4l-71 -8l-66 -12v-7q0 -19 4 -43l1 -10q-8 3 -19 21t-18 37q24 10 43 16
l21 6l8 2l50 11l72 12zM699 175l32 -1l5 -77l-27 58zM18 124l8 -11q23 -35 31.5 -44.5t22.5 -17.5l20 -11q1 0 4 -2t9.5 -5.5t12.5 -6.5l10 -5l-25 4l-56 12l-36 11l-1 30v46zM734 85l3 -25l-91 -27l-20 -4l80 44zM424 29l-127 -2l55 26l1 -1v1zM285 449q15 -26 26 -50
q9 -20 9 -51l1 -87v-89l-2 -63h7l9 84l6 80l3 77v21v10q0 7 -12 21l-14 18q-12 15 -33 29zM546 451q18 -21 30 -40q11 -17 11 -47v-19q0 -16 -1 -32l22 6l1 15v19l-1 30q0 16 -12 27l-18 18q-16 14 -32 23zM506 428l-7 -6q-23 -21 -29 -33.5t-6 -41.5v-13q1 -48 3 -64l78 30
q2 32 2 34v35q0 10 -12 27q-11 17 -29 32zM123 89q-8 13 -11 17l-11 19q-15 24 -15 36q0 5 2 13l4 21q8 35 18.5 57t37.5 58v1l-1 -1q-5 -2 -19 -15l-11 -9q-9 -9 -25 -29q-10 -11 -14 -25q-4 -15 -8 -45l-1 -17q-1 -7 -1 -13q0 -5 5 -11l23 -30q9 -12 27 -27zM273 311
q-28 -12 -47 -25q-12 -8 -16 -23q-9 -24 -11 -27q-8 -24 -8 -35q0 -7 5 -25q5 -19 6 -23q3 -15 6.5 -19t15.5 -9l11 -5q1 -2 9 -3q10 6 18 12q1 1 3.5 3t4.5 4l4 79q1 6 1 30v20q0 30 -2 46zM508 405q20 -39 21 -88q-16 20 -36 58q6 17 15 30zM488 347q13 -26 20 -38l-19 -7
q0 9 -1 11q-1 10 -1 24q0 6 1 10zM236 262h1q9 -42 9 -79q0 -35 -2 -46q-29 35 -29 63q0 3 5 20l5 17q6 15 11 25z" />
    <glyph glyph-name="ccedilla" unicode="&#xe7;" horiz-adv-x="482" 
d="M210 512l20 6q-9 -5 -9 -6l-53 -29q-3 -2 -13.5 -8t-18.5 -10q-16 -9 -23 -14l-29 -20q-20 -14 -28 -27q-9 -17 -30 -69l-3 -9l12 103l57 32l55 26zM467 496l-12 -28l-64 22l-59 16l-36 9q5 1 11 1q68 0 160 -20zM279 492h9l53 -12l63 -18l41 -13q-18 -38 -50 -80l-6 7
q-53 55 -63 55q-2 0 -4 -1q-15 -7 -16 -7l-24 -13q-13 -7 -16 -12t-5 -20l-5 -46l-4 -61v-15q0 -33 2 -55l2 -28q2 -17 10 -27l10 -12l11 -13q6 -7 13 -7l13 -2h10l3 2q39 26 81 63q28 -33 52 -71q-66 -48 -168 -73l-2 -14q31 -5 49 -17q-3 -34 -9 -54q-2 -10 -28 -25
q-13 -7 -26 -12q-19 5 -47 18l10 33l45 -15q3 17 3 29q0 6 -1 10q-11 1 -24 1q-15 0 -26 -2l-12 56q-48 14 -88 36l-35 20q-14 8 -17.5 14t-14.5 33q-14 35 -24 81q-9 37 -9 47q0 28 22 86q12 32 17 40.5t15 14.5q1 1 17 10q4 2 8 4.5t5 2.5l50 24l96 34zM468 454l-25 -145
l-31 42l27 45zM326 399l-16 -76l-8 -54l-6 -94l-3 -28q-20 44 -20 116q0 66 15 121q18 10 38 15zM18 226q17 -54 23 -67l19 -42q9 -21 11.5 -25t12.5 -10q1 -1 3 -2.5t5.5 -3.5t6.5 -4q17 -10 42 -27q25 -16 35 -26q-38 9 -73 22l-46 19q-7 2 -9 9l-14 54l-11 59
q-4 14 -5 44zM425 218q9 -14 26 -48q17 -39 20 -47l-11 16q-32 45 -54 70zM388 202q-36 -36 -64 -57l4 40q16 2 46 12zM442 65l-15 -16q-34 -39 -60 -84l-9 -15l5 26l5 57zM149 -4q12 -3 43 -13q1 -1 4.5 -2t6.5 -2q-2 -20 -8 -40q-20 33 -46 57zM164 421l-59 -35l-3 -6
q-33 -75 -33 -104q0 -12 8 -39l9 -32q8 -30 23 -62q5 -10 28 -24l18 -11q14 -8 28 -15q-32 25 -56 52l-2.5 5t-1.5 4l-7 18q-2 5 -9 28q-6 25 -9 40l-4 25q-1 5 -1 9q0 14 9 43l16 45q1 6 4 9z" />
    <glyph glyph-name="egrave" unicode="&#xe8;" 
d="M194 502l-62 -41l-51 -36l-19 -15q-14 -11 -19 -26l-7 -19q-6 -22 -11 -46l-7 92l78 45q18 10 54 28q14 6 44 18zM389 502l69 -17l81 -24l8 -60l1 -3q0 -3 0.5 -9.5t0.5 -13.5l1 -15q1 -9 3 -38l-18 60l-18 53l-51 28l-66 32zM533 267l-63 -9l-65 -12l-61 -13l-55 -15
l-23 -8q8 -36 33 -71q17 -24 37 -24h8h1h1q4 0 4 1l50 32l47 33q26 -30 46 -89q-59 -29 -122 -48q-67 -19 -81 -19q-22 0 -108 36q-43 19 -51.5 24t-18.5 18l-18 23q-19 26 -39 64q-11 22 -11 36q0 74 14 118l10 31q5 15 19 27l16 11q24 19 75.5 43t94.5 37q129 -32 192 -69
q27 -17 32 -24t15 -38q3 -8 16 -64q4 -21 5 -31zM535 238l9 -24l-57 -3l-77 -8l-82 -14v-5l-1 -3q0 -3 3 -29q0 -1 0.5 -4t0.5 -5q-24 20 -31 48q12 5 47 15l34 8.5t25 6.5l45 8l62 8zM499 174l23 -1l2 -10l4 -65zM42 153q22 -34 55 -68q21 -21 49 -33l29 -12l12 -6
q-6 0 -11.5 0.5t-8.5 1t-4 0.5l-21 3l-8 1l-49 10l-21 6l-15 59zM425 30l104 55v-24l-33 -11zM353 435q7 -9 10 -16q12 -19 13 -20q5 -8 5 -24l1 -22v-11l-1 -30l26 7l-1 13q-1 36 -4 66q-28 24 -49 37zM302 429l-9 -9l-6 -6l-15 -17l-7 -7q-3 -8 -4 -24l-1 -19
q0 -1 -0.5 -8t-0.5 -13q0 -28 3 -54l60 22l15 5q4 39 4 80q-18 29 -39 50zM172 415q-22 -13 -38 -24l-20 -15q-16 -13 -18 -25l-3 -17q0 -7 -3 -25l-2 -26l-1 -25q0 -6 -0.5 -12.5t-1 -10t-0.5 -4.5q0 -5 11 -25l13 -24q2 -4 7 -11.5l7 -10.5l30 -45l4 1q-10 15 -16 27
l-14 28q-3 6 -3 8l-19 48v10q0 2 0.5 6t1 11t0.5 13q2 13 2 21l5 35q2 18 5 28l5 5l2 4l10 13q11 16 25 31l5 5zM304 403q16 -31 16 -59v-9q-26 25 -26 45q0 9 4 15l4 5l1 3h1zM283 346q8 -16 24 -34l-22 -8q-3 16 -3 25q0 2 0.5 7.5t0.5 9.5zM123 681l24 -9l-16 -31
l-18 -37l1 29l4 30zM177 659l41 -17l62 -29l78 -42l1 -1v1l14 -8l-4 -9l-83 11l-82 15l-67 15l8 17l15 25q4 7 17 22zM307 630l48 -13l42 -12l-11 -19l-79 42v2z" />
    <glyph glyph-name="eacute" unicode="&#xe9;" 
d="M194 502l-62 -41l-51 -36l-19 -15q-14 -11 -19 -26l-7 -19q-6 -22 -11 -46l-7 92l78 45q18 10 54 28q14 6 44 18zM389 502l69 -17l81 -24l8 -60l1 -3q0 -3 0.5 -9.5t0.5 -13.5l1 -15q1 -9 3 -38l-18 60l-18 53l-51 28l-66 32zM533 267l-63 -9l-65 -12l-61 -13l-55 -15
l-23 -8q8 -36 33 -71q17 -24 37 -24h8h1h1q4 0 4 1l50 32l47 33q26 -30 46 -89q-59 -29 -122 -48q-67 -19 -81 -19q-22 0 -108 36q-43 19 -51.5 24t-18.5 18l-18 23q-19 26 -39 64q-11 22 -11 36q0 74 14 118l10 31q5 15 19 27l16 11q24 19 75.5 43t94.5 37q129 -32 192 -69
q27 -17 32 -24t15 -38q3 -8 16 -64q4 -21 5 -31zM535 238l9 -24l-57 -3l-77 -8l-82 -14v-5l-1 -3q0 -3 3 -29q0 -1 0.5 -4t0.5 -5q-24 20 -31 48q12 5 47 15l34 8.5t25 6.5l45 8l62 8zM499 174l23 -1l2 -10l4 -65zM42 153q22 -34 55 -68q21 -21 49 -33l29 -12l12 -6
q-6 0 -11.5 0.5t-8.5 1t-4 0.5l-21 3l-8 1l-49 10l-21 6l-15 59zM425 30l104 55v-24l-33 -11zM353 435q7 -9 10 -16q12 -19 13 -20q5 -8 5 -24l1 -22v-11l-1 -30l26 7l-1 13q-1 36 -4 66q-28 24 -49 37zM302 429l-9 -9l-6 -6l-15 -17l-7 -7q-3 -8 -4 -24l-1 -19
q0 -1 -0.5 -8t-0.5 -13q0 -28 3 -54l60 22l15 5q4 39 4 80q-18 29 -39 50zM172 415q-22 -13 -38 -24l-20 -15q-16 -13 -18 -25l-3 -17q0 -7 -3 -25l-2 -26l-1 -25q0 -6 -0.5 -12.5t-1 -10t-0.5 -4.5q0 -5 11 -25l13 -24q2 -4 7 -11.5l7 -10.5l30 -45l4 1q-10 15 -16 27
l-14 28q-3 6 -3 8l-19 48v10q0 2 0.5 6t1 11t0.5 13q2 13 2 21l5 35q2 18 5 28l5 5l2 4l10 13q11 16 25 31l5 5zM304 403q16 -31 16 -59v-9q-26 25 -26 45q0 9 4 15l4 5l1 3h1zM283 346q8 -16 24 -34l-22 -8q-3 16 -3 25q0 2 0.5 7.5t0.5 9.5zM387 664q4 -2 6 -7l13 -22
q7 -12 14 -31l-83 -25l-71 -19l-43 -10h-2q-2 -1 -5 -1q-4 -1 -9 -2q-1 -1 -4 -1.5t-4 -0.5l-5 10l79 47l80 45zM288 652l-47 -34l-58 -40q-1 1 -1.5 2.5t-1.5 3t-1 2.5q-3 11 -5 13l-2 4q0 1 0.5 1t0.5 1l84 34z" />
    <glyph glyph-name="ecircumflex" unicode="&#xea;" 
d="M194 502l-62 -41l-51 -36l-19 -15q-14 -11 -19 -26l-7 -19q-6 -22 -11 -46l-7 92l78 45q18 10 54 28q14 6 44 18zM389 502l69 -17l81 -24l8 -60l1 -3q0 -3 0.5 -9.5t0.5 -13.5l1 -15q1 -9 3 -38l-18 60l-18 53l-51 28l-66 32zM533 267l-63 -9l-65 -12l-61 -13l-55 -15
l-23 -8q8 -36 33 -71q17 -24 37 -24h8h1h1q4 0 4 1l50 32l47 33q26 -30 46 -89q-59 -29 -122 -48q-67 -19 -81 -19q-22 0 -108 36q-43 19 -51.5 24t-18.5 18l-18 23q-19 26 -39 64q-11 22 -11 36q0 74 14 118l10 31q5 15 19 27l16 11q24 19 75.5 43t94.5 37q129 -32 192 -69
q27 -17 32 -24t15 -38q3 -8 16 -64q4 -21 5 -31zM535 238l9 -24l-57 -3l-77 -8l-82 -14v-5l-1 -3q0 -3 3 -29q0 -1 0.5 -4t0.5 -5q-24 20 -31 48q12 5 47 15l34 8.5t25 6.5l45 8l62 8zM499 174l23 -1l2 -10l4 -65zM42 153q22 -34 55 -68q21 -21 49 -33l29 -12l12 -6
q-6 0 -11.5 0.5t-8.5 1t-4 0.5l-21 3l-8 1l-49 10l-21 6l-15 59zM425 30l104 55v-24l-33 -11zM353 435q7 -9 10 -16q12 -19 13 -20q5 -8 5 -24l1 -22v-11l-1 -30l26 7l-1 13q-1 36 -4 66q-28 24 -49 37zM302 429l-9 -9l-6 -6l-15 -17l-7 -7q-3 -8 -4 -24l-1 -19
q0 -1 -0.5 -8t-0.5 -13q0 -28 3 -54l60 22l15 5q4 39 4 80q-18 29 -39 50zM172 415q-22 -13 -38 -24l-20 -15q-16 -13 -18 -25l-3 -17q0 -7 -3 -25l-2 -26l-1 -25q0 -6 -0.5 -12.5t-1 -10t-0.5 -4.5q0 -5 11 -25l13 -24q2 -4 7 -11.5l7 -10.5l30 -45l4 1q-10 15 -16 27
l-14 28q-3 6 -3 8l-19 48v10q0 2 0.5 6t1 11t0.5 13q2 13 2 21l5 35q2 18 5 28l5 5l2 4l10 13q11 16 25 31l5 5zM304 403q16 -31 16 -59v-9q-26 25 -26 45q0 9 4 15l4 5l1 3h1zM283 346q8 -16 24 -34l-22 -8q-3 16 -3 25q0 2 0.5 7.5t0.5 9.5zM415 578l-13 -24
q-41 11 -57 16l-4 2l-7 2l-51 19l-9 -4q-66 -30 -114 -40l-12 23l12 8q6 5 37 25q37 24 49 30l24 11q6 3 7 3q2 0 14 -5q1 0 3 -1t6 -2.5t7 -2.5q47 -16 108 -60zM337 647q19 -1 38 -5l58 -13q0 -1 -1.5 -7t-3.5 -11l-9 4q-32 15 -82 31v1zM215 643q-9 -8 -21 -15l-39 -23
l-16 -8l-7 22q11 4 43 14q36 10 39 10h1z" />
    <glyph glyph-name="edieresis" unicode="&#xeb;" 
d="M194 502l-62 -41l-51 -36l-19 -15q-14 -11 -19 -26l-7 -19q-6 -22 -11 -46l-7 92l78 45q18 10 54 28q14 6 44 18zM389 502l69 -17l81 -24l8 -60l1 -3q0 -3 0.5 -9.5t0.5 -13.5l1 -15q1 -9 3 -38l-18 60l-18 53l-51 28l-66 32zM533 267l-63 -9l-65 -12l-61 -13l-55 -15
l-23 -8q8 -36 33 -71q17 -24 37 -24h8h1h1q4 0 4 1l50 32l47 33q26 -30 46 -89q-59 -29 -122 -48q-67 -19 -81 -19q-22 0 -108 36q-43 19 -51.5 24t-18.5 18l-18 23q-19 26 -39 64q-11 22 -11 36q0 74 14 118l10 31q5 15 19 27l16 11q24 19 75.5 43t94.5 37q129 -32 192 -69
q27 -17 32 -24t15 -38q3 -8 16 -64q4 -21 5 -31zM535 238l9 -24l-57 -3l-77 -8l-82 -14v-5l-1 -3q0 -3 3 -29q0 -1 0.5 -4t0.5 -5q-24 20 -31 48q12 5 47 15l34 8.5t25 6.5l45 8l62 8zM499 174l23 -1l2 -10l4 -65zM42 153q22 -34 55 -68q21 -21 49 -33l29 -12l12 -6
q-6 0 -11.5 0.5t-8.5 1t-4 0.5l-21 3l-8 1l-49 10l-21 6l-15 59zM425 30l104 55v-24l-33 -11zM353 435q7 -9 10 -16q12 -19 13 -20q5 -8 5 -24l1 -22v-11l-1 -30l26 7l-1 13q-1 36 -4 66q-28 24 -49 37zM302 429l-9 -9l-6 -6l-15 -17l-7 -7q-3 -8 -4 -24l-1 -19
q0 -1 -0.5 -8t-0.5 -13q0 -28 3 -54l60 22l15 5q4 39 4 80q-18 29 -39 50zM172 415q-22 -13 -38 -24l-20 -15q-16 -13 -18 -25l-3 -17q0 -7 -3 -25l-2 -26l-1 -25q0 -6 -0.5 -12.5t-1 -10t-0.5 -4.5q0 -5 11 -25l13 -24q2 -4 7 -11.5l7 -10.5l30 -45l4 1q-10 15 -16 27
l-14 28q-3 6 -3 8l-19 48v10q0 2 0.5 6t1 11t0.5 13q2 13 2 21l5 35q2 18 5 28l5 5l2 4l10 13q11 16 25 31l5 5zM304 403q16 -31 16 -59v-9q-26 25 -26 45q0 9 4 15l4 5l1 3h1zM283 346q8 -16 24 -34l-22 -8q-3 16 -3 25q0 2 0.5 7.5t0.5 9.5zM120 639l58 8l-56 -29z
M376 645l27 -16l37 -28l-43 -26l-25 -12l-47 25l-20 13l17 12l30 19zM227 643q2 -1 7 -4t12 -8l14 -9q10 -7 28 -22l-25 -15l-44 -23l-33 19l-31 19v2l33 20zM265 643l30 -4h23l-28 -21l-22 22q-2 1 -3 3zM416 643l64 -7l-4 -28z" />
    <glyph glyph-name="igrave" unicode="&#xec;" horiz-adv-x="317" 
d="M257 498l3 -69l2 -64l1 -80l-2 -87l3 -73l6 -79l-18 2h-80l-115 -3l4 133v48l-1 106q-1 56 -16 89q48 26 107 46q53 17 106 31zM17 405q27 -51 27 -116q0 -36 -7 -82l-2 6l-8 57l-7 72q-1 11 -1 22v16l-1 12q-1 2 -1 8v5zM288 389l3 -20l5 -58l3 -88v-96l-4 -70
q-12 66 -14 125l-1 57l3 75q0 32 3 51l1 15zM39 105l1 -87l60 3h67l12 -1l-98 -20l-56 -15q-2 9 -2 24q0 56 16 96zM127 407l-28 -12l2 -44l3 -90l2 -173h8l7 119l3 69zM-3 681l24 -9l-16 -31l-18 -37l1 29l4 30zM51 659l41 -17l62 -29l78 -42l1 -1v1l14 -8l-4 -9l-83 11
l-82 15l-67 15l8 17l15 25q4 7 17 22zM181 630l48 -13l42 -12l-11 -19l-79 42v2z" />
    <glyph glyph-name="iacute" unicode="&#xed;" horiz-adv-x="317" 
d="M257 498l3 -69l2 -64l1 -80l-2 -87l3 -73l6 -79l-18 2h-80l-115 -3l4 133v48l-1 106q-1 56 -16 89q48 26 107 46q53 17 106 31zM17 405q27 -51 27 -116q0 -36 -7 -82l-2 6l-8 57l-7 72q-1 11 -1 22v16l-1 12q-1 2 -1 8v5zM288 389l3 -20l5 -58l3 -88v-96l-4 -70
q-12 66 -14 125l-1 57l3 75q0 32 3 51l1 15zM39 105l1 -87l60 3h67l12 -1l-98 -20l-56 -15q-2 9 -2 24q0 56 16 96zM127 407l-28 -12l2 -44l3 -90l2 -173h8l7 119l3 69zM254 664q4 -2 6 -7l13 -22q7 -12 14 -31l-83 -25l-71 -19l-43 -10h-2q-2 -1 -5 -1q-4 -1 -9 -2
q-1 -1 -4 -1.5t-4 -0.5l-5 10l79 47l80 45zM155 652l-47 -34l-58 -40l-4 8q-3 11 -5 13l-2 4q0 1 0.5 1t0.5 1l84 34z" />
    <glyph glyph-name="icircumflex" unicode="&#xee;" horiz-adv-x="317" 
d="M257 498l3 -69l2 -64l1 -80l-2 -87l3 -73l6 -79l-18 2h-80l-115 -3l4 133v48l-1 106q-1 56 -16 89q48 26 107 46q53 17 106 31zM17 405q27 -51 27 -116q0 -36 -7 -82l-2 6l-8 57l-7 72q-1 11 -1 22v16l-1 12q-1 2 -1 8v5zM288 389l3 -20l5 -58l3 -88v-96l-4 -70
q-12 66 -14 125l-1 57l3 75q0 32 3 51l1 15zM39 105l1 -87l60 3h67l12 -1l-98 -20l-56 -15q-2 9 -2 24q0 56 16 96zM127 407l-28 -12l2 -44l3 -90l2 -173h8l7 119l3 69zM289 578l-13 -24q-41 11 -57 16l-4 2l-7 2l-51 19l-9 -4q-66 -30 -114 -40l-12 23l12 8q6 5 37 25
q37 24 49 30l24 11q6 3 7 3q2 0 14 -5q1 0 3 -1t6 -2.5t7 -2.5q47 -16 108 -60zM211 647q19 -1 38 -5l58 -13q0 -1 -1.5 -7t-3.5 -11l-9 4q-32 15 -82 31v1zM89 643q-9 -8 -21 -15l-39 -23l-16 -8l-7 22q11 4 43 14q36 10 39 10h1z" />
    <glyph glyph-name="idieresis" unicode="&#xef;" horiz-adv-x="317" 
d="M257 498l3 -69l2 -64l1 -80l-2 -87l3 -73l6 -79l-18 2h-80l-115 -3l4 133v48l-1 106q-1 56 -16 89q48 26 107 46q53 17 106 31zM17 405q27 -51 27 -116q0 -36 -7 -82l-2 6l-8 57l-7 72q-1 11 -1 22v16l-1 12q-1 2 -1 8v5zM288 389l3 -20l5 -58l3 -88v-96l-4 -70
q-12 66 -14 125l-1 57l3 75q0 32 3 51l1 15zM39 105l1 -87l60 3h67l12 -1l-98 -20l-56 -15q-2 9 -2 24q0 56 16 96zM127 407l-28 -12l2 -44l3 -90l2 -173h8l7 119l3 69zM-20 639l58 8l-56 -29zM236 645l27 -16l37 -28l-43 -26l-25 -12l-47 25l-20 13l17 12l30 19zM87 643
q2 -1 7 -4t12 -8l14 -9q10 -7 28 -22l-25 -15l-44 -23l-33 19l-31 19v2l33 20zM125 643l30 -4h23l-28 -21l-22 22q-2 1 -3 3zM276 643l64 -7l-4 -28z" />
    <glyph glyph-name="ntilde" unicode="&#xf1;" horiz-adv-x="590" 
d="M214 483q18 -27 29 -71q37 28 80 50q41 23 52 23q6 0 21 -5q1 0 6.5 -2t10.5 -3q45 -11 54 -20q27 -29 61 -82l-6 -82q-2 -28 -2 -44q0 -87 22 -144l-15 -8q-107 -50 -185 -63q-18 73 -20 117l-2 53l3 59l4 60q-13 27 -31 48q-26 -21 -43 -45l-8 -118l-1 -50l3 -108l-7 1
l-93 1h-90l5 179l-2 76l-4 60l-11 66q66 30 146 48zM533 485l14 -102q-1 2 -3 5t-4 5l-1 2l-16 25q-20 30 -46 60l-6 7q8 1 17 1q21 0 45 -3zM37 476l86 7q-30 -14 -82 -31zM243 476q23 -1 41 -1h16q-4 -2 -7 -5l-13 -10l-16 -12q-1 -1 -3.5 -2.5t-3.5 -2.5q-7 17 -10 24
t-4 9zM28 377q17 -81 17 -158v-16l-4 -57l-6 -64l-6 -48q-1 6 -1 11l-3 29q-3 29 -3 35v9l-2 69l2 96l4 75zM552 347l2 -10l10 -107l7 -114v-4q-32 43 -32 110q0 68 13 125zM294 336q6 -23 6 -33q0 -7 -1 -15l-2 -18q-3 -27 -6 -39l-8 -45l-16 -78l-1 10q-4 31 -4 58v5v24
q1 6 1 12l5 56q3 32 26 63zM299 146l2 -14q7 -73 26 -129q-18 -4 -39 -5q-1 15 -1 36q0 46 7 84l4 20zM571 83l1 -21l-52 -14q-47 -12 -81 -15q53 27 115 45q2 1 8 2.5t9 2.5zM244 22l-1 -21l-32 6l-60 9l-59 5q-9 1 -20 2t-14 1q55 8 90 8q63 0 96 -10zM113 409l-24 -7
l7 -74l4 -103v-134h4l7 89l4 74l1 63v27l-1 25q0 13 -2 32v8zM334 399q11 -14 11 -15l12 -20q13 -22 13 -30q0 -6 -1 -11q-1 -3 -3 -40q-3 -45 -3 -75q0 -61 14 -119h5l-3 68v28l1 29q2 61 17 117q-3 7 -6 8l-10 14q-16 24 -47 46zM474 659q2 -8 2 -9q5 -18 5 -30
q0 -3 -0.5 -11t-0.5 -12q-9 26 -16 39l-7 11q-1 1 -3 4t-3 5zM225 658l-10 -2l-73 -25q-1 3 -3 6.5t-3.5 6.5t-2.5 7q16 3 32 5l22 2q14 2 26 2zM363 648l31 3q-3 -2 -6 -4.5t-4 -2.5l-15 -10l-11 -9q-3 -3 -7 -6q-12 9 -23 14l-21 12l-3 1q-3 2 -5 4zM423 639
q13 -18 21 -41q-31 -20 -57 -32q-16 -8 -18 -8q-8 -5 -10 -5q-11 0 -36 12l-59 23l-24 12q-6 -4 -8 -5l-14 -7l-12 -5l-5 -3q-11 -5 -15 -7q-1 0 -2 -1l-6 -3q-10 13 -12 17l-3 6l-7 11l-2 3q-1 2 -2 3q15 9 18 10q1 1 19 9l9 4l16 6q21 7 24 7q5 0 26 -9l23 -8q2 -1 9 -4
t11 -5l15 -7l24 -12q6 -4 7 -4q2 0 8 6q18 16 62 37z" />
    <glyph glyph-name="ograve" unicode="&#xf2;" horiz-adv-x="614" 
d="M494 506q14 0 17 -1l16 -1l25 -2q5 0 9 -1l12 -41l-9 6q-31 21 -59 35zM206 495l-61 -32q-3 -1 -22 -13l-19 -12q-19 -11 -32 -23l-10 -17l-23 -42l-19 -39l22 130l58 20l58 16zM304 23l-44 8q-83 15 -130 50q-45 33 -64 56l-10 11q-7 8 -9 20l-5 24q-2 8 -6 38
q-4 31 -4 34q0 12 14.5 50t29.5 65q10 19 18.5 27.5t31.5 22.5q42 25 98 42q59 18 85 18q15 0 62 -14l38 -11q37 -10 95 -47q15 -9 20 -14.5t11 -22.5l16 -37q7 -16 18 -67q5 -20 5 -25q0 -8 -8 -30l-9 -25l-22 -51q-8 -19 -13.5 -25t-27.5 -19l-50 -28q-65 -39 -140 -50z
M450 487q41 -18 90 -44l22 -11l12 -6q8 -4 9 -15q0 -6 3 -21q10 -60 11 -96l-18 49q-1 4 -20 46q-6 12 -16 22q-33 32 -60 50q-20 14 -33 26zM589 209h1l-22 -102l-31 -14l13 33l27 61zM19 154q42 -40 46 -44q34 -30 81 -62q10 -7 19.5 -13.5t14 -10t5.5 -3.5q3 0 7 -6
l-59 25q-37 14 -72 39l-29 19q-1 1 -3 2t-3 2q-1 4 -2 9t-1.5 8t-0.5 4l-2 22q0 5 -1 9zM575 80l-5 -33l-68 -14q-8 -1 -54 -9q-30 -4 -43 -5l67 26l96 34zM34 55q77 -33 152 -55q-46 0 -130 10l-9 1q-8 19 -13 44zM350 435q29 -50 31 -67l4 -19l2 -10l6 -47l2 -28l3 -27
l2 -43q1 -7 1 -16q0 -13 -14 -43l-25 -51l6 6l18 21l16 21q16 20 16 27v6l-1 50l-1 54l-4 62q-2 22 -4 28.5t-15 22.5l-24 31l-1 2l-5 5t-5 6zM198 424q-48 -23 -52 -25l-22 -13q-13 -8 -20 -23l-17 -45q-5 -15 -12 -38q-5 -17 -5 -19q0 -3 3 -20l5 -35q4 -27 14 -40
q35 -39 79 -69q-28 29 -35 40l-25 34q-8 10 -9.5 16.5t-3.5 30.5l-2 40l7 25l10 37l9 26q4 15 13 24q17 19 57 49q1 1 7 5h-1zM310 423q-44 -33 -53 -56q-11 -22 -11 -104v-61q0 -24 6 -38q20 -47 52 -85q46 51 59 88l-3 57l-6 74l-9 72q-3 15 -16 31q-3 3 -6.5 7t-4.5 5
q-4 8 -8 10zM305 385l2 -1q21 -30 23 -50l6 -58l2 -18q1 -10 2 -23.5t1.5 -20t0.5 -9.5q0 -20 -12 -53l-3 14q-4 20 -10 51l-5 45l-5 59zM276 320q5 -46 9 -65l10 -47l22 -77l-15 -20q-34 60 -34 127q0 47 8 82zM143 681l24 -9l-16 -31l-18 -37l1 29l4 30zM197 659l41 -17
l62 -29l78 -42l1 -1v1l14 -8l-4 -9l-83 11l-82 15l-67 15l8 17l15 25q4 7 17 22zM327 630l48 -13l42 -12l-11 -19l-79 42v2z" />
    <glyph glyph-name="oacute" unicode="&#xf3;" horiz-adv-x="614" 
d="M494 506q14 0 17 -1l16 -1l25 -2q5 0 9 -1l12 -41l-9 6q-31 21 -59 35zM206 495l-61 -32q-3 -1 -22 -13l-19 -12q-19 -11 -32 -23l-10 -17l-23 -42l-19 -39l22 130l58 20l58 16zM304 23l-44 8q-83 15 -130 50q-45 33 -64 56l-10 11q-7 8 -9 20l-5 24q-2 8 -6 38
q-4 31 -4 34q0 12 14.5 50t29.5 65q10 19 18.5 27.5t31.5 22.5q42 25 98 42q59 18 85 18q15 0 62 -14l38 -11q37 -10 95 -47q15 -9 20 -14.5t11 -22.5l16 -37q7 -16 18 -67q5 -20 5 -25q0 -8 -8 -30l-9 -25l-22 -51q-8 -19 -13.5 -25t-27.5 -19l-50 -28q-65 -39 -140 -50z
M450 487q41 -18 90 -44l22 -11l12 -6q8 -4 9 -15q0 -6 3 -21q10 -60 11 -96l-18 49q-1 4 -20 46q-6 12 -16 22q-33 32 -60 50q-20 14 -33 26zM589 209h1l-22 -102l-31 -14l13 33l27 61zM19 154q42 -40 46 -44q34 -30 81 -62q10 -7 19.5 -13.5t14 -10t5.5 -3.5q3 0 7 -6
l-59 25q-37 14 -72 39l-29 19q-1 1 -3 2t-3 2q-1 4 -2 9t-1.5 8t-0.5 4l-2 22q0 5 -1 9zM575 80l-5 -33l-68 -14q-8 -1 -54 -9q-30 -4 -43 -5l67 26l96 34zM34 55q77 -33 152 -55q-46 0 -130 10l-9 1q-8 19 -13 44zM350 435q29 -50 31 -67l4 -19l2 -10l6 -47l2 -28l3 -27
l2 -43q1 -7 1 -16q0 -13 -14 -43l-25 -51l6 6l18 21l16 21q16 20 16 27v6l-1 50l-1 54l-4 62q-2 22 -4 28.5t-15 22.5l-24 31l-1 2l-5 5t-5 6zM198 424q-48 -23 -52 -25l-22 -13q-13 -8 -20 -23l-17 -45q-5 -15 -12 -38q-5 -17 -5 -19q0 -3 3 -20l5 -35q4 -27 14 -40
q35 -39 79 -69q-28 29 -35 40l-25 34q-8 10 -9.5 16.5t-3.5 30.5l-2 40l7 25l10 37l9 26q4 15 13 24q17 19 57 49q1 1 7 5h-1zM310 423q-44 -33 -53 -56q-11 -22 -11 -104v-61q0 -24 6 -38q20 -47 52 -85q46 51 59 88l-3 57l-6 74l-9 72q-3 15 -16 31q-3 3 -6.5 7t-4.5 5
q-4 8 -8 10zM305 385l2 -1q21 -30 23 -50l6 -58l2 -18q1 -10 2 -23.5t1.5 -20t0.5 -9.5q0 -20 -12 -53l-3 14q-4 20 -10 51l-5 45l-5 59zM276 320q5 -46 9 -65l10 -47l22 -77l-15 -20q-34 60 -34 127q0 47 8 82zM427 664q4 -2 6 -7l13 -22q7 -12 14 -31l-83 -25l-71 -19
l-43 -10h-2q-2 -1 -5 -1q-4 -1 -9 -2q-1 -1 -4 -1.5t-4 -0.5l-5 10l79 47l80 45zM328 652l-47 -34l-58 -40q-1 1 -1.5 2.5t-1.5 3t-1 2.5q-3 11 -5 13l-2 4q0 1 0.5 1t0.5 1l84 34z" />
    <glyph glyph-name="ocircumflex" unicode="&#xf4;" horiz-adv-x="614" 
d="M494 506q14 0 17 -1l16 -1l25 -2q5 0 9 -1l12 -41l-9 6q-31 21 -59 35zM206 495l-61 -32q-3 -1 -22 -13l-19 -12q-19 -11 -32 -23l-10 -17l-23 -42l-19 -39l22 130l58 20l58 16zM304 23l-44 8q-83 15 -130 50q-45 33 -64 56l-10 11q-7 8 -9 20l-5 24q-2 8 -6 38
q-4 31 -4 34q0 12 14.5 50t29.5 65q10 19 18.5 27.5t31.5 22.5q42 25 98 42q59 18 85 18q15 0 62 -14l38 -11q37 -10 95 -47q15 -9 20 -14.5t11 -22.5l16 -37q7 -16 18 -67q5 -20 5 -25q0 -8 -8 -30l-9 -25l-22 -51q-8 -19 -13.5 -25t-27.5 -19l-50 -28q-65 -39 -140 -50z
M450 487q41 -18 90 -44l22 -11l12 -6q8 -4 9 -15q0 -6 3 -21q10 -60 11 -96l-18 49q-1 4 -20 46q-6 12 -16 22q-33 32 -60 50q-20 14 -33 26zM589 209h1l-22 -102l-31 -14l13 33l27 61zM19 154q42 -40 46 -44q34 -30 81 -62q10 -7 19.5 -13.5t14 -10t5.5 -3.5q3 0 7 -6
l-59 25q-37 14 -72 39l-29 19q-1 1 -3 2t-3 2q-1 4 -2 9t-1.5 8t-0.5 4l-2 22q0 5 -1 9zM575 80l-5 -33l-68 -14q-8 -1 -54 -9q-30 -4 -43 -5l67 26l96 34zM34 55q77 -33 152 -55q-46 0 -130 10l-9 1q-8 19 -13 44zM350 435q29 -50 31 -67l4 -19l2 -10l6 -47l2 -28l3 -27
l2 -43q1 -7 1 -16q0 -13 -14 -43l-25 -51l6 6l18 21l16 21q16 20 16 27v6l-1 50l-1 54l-4 62q-2 22 -4 28.5t-15 22.5l-24 31l-1 2l-5 5t-5 6zM198 424q-48 -23 -52 -25l-22 -13q-13 -8 -20 -23l-17 -45q-5 -15 -12 -38q-5 -17 -5 -19q0 -3 3 -20l5 -35q4 -27 14 -40
q35 -39 79 -69q-28 29 -35 40l-25 34q-8 10 -9.5 16.5t-3.5 30.5l-2 40l7 25l10 37l9 26q4 15 13 24q17 19 57 49q1 1 7 5h-1zM310 423q-44 -33 -53 -56q-11 -22 -11 -104v-61q0 -24 6 -38q20 -47 52 -85q46 51 59 88l-3 57l-6 74l-9 72q-3 15 -16 31q-3 3 -6.5 7t-4.5 5
q-4 8 -8 10zM305 385l2 -1q21 -30 23 -50l6 -58l2 -18q1 -10 2 -23.5t1.5 -20t0.5 -9.5q0 -20 -12 -53l-3 14q-4 20 -10 51l-5 45l-5 59zM276 320q5 -46 9 -65l10 -47l22 -77l-15 -20q-34 60 -34 127q0 47 8 82zM448 578l-13 -24q-41 11 -57 16l-4 2l-7 2l-51 19l-9 -4
q-66 -30 -114 -40l-12 23l12 8q6 5 37 25q37 24 49 30l24 11q6 3 7 3q2 0 14 -5q1 0 3 -1t6 -2.5t7 -2.5q47 -16 108 -60zM370 647q20 -1 38 -5l58 -13q0 -2 -1.5 -7.5t-3.5 -10.5l-9 4q-32 15 -82 31v1zM248 643q-9 -8 -21 -15l-39 -23l-16 -8l-7 22q11 4 43 14
q36 10 39 10h1z" />
    <glyph glyph-name="otilde" unicode="&#xf5;" horiz-adv-x="614" 
d="M494 506q14 0 17 -1l16 -1l25 -2q5 0 9 -1l12 -41l-9 6q-31 21 -59 35zM206 495l-61 -32q-3 -1 -22 -13l-19 -12q-19 -11 -32 -23l-10 -17l-23 -42l-19 -39l22 130l58 20l58 16zM304 23l-44 8q-83 15 -130 50q-45 33 -64 56l-10 11q-7 8 -9 20l-5 24q-2 8 -6 38
q-4 31 -4 34q0 12 14.5 50t29.5 65q10 19 18.5 27.5t31.5 22.5q42 25 98 42q59 18 85 18q15 0 62 -14l38 -11q37 -10 95 -47q15 -9 20 -14.5t11 -22.5l16 -37q7 -16 18 -67q5 -20 5 -25q0 -8 -8 -30l-9 -25l-22 -51q-8 -19 -13.5 -25t-27.5 -19l-50 -28q-65 -39 -140 -50z
M450 487q41 -18 90 -44l22 -11l12 -6q8 -4 9 -15q0 -6 3 -21q10 -60 11 -96l-18 49q-1 4 -20 46q-6 12 -16 22q-33 32 -60 50q-20 14 -33 26zM589 209h1l-22 -102l-31 -14l13 33l27 61zM19 154q42 -40 46 -44q34 -30 81 -62q10 -7 19.5 -13.5t14 -10t5.5 -3.5q3 0 7 -6
l-59 25q-37 14 -72 39l-29 19q-1 1 -3 2t-3 2q-1 4 -2 9t-1.5 8t-0.5 4l-2 22q0 5 -1 9zM575 80l-5 -33l-68 -14q-8 -1 -54 -9q-30 -4 -43 -5l67 26l96 34zM34 55q77 -33 152 -55q-46 0 -130 10l-9 1q-8 19 -13 44zM350 435q29 -50 31 -67l4 -19l2 -10l6 -47l2 -28l3 -27
l2 -43q1 -7 1 -16q0 -13 -14 -43l-25 -51l6 6l18 21l16 21q16 20 16 27v6l-1 50l-1 54l-4 62q-2 22 -4 28.5t-15 22.5l-24 31l-1 2l-5 5t-5 6zM198 424q-48 -23 -52 -25l-22 -13q-13 -8 -20 -23l-17 -45q-5 -15 -12 -38q-5 -17 -5 -19q0 -3 3 -20l5 -35q4 -27 14 -40
q35 -39 79 -69q-28 29 -35 40l-25 34q-8 10 -9.5 16.5t-3.5 30.5l-2 40l7 25l10 37l9 26q4 15 13 24q17 19 57 49q1 1 7 5h-1zM310 423q-44 -33 -53 -56q-11 -22 -11 -104v-61q0 -24 6 -38q20 -47 52 -85q46 51 59 88l-3 57l-6 74l-9 72q-3 15 -16 31q-3 3 -6.5 7t-4.5 5
q-4 8 -8 10zM305 385l2 -1q21 -30 23 -50l6 -58l2 -18q1 -10 2 -23.5t1.5 -20t0.5 -9.5q0 -20 -12 -53l-3 14q-4 20 -10 51l-5 45l-5 59zM276 320q5 -46 9 -65l10 -47l22 -77l-15 -20q-34 60 -34 127q0 47 8 82zM474 659q2 -8 2 -9q5 -18 5 -30q0 -3 -0.5 -11t-0.5 -12
q-9 26 -16 39l-7 11q-1 1 -3 4t-3 5zM225 658l-10 -2l-73 -25q-1 3 -3 6.5t-3.5 6.5t-2.5 7q16 3 32 5l22 2q14 2 26 2zM363 648l31 3q-3 -2 -6 -4.5t-4 -2.5l-15 -10l-11 -9q-3 -3 -7 -6q-12 9 -23 14l-21 12l-3 1q-3 2 -5 4zM423 639q13 -18 21 -41q-31 -20 -57 -32
q-16 -8 -18 -8q-8 -5 -10 -5q-11 0 -36 12l-59 23l-24 12q-6 -4 -8 -5l-14 -7l-12 -5l-5 -3q-11 -5 -15 -7q-1 0 -2 -1l-6 -3q-10 13 -12 17l-3 6l-7 11l-2 3q-1 2 -2 3q15 9 18 10q1 1 19 9l9 4l16 6q21 7 24 7q5 0 26 -9l23 -8q2 -1 9 -4t11 -5l15 -7l24 -12q6 -4 7 -4
q2 0 8 6q18 16 62 37z" />
    <glyph glyph-name="odieresis" unicode="&#xf6;" horiz-adv-x="614" 
d="M494 506q14 0 17 -1l16 -1l25 -2q5 0 9 -1l12 -41l-9 6q-31 21 -59 35zM206 495l-61 -32q-3 -1 -22 -13l-19 -12q-19 -11 -32 -23l-10 -17l-23 -42l-19 -39l22 130l58 20l58 16zM304 23l-44 8q-83 15 -130 50q-45 33 -64 56l-10 11q-7 8 -9 20l-5 24q-2 8 -6 38
q-4 31 -4 34q0 12 14.5 50t29.5 65q10 19 18.5 27.5t31.5 22.5q42 25 98 42q59 18 85 18q15 0 62 -14l38 -11q37 -10 95 -47q15 -9 20 -14.5t11 -22.5l16 -37q7 -16 18 -67q5 -20 5 -25q0 -8 -8 -30l-9 -25l-22 -51q-8 -19 -13.5 -25t-27.5 -19l-50 -28q-65 -39 -140 -50z
M450 487q41 -18 90 -44l22 -11l12 -6q8 -4 9 -15q0 -6 3 -21q10 -60 11 -96l-18 49q-1 4 -20 46q-6 12 -16 22q-33 32 -60 50q-20 14 -33 26zM589 209h1l-22 -102l-31 -14l13 33l27 61zM19 154q42 -40 46 -44q34 -30 81 -62q10 -7 19.5 -13.5t14 -10t5.5 -3.5q3 0 7 -6
l-59 25q-37 14 -72 39l-29 19q-1 1 -3 2t-3 2q-1 4 -2 9t-1.5 8t-0.5 4l-2 22q0 5 -1 9zM575 80l-5 -33l-68 -14q-8 -1 -54 -9q-30 -4 -43 -5l67 26l96 34zM34 55q77 -33 152 -55q-46 0 -130 10l-9 1q-8 19 -13 44zM350 435q29 -50 31 -67l4 -19l2 -10l6 -47l2 -28l3 -27
l2 -43q1 -7 1 -16q0 -13 -14 -43l-25 -51l6 6l18 21l16 21q16 20 16 27v6l-1 50l-1 54l-4 62q-2 22 -4 28.5t-15 22.5l-24 31l-1 2l-5 5t-5 6zM198 424q-48 -23 -52 -25l-22 -13q-13 -8 -20 -23l-17 -45q-5 -15 -12 -38q-5 -17 -5 -19q0 -3 3 -20l5 -35q4 -27 14 -40
q35 -39 79 -69q-28 29 -35 40l-25 34q-8 10 -9.5 16.5t-3.5 30.5l-2 40l7 25l10 37l9 26q4 15 13 24q17 19 57 49q1 1 7 5h-1zM310 423q-44 -33 -53 -56q-11 -22 -11 -104v-61q0 -24 6 -38q20 -47 52 -85q46 51 59 88l-3 57l-6 74l-9 72q-3 15 -16 31q-3 3 -6.5 7t-4.5 5
q-4 8 -8 10zM305 385l2 -1q21 -30 23 -50l6 -58l2 -18q1 -10 2 -23.5t1.5 -20t0.5 -9.5q0 -20 -12 -53l-3 14q-4 20 -10 51l-5 45l-5 59zM276 320q5 -46 9 -65l10 -47l22 -77l-15 -20q-34 60 -34 127q0 47 8 82zM133 639l58 8l-56 -29zM389 645l27 -16l37 -28l-43 -26
l-25 -12l-47 25l-20 13l17 12l30 19zM240 643q2 -1 7 -4t12 -8l14 -9q10 -7 28 -22l-25 -15l-44 -23l-33 19l-31 19v2l33 20zM278 643l30 -4h23l-28 -21l-22 22q-2 1 -3 3zM429 643l64 -7l-4 -28z" />
    <glyph glyph-name="divide" unicode="&#xf7;" 
d="M411 491q0 -27 -17.5 -43.5t-41.5 -16.5q-26 0 -44 17t-18 42t17.5 43t44.5 18q26 0 42.5 -17t16.5 -43zM603 255h-504v85h504v-85zM411 103q0 -27 -17.5 -43.5t-41.5 -16.5q-25 0 -43.5 17.5t-18.5 41.5q0 25 17.5 43t44.5 18q26 0 42.5 -17t16.5 -43z" />
    <glyph glyph-name="oslash" unicode="&#xf8;" horiz-adv-x="625" 
d="M230 571l42 2q-25 -9 -69 -21q-23 -6 -91 -22q-41 -10 -72 -14l9 37l87 10zM441 539l-1 -2l-6 -11q-4 -8 -21 -34l-63 17l-53 11zM482 531q32 -25 61 -61l-8 -5q-12 -8 -23 -21l-21 -21l6 -6q40 -38 69 -77q10 -15 13 -41q3 -35 3 -55q0 -25 -3 -55q-1 -14 -19 -35
l-30 -33l-36 -34q-23 -22 -49 -31l-36 -12q-59 -21 -85 -21q-20 0 -67 14q-44 13 -84 33l-8 4q-26 -25 -53 -64l-6 -8q-31 24 -56 51l-9 10l12 10l46 44q-36 27 -64 61q-9 50 -9 86l3 58q0 13 16 32l26 31q12 14 43 43q18 15 87 39q67 24 100 24q16 0 50 -9l18 -5l55 -17
l40 43q9 10 18 28zM188 508l81 10l-149 -47l-44 -40l-56 -58l5 60l7 42l74 17zM565 456l2 -10q1 -7 4 -20t4 -19q4 -19 10 -34q-40 37 -60 51q15 16 40 32zM603 228q6 -31 6 -59q0 -24 -3 -60l-7 -5q-38 -26 -55 -36l-48 -25l-34 -17l47 39l29 25l39 40l14 16l9 58zM24 151
l36 -32l-34 -32zM601 76l-7 -41l-77 -11zM174 38l56 -33q-6 0 -14 0.5t-11 0.5q-29 0 -61 -7zM357 441q20 -21 35 -44q7 -9 8 -23q0 -4 3 -32q2 -36 2 -83q0 -69 -3 -96l-5 -8q-14 -26 -36 -57l-9 -11q8 6 9 7q24 18 29 23l28 27q3 3 3 4l6 99v74q0 6 -0.5 16t-0.5 15l-3 28
q-1 13 -4 18t-19 16q-26 18 -43 27zM267 394q-6 -44 -6 -93v-22l92 100q-7 18 -21.5 34.5t-21.5 16.5q-7 -1 -27 -19q-8 -7 -16 -17zM140 394q-24 -22 -35 -34l-20 -23q-11 -12 -12.5 -17.5t-1.5 -30.5v-11q1 -25 1 -41l2 -24q1 -13 10 -23l20 -21q20 -20 40 -35
q-20 26 -39 59q-8 15 -8 40l1 37q1 39 10 65t33 59h-1zM354 281l-88 -95l1 -9q1 -10 2 -22q1 -18 5 -21l1 -2q12 -12 33 -27q28 22 45 59l1 32v28v38v19zM319 402q-13 -32 -36 -61q0 23 8 47q5 10 28 14zM332 224q-3 -12 -5 -16l-8 -23q-8 -26 -13 -52q-19 22 -19 33
q0 1 1 2v2l7 9l19 24q6 6 13 15q3 3 5 6z" />
    </font>
</defs>
</svg>
